<svg width="668" height="375" viewBox="0 0 668 375" fill="none" xmlns="http://www.w3.org/2000/svg">
<path d="M27.6591 27.9091C27.5568 27.0455 27.142 26.375 26.4148 25.8977C25.6875 25.4205 24.7955 25.1818 23.7386 25.1818C22.9659 25.1818 22.2898 25.3068 21.7102 25.5568C21.1364 25.8068 20.6875 26.1506 20.3636 26.5881C20.0455 27.0256 19.8864 27.5227 19.8864 28.0795C19.8864 28.5455 19.9972 28.946 20.2188 29.2812C20.446 29.6108 20.7358 29.8864 21.0881 30.108C21.4403 30.3239 21.8097 30.5028 22.196 30.6449C22.5824 30.7812 22.9375 30.892 23.2614 30.9773L25.0341 31.4545C25.4886 31.5739 25.9943 31.7386 26.5511 31.9489C27.1136 32.1591 27.6506 32.446 28.1619 32.8097C28.679 33.1676 29.1051 33.6278 29.4403 34.1903C29.7756 34.7528 29.9432 35.4432 29.9432 36.2614C29.9432 37.2045 29.696 38.0568 29.2017 38.8182C28.7131 39.5795 27.9972 40.1847 27.054 40.6335C26.1165 41.0824 24.9773 41.3068 23.6364 41.3068C22.3864 41.3068 21.304 41.1051 20.3892 40.7017C19.4801 40.2983 18.7642 39.7358 18.2415 39.0142C17.7244 38.2926 17.4318 37.4545 17.3636 36.5H19.5455C19.6023 37.1591 19.8239 37.7045 20.2102 38.1364C20.6023 38.5625 21.0966 38.8807 21.6932 39.0909C22.2955 39.2955 22.9432 39.3977 23.6364 39.3977C24.4432 39.3977 25.1676 39.267 25.8097 39.0057C26.4517 38.7386 26.9602 38.3693 27.3352 37.8977C27.7102 37.4205 27.8977 36.8636 27.8977 36.2273C27.8977 35.6477 27.7358 35.1761 27.4119 34.8125C27.0881 34.4489 26.6619 34.1534 26.1335 33.9261C25.6051 33.6989 25.0341 33.5 24.4205 33.3295L22.2727 32.7159C20.9091 32.3239 19.8295 31.7642 19.0341 31.0369C18.2386 30.3097 17.8409 29.358 17.8409 28.1818C17.8409 27.2045 18.1051 26.3523 18.6335 25.625C19.1676 24.892 19.8835 24.3239 20.7812 23.9205C21.6847 23.5114 22.6932 23.3068 23.8068 23.3068C24.9318 23.3068 25.9318 23.5085 26.8068 23.9119C27.6818 24.3097 28.375 24.8551 28.8864 25.5483C29.4034 26.2415 29.6761 27.0284 29.7045 27.9091H27.6591ZM38.6342 41.2727C37.3729 41.2727 36.2848 40.9943 35.37 40.4375C34.4609 39.875 33.7592 39.0909 33.2649 38.0852C32.7763 37.0739 32.532 35.8977 32.532 34.5568C32.532 33.2159 32.7763 32.0341 33.2649 31.0114C33.7592 29.983 34.4467 29.1818 35.3274 28.608C36.2138 28.0284 37.2479 27.7386 38.4297 27.7386C39.1115 27.7386 39.7848 27.8523 40.4496 28.0795C41.1143 28.3068 41.7195 28.6761 42.2649 29.1875C42.8104 29.6932 43.245 30.3636 43.5689 31.1989C43.8928 32.0341 44.0547 33.0625 44.0547 34.2841V35.1364H33.9638V33.3977H42.0092C42.0092 32.6591 41.8615 32 41.5661 31.4205C41.2763 30.8409 40.8615 30.3835 40.3217 30.0483C39.7876 29.7131 39.157 29.5455 38.4297 29.5455C37.6286 29.5455 36.9354 29.7443 36.3501 30.142C35.7706 30.5341 35.3246 31.0455 35.0121 31.6761C34.6996 32.3068 34.5433 32.983 34.5433 33.7045V34.8636C34.5433 35.8523 34.7138 36.6903 35.0547 37.3778C35.4013 38.0597 35.8814 38.5795 36.495 38.9375C37.1087 39.2898 37.8217 39.4659 38.6342 39.4659C39.1626 39.4659 39.6399 39.392 40.0661 39.2443C40.4979 39.0909 40.87 38.8636 41.1825 38.5625C41.495 38.2557 41.7365 37.875 41.907 37.4205L43.8501 37.9659C43.6456 38.625 43.3018 39.2045 42.8189 39.7045C42.3359 40.1989 41.7393 40.5852 41.0291 40.8636C40.3189 41.1364 39.5206 41.2727 38.6342 41.2727ZM47.1143 41V27.9091H49.0575V29.8864H49.1939C49.4325 29.2386 49.8643 28.7131 50.4893 28.3097C51.1143 27.9062 51.8189 27.7045 52.603 27.7045C52.7507 27.7045 52.9354 27.7074 53.157 27.7131C53.3786 27.7187 53.5462 27.7273 53.6598 27.7386V29.7841C53.5916 29.767 53.4354 29.7415 53.1911 29.7074C52.9524 29.6676 52.6996 29.6477 52.4325 29.6477C51.7962 29.6477 51.228 29.7812 50.728 30.0483C50.2337 30.3097 49.8416 30.6733 49.5518 31.1392C49.2678 31.5994 49.1257 32.125 49.1257 32.7159V41H47.1143ZM67.147 27.9091L62.3061 41H60.2607L55.4197 27.9091H57.6016L61.2152 38.3409H61.3516L64.9652 27.9091H67.147ZM69.8018 41V27.9091H71.8132V41H69.8018ZM70.8246 25.7273C70.4325 25.7273 70.0945 25.5938 69.8104 25.3267C69.532 25.0597 69.3928 24.7386 69.3928 24.3636C69.3928 23.9886 69.532 23.6676 69.8104 23.4006C70.0945 23.1335 70.4325 23 70.8246 23C71.2166 23 71.5518 23.1335 71.8303 23.4006C72.1143 23.6676 72.2564 23.9886 72.2564 24.3636C72.2564 24.7386 72.1143 25.0597 71.8303 25.3267C71.5518 25.5938 71.2166 25.7273 70.8246 25.7273ZM80.4403 41.2727C79.3494 41.2727 78.3864 40.9972 77.5511 40.446C76.7159 39.8892 76.0625 39.1051 75.5909 38.0938C75.1193 37.0767 74.8835 35.875 74.8835 34.4886C74.8835 33.1136 75.1193 31.9205 75.5909 30.9091C76.0625 29.8977 76.7188 29.1165 77.5597 28.5653C78.4006 28.0142 79.3722 27.7386 80.4744 27.7386C81.3267 27.7386 82 27.8807 82.4943 28.1648C82.9943 28.4432 83.375 28.7614 83.6364 29.1193C83.9034 29.4716 84.1108 29.7614 84.2585 29.9886H84.429V23.5455H86.4403V41H84.4972V38.9886H84.2585C84.1108 39.2273 83.9006 39.5284 83.6278 39.892C83.3551 40.25 82.9659 40.571 82.4602 40.8551C81.9545 41.1335 81.2813 41.2727 80.4403 41.2727ZM80.7131 39.4659C81.5199 39.4659 82.2017 39.2557 82.7585 38.8352C83.3153 38.4091 83.7386 37.821 84.0284 37.071C84.3182 36.3153 84.4631 35.4432 84.4631 34.4545C84.4631 33.4773 84.321 32.6222 84.0369 31.8892C83.7528 31.1506 83.3324 30.5767 82.7756 30.1676C82.2188 29.7528 81.5313 29.5455 80.7131 29.5455C79.8608 29.5455 79.1506 29.7642 78.5824 30.2017C78.0199 30.6335 77.5966 31.2216 77.3125 31.9659C77.0341 32.7045 76.8949 33.5341 76.8949 34.4545C76.8949 35.3864 77.0369 36.233 77.321 36.9943C77.6108 37.75 78.0369 38.3523 78.5994 38.8011C79.1676 39.2443 79.8722 39.4659 80.7131 39.4659ZM95.7216 41.2727C94.5398 41.2727 93.5028 40.9915 92.6108 40.429C91.7244 39.8665 91.0312 39.0795 90.5312 38.0682C90.0369 37.0568 89.7898 35.875 89.7898 34.5227C89.7898 33.1591 90.0369 31.9687 90.5312 30.9517C91.0312 29.9347 91.7244 29.1449 92.6108 28.5824C93.5028 28.0199 94.5398 27.7386 95.7216 27.7386C96.9034 27.7386 97.9375 28.0199 98.8239 28.5824C99.7159 29.1449 100.409 29.9347 100.903 30.9517C101.403 31.9687 101.653 33.1591 101.653 34.5227C101.653 35.875 101.403 37.0568 100.903 38.0682C100.409 39.0795 99.7159 39.8665 98.8239 40.429C97.9375 40.9915 96.9034 41.2727 95.7216 41.2727ZM95.7216 39.4659C96.6193 39.4659 97.358 39.2358 97.9375 38.7756C98.517 38.3153 98.946 37.7102 99.2244 36.9602C99.5028 36.2102 99.642 35.3977 99.642 34.5227C99.642 33.6477 99.5028 32.8324 99.2244 32.0767C98.946 31.321 98.517 30.7102 97.9375 30.2443C97.358 29.7784 96.6193 29.5455 95.7216 29.5455C94.8239 29.5455 94.0852 29.7784 93.5057 30.2443C92.9261 30.7102 92.4972 31.321 92.2188 32.0767C91.9403 32.8324 91.8011 33.6477 91.8011 34.5227C91.8011 35.3977 91.9403 36.2102 92.2188 36.9602C92.4972 37.7102 92.9261 38.3153 93.5057 38.7756C94.0852 39.2358 94.8239 39.4659 95.7216 39.4659ZM104.724 41V27.9091H106.667V29.8864H106.803C107.042 29.2386 107.474 28.7131 108.099 28.3097C108.724 27.9062 109.428 27.7045 110.212 27.7045C110.36 27.7045 110.545 27.7074 110.766 27.7131C110.988 27.7187 111.156 27.7273 111.269 27.7386V29.7841C111.201 29.767 111.045 29.7415 110.8 29.7074C110.562 29.6676 110.309 29.6477 110.042 29.6477C109.406 29.6477 108.837 29.7812 108.337 30.0483C107.843 30.3097 107.451 30.6733 107.161 31.1392C106.877 31.5994 106.735 32.125 106.735 32.7159V41H104.724ZM125.347 41.2727C124.256 41.2727 123.293 40.9972 122.457 40.446C121.622 39.8892 120.969 39.1051 120.497 38.0938C120.026 37.0767 119.79 35.875 119.79 34.4886C119.79 33.1136 120.026 31.9205 120.497 30.9091C120.969 29.8977 121.625 29.1165 122.466 28.5653C123.307 28.0142 124.278 27.7386 125.381 27.7386C126.233 27.7386 126.906 27.8807 127.401 28.1648C127.901 28.4432 128.281 28.7614 128.543 29.1193C128.81 29.4716 129.017 29.7614 129.165 29.9886H129.335V23.5455H131.347V41H129.403V38.9886H129.165C129.017 39.2273 128.807 39.5284 128.534 39.892C128.261 40.25 127.872 40.571 127.366 40.8551C126.861 41.1335 126.188 41.2727 125.347 41.2727ZM125.619 39.4659C126.426 39.4659 127.108 39.2557 127.665 38.8352C128.222 38.4091 128.645 37.821 128.935 37.071C129.224 36.3153 129.369 35.4432 129.369 34.4545C129.369 33.4773 129.227 32.6222 128.943 31.8892C128.659 31.1506 128.239 30.5767 127.682 30.1676C127.125 29.7528 126.438 29.5455 125.619 29.5455C124.767 29.5455 124.057 29.7642 123.489 30.2017C122.926 30.6335 122.503 31.2216 122.219 31.9659C121.94 32.7045 121.801 33.5341 121.801 34.4545C121.801 35.3864 121.943 36.233 122.227 36.9943C122.517 37.75 122.943 38.3523 123.506 38.8011C124.074 39.2443 124.778 39.4659 125.619 39.4659ZM140.798 41.2727C139.537 41.2727 138.449 40.9943 137.534 40.4375C136.625 39.875 135.923 39.0909 135.429 38.0852C134.94 37.0739 134.696 35.8977 134.696 34.5568C134.696 33.2159 134.94 32.0341 135.429 31.0114C135.923 29.983 136.611 29.1818 137.491 28.608C138.378 28.0284 139.412 27.7386 140.594 27.7386C141.276 27.7386 141.949 27.8523 142.614 28.0795C143.278 28.3068 143.884 28.6761 144.429 29.1875C144.974 29.6932 145.409 30.3636 145.733 31.1989C146.057 32.0341 146.219 33.0625 146.219 34.2841V35.1364H136.128V33.3977H144.173C144.173 32.6591 144.026 32 143.73 31.4205C143.44 30.8409 143.026 30.3835 142.486 30.0483C141.952 29.7131 141.321 29.5455 140.594 29.5455C139.793 29.5455 139.099 29.7443 138.514 30.142C137.935 30.5341 137.489 31.0455 137.176 31.6761C136.864 32.3068 136.707 32.983 136.707 33.7045V34.8636C136.707 35.8523 136.878 36.6903 137.219 37.3778C137.565 38.0597 138.045 38.5795 138.659 38.9375C139.273 39.2898 139.986 39.4659 140.798 39.4659C141.327 39.4659 141.804 39.392 142.23 39.2443C142.662 39.0909 143.034 38.8636 143.347 38.5625C143.659 38.2557 143.901 37.875 144.071 37.4205L146.014 37.9659C145.81 38.625 145.466 39.2045 144.983 39.7045C144.5 40.1989 143.903 40.5852 143.193 40.8636C142.483 41.1364 141.685 41.2727 140.798 41.2727ZM160.972 41.2727C159.881 41.2727 158.918 40.9972 158.082 40.446C157.247 39.8892 156.594 39.1051 156.122 38.0938C155.651 37.0767 155.415 35.875 155.415 34.4886C155.415 33.1136 155.651 31.9205 156.122 30.9091C156.594 29.8977 157.25 29.1165 158.091 28.5653C158.932 28.0142 159.903 27.7386 161.006 27.7386C161.858 27.7386 162.531 27.8807 163.026 28.1648C163.526 28.4432 163.906 28.7614 164.168 29.1193C164.435 29.4716 164.642 29.7614 164.79 29.9886H164.96V23.5455H166.972V41H165.028V38.9886H164.79C164.642 39.2273 164.432 39.5284 164.159 39.892C163.886 40.25 163.497 40.571 162.991 40.8551C162.486 41.1335 161.813 41.2727 160.972 41.2727ZM161.244 39.4659C162.051 39.4659 162.733 39.2557 163.29 38.8352C163.847 38.4091 164.27 37.821 164.56 37.071C164.849 36.3153 164.994 35.4432 164.994 34.4545C164.994 33.4773 164.852 32.6222 164.568 31.8892C164.284 31.1506 163.864 30.5767 163.307 30.1676C162.75 29.7528 162.063 29.5455 161.244 29.5455C160.392 29.5455 159.682 29.7642 159.114 30.2017C158.551 30.6335 158.128 31.2216 157.844 31.9659C157.565 32.7045 157.426 33.5341 157.426 34.4545C157.426 35.3864 157.568 36.233 157.852 36.9943C158.142 37.75 158.568 38.3523 159.131 38.8011C159.699 39.2443 160.403 39.4659 161.244 39.4659ZM176.423 41.2727C175.162 41.2727 174.074 40.9943 173.159 40.4375C172.25 39.875 171.548 39.0909 171.054 38.0852C170.565 37.0739 170.321 35.8977 170.321 34.5568C170.321 33.2159 170.565 32.0341 171.054 31.0114C171.548 29.983 172.236 29.1818 173.116 28.608C174.003 28.0284 175.037 27.7386 176.219 27.7386C176.901 27.7386 177.574 27.8523 178.239 28.0795C178.903 28.3068 179.509 28.6761 180.054 29.1875C180.599 29.6932 181.034 30.3636 181.358 31.1989C181.682 32.0341 181.844 33.0625 181.844 34.2841V35.1364H171.753V33.3977H179.798C179.798 32.6591 179.651 32 179.355 31.4205C179.065 30.8409 178.651 30.3835 178.111 30.0483C177.577 29.7131 176.946 29.5455 176.219 29.5455C175.418 29.5455 174.724 29.7443 174.139 30.142C173.56 30.5341 173.114 31.0455 172.801 31.6761C172.489 32.3068 172.332 32.983 172.332 33.7045V34.8636C172.332 35.8523 172.503 36.6903 172.844 37.3778C173.19 38.0597 173.67 38.5795 174.284 38.9375C174.898 39.2898 175.611 39.4659 176.423 39.4659C176.952 39.4659 177.429 39.392 177.855 39.2443C178.287 39.0909 178.659 38.8636 178.972 38.5625C179.284 38.2557 179.526 37.875 179.696 37.4205L181.639 37.9659C181.435 38.625 181.091 39.2045 180.608 39.7045C180.125 40.1989 179.528 40.5852 178.818 40.8636C178.108 41.1364 177.31 41.2727 176.423 41.2727ZM194.176 30.8409L192.369 31.3523C192.256 31.0511 192.088 30.7585 191.866 30.4744C191.651 30.1847 191.355 29.946 190.98 29.7585C190.605 29.571 190.125 29.4773 189.54 29.4773C188.739 29.4773 188.071 29.6619 187.537 30.0312C187.009 30.3949 186.744 30.858 186.744 31.4205C186.744 31.9205 186.926 32.3153 187.29 32.6051C187.653 32.8949 188.222 33.1364 188.994 33.3295L190.938 33.8068C192.108 34.0909 192.98 34.5256 193.554 35.1108C194.128 35.6903 194.415 36.4375 194.415 37.3523C194.415 38.1023 194.199 38.7727 193.767 39.3636C193.341 39.9545 192.744 40.4205 191.977 40.7614C191.21 41.1023 190.318 41.2727 189.301 41.2727C187.966 41.2727 186.861 40.983 185.986 40.4034C185.111 39.8239 184.557 38.9773 184.324 37.8636L186.233 37.3864C186.415 38.0909 186.759 38.6193 187.264 38.9716C187.776 39.3239 188.443 39.5 189.267 39.5C190.205 39.5 190.949 39.3011 191.5 38.9034C192.057 38.5 192.335 38.017 192.335 37.4545C192.335 37 192.176 36.6193 191.858 36.3125C191.54 36 191.051 35.767 190.392 35.6136L188.21 35.1023C187.011 34.8182 186.131 34.3778 185.568 33.7812C185.011 33.179 184.733 32.4261 184.733 31.5227C184.733 30.7841 184.94 30.1307 185.355 29.5625C185.776 28.9943 186.347 28.5483 187.068 28.2244C187.795 27.9006 188.619 27.7386 189.54 27.7386C190.835 27.7386 191.852 28.0227 192.591 28.5909C193.335 29.1591 193.864 29.9091 194.176 30.8409ZM201.295 41.3068C200.465 41.3068 199.712 41.1506 199.036 40.8381C198.36 40.5199 197.823 40.0625 197.425 39.4659C197.028 38.8636 196.829 38.1364 196.829 37.2841C196.829 36.5341 196.977 35.9261 197.272 35.4602C197.567 34.9886 197.962 34.6193 198.457 34.3523C198.951 34.0852 199.496 33.8864 200.093 33.7557C200.695 33.6193 201.3 33.5114 201.908 33.4318C202.704 33.3295 203.349 33.2528 203.843 33.2017C204.343 33.1449 204.707 33.0511 204.934 32.9205C205.167 32.7898 205.283 32.5625 205.283 32.2386V32.1705C205.283 31.3295 205.053 30.6761 204.593 30.2102C204.138 29.7443 203.448 29.5114 202.522 29.5114C201.562 29.5114 200.809 29.7216 200.263 30.142C199.718 30.5625 199.335 31.0114 199.113 31.4886L197.204 30.8068C197.545 30.0114 197.999 29.392 198.567 28.9489C199.141 28.5 199.766 28.1875 200.442 28.0114C201.124 27.8295 201.795 27.7386 202.454 27.7386C202.874 27.7386 203.357 27.7898 203.903 27.892C204.454 27.9886 204.985 28.1903 205.496 28.4972C206.013 28.804 206.442 29.267 206.783 29.8864C207.124 30.5057 207.295 31.3352 207.295 32.375V41H205.283V39.2273H205.181C205.045 39.5114 204.817 39.8153 204.499 40.1392C204.181 40.4631 203.758 40.7386 203.229 40.9659C202.701 41.1932 202.056 41.3068 201.295 41.3068ZM201.602 39.5C202.397 39.5 203.067 39.3438 203.613 39.0312C204.164 38.7188 204.579 38.3153 204.857 37.821C205.141 37.3267 205.283 36.8068 205.283 36.2614V34.4205C205.198 34.5227 205.011 34.6165 204.721 34.7017C204.437 34.7812 204.107 34.8523 203.732 34.9148C203.363 34.9716 203.002 35.0227 202.65 35.0682C202.303 35.108 202.022 35.142 201.806 35.1705C201.283 35.2386 200.795 35.3494 200.34 35.5028C199.891 35.6506 199.528 35.875 199.249 36.1761C198.977 36.4716 198.84 36.875 198.84 37.3864C198.84 38.0852 199.099 38.6136 199.616 38.9716C200.138 39.3239 200.8 39.5 201.602 39.5ZM210.966 41V27.9091H212.909V29.8864H213.045C213.284 29.2386 213.716 28.7131 214.341 28.3097C214.966 27.9062 215.67 27.7045 216.455 27.7045C216.602 27.7045 216.787 27.7074 217.009 27.7131C217.23 27.7187 217.398 27.7273 217.511 27.7386V29.7841C217.443 29.767 217.287 29.7415 217.043 29.7074C216.804 29.6676 216.551 29.6477 216.284 29.6477C215.648 29.6477 215.08 29.7812 214.58 30.0483C214.085 30.3097 213.693 30.6733 213.403 31.1392C213.119 31.5994 212.977 32.125 212.977 32.7159V41H210.966ZM219.896 41V27.9091H221.839V29.8864H221.975C222.214 29.2386 222.646 28.7131 223.271 28.3097C223.896 27.9062 224.6 27.7045 225.384 27.7045C225.532 27.7045 225.717 27.7074 225.938 27.7131C226.16 27.7187 226.327 27.7273 226.441 27.7386V29.7841C226.373 29.767 226.217 29.7415 225.972 29.7074C225.734 29.6676 225.481 29.6477 225.214 29.6477C224.577 29.6477 224.009 29.7812 223.509 30.0483C223.015 30.3097 222.623 30.6733 222.333 31.1392C222.049 31.5994 221.907 32.125 221.907 32.7159V41H219.896ZM233.745 41.2727C232.563 41.2727 231.526 40.9915 230.634 40.429C229.748 39.8665 229.055 39.0795 228.555 38.0682C228.06 37.0568 227.813 35.875 227.813 34.5227C227.813 33.1591 228.06 31.9687 228.555 30.9517C229.055 29.9347 229.748 29.1449 230.634 28.5824C231.526 28.0199 232.563 27.7386 233.745 27.7386C234.927 27.7386 235.961 28.0199 236.847 28.5824C237.739 29.1449 238.433 29.9347 238.927 30.9517C239.427 31.9687 239.677 33.1591 239.677 34.5227C239.677 35.875 239.427 37.0568 238.927 38.0682C238.433 39.0795 237.739 39.8665 236.847 40.429C235.961 40.9915 234.927 41.2727 233.745 41.2727ZM233.745 39.4659C234.643 39.4659 235.381 39.2358 235.961 38.7756C236.54 38.3153 236.969 37.7102 237.248 36.9602C237.526 36.2102 237.665 35.3977 237.665 34.5227C237.665 33.6477 237.526 32.8324 237.248 32.0767C236.969 31.321 236.54 30.7102 235.961 30.2443C235.381 29.7784 234.643 29.5455 233.745 29.5455C232.847 29.5455 232.109 29.7784 231.529 30.2443C230.95 30.7102 230.521 31.321 230.242 32.0767C229.964 32.8324 229.825 33.6477 229.825 34.5227C229.825 35.3977 229.964 36.2102 230.242 36.9602C230.521 37.7102 230.95 38.3153 231.529 38.7756C232.109 39.2358 232.847 39.4659 233.745 39.4659ZM244.759 23.5455V41H242.747V23.5455H244.759ZM250.454 23.5455V41H248.442V23.5455H250.454ZM259.456 41.2727C258.274 41.2727 257.237 40.9915 256.345 40.429C255.459 39.8665 254.766 39.0795 254.266 38.0682C253.771 37.0568 253.524 35.875 253.524 34.5227C253.524 33.1591 253.771 31.9687 254.266 30.9517C254.766 29.9347 255.459 29.1449 256.345 28.5824C257.237 28.0199 258.274 27.7386 259.456 27.7386C260.638 27.7386 261.672 28.0199 262.558 28.5824C263.45 29.1449 264.143 29.9347 264.638 30.9517C265.138 31.9687 265.388 33.1591 265.388 34.5227C265.388 35.875 265.138 37.0568 264.638 38.0682C264.143 39.0795 263.45 39.8665 262.558 40.429C261.672 40.9915 260.638 41.2727 259.456 41.2727ZM259.456 39.4659C260.354 39.4659 261.092 39.2358 261.672 38.7756C262.251 38.3153 262.68 37.7102 262.959 36.9602C263.237 36.2102 263.376 35.3977 263.376 34.5227C263.376 33.6477 263.237 32.8324 262.959 32.0767C262.68 31.321 262.251 30.7102 261.672 30.2443C261.092 29.7784 260.354 29.5455 259.456 29.5455C258.558 29.5455 257.82 29.7784 257.24 30.2443C256.661 30.7102 256.232 31.321 255.953 32.0767C255.675 32.8324 255.536 33.6477 255.536 34.5227C255.536 35.3977 255.675 36.2102 255.953 36.9602C256.232 37.7102 256.661 38.3153 257.24 38.7756C257.82 39.2358 258.558 39.4659 259.456 39.4659ZM275.481 41V23.5455H277.492V29.9886H277.663C277.81 29.7614 278.015 29.4716 278.276 29.1193C278.543 28.7614 278.924 28.4432 279.418 28.1648C279.918 27.8807 280.594 27.7386 281.447 27.7386C282.549 27.7386 283.521 28.0142 284.362 28.5653C285.202 29.1165 285.859 29.8977 286.33 30.9091C286.802 31.9205 287.038 33.1136 287.038 34.4886C287.038 35.875 286.802 37.0767 286.33 38.0938C285.859 39.1051 285.205 39.8892 284.37 40.446C283.535 40.9972 282.572 41.2727 281.481 41.2727C280.64 41.2727 279.967 41.1335 279.461 40.8551C278.955 40.571 278.566 40.25 278.293 39.892C278.021 39.5284 277.81 39.2273 277.663 38.9886H277.424V41H275.481ZM277.458 34.4545C277.458 35.4432 277.603 36.3153 277.893 37.071C278.183 37.821 278.606 38.4091 279.163 38.8352C279.719 39.2557 280.401 39.4659 281.208 39.4659C282.049 39.4659 282.751 39.2443 283.313 38.8011C283.881 38.3523 284.308 37.75 284.592 36.9943C284.881 36.233 285.026 35.3864 285.026 34.4545C285.026 33.5341 284.884 32.7045 284.6 31.9659C284.322 31.2216 283.898 30.6335 283.33 30.2017C282.768 29.7642 282.06 29.5455 281.208 29.5455C280.39 29.5455 279.702 29.7528 279.146 30.1676C278.589 30.5767 278.168 31.1506 277.884 31.8892C277.6 32.6222 277.458 33.4773 277.458 34.4545ZM293.967 41.3068C293.137 41.3068 292.384 41.1506 291.708 40.8381C291.032 40.5199 290.495 40.0625 290.097 39.4659C289.7 38.8636 289.501 38.1364 289.501 37.2841C289.501 36.5341 289.648 35.9261 289.944 35.4602C290.239 34.9886 290.634 34.6193 291.129 34.3523C291.623 34.0852 292.168 33.8864 292.765 33.7557C293.367 33.6193 293.972 33.5114 294.58 33.4318C295.376 33.3295 296.021 33.2528 296.515 33.2017C297.015 33.1449 297.379 33.0511 297.606 32.9205C297.839 32.7898 297.955 32.5625 297.955 32.2386V32.1705C297.955 31.3295 297.725 30.6761 297.265 30.2102C296.81 29.7443 296.12 29.5114 295.194 29.5114C294.234 29.5114 293.481 29.7216 292.935 30.142C292.39 30.5625 292.006 31.0114 291.785 31.4886L289.876 30.8068C290.217 30.0114 290.671 29.392 291.239 28.9489C291.813 28.5 292.438 28.1875 293.114 28.0114C293.796 27.8295 294.467 27.7386 295.126 27.7386C295.546 27.7386 296.029 27.7898 296.575 27.892C297.126 27.9886 297.657 28.1903 298.168 28.4972C298.685 28.804 299.114 29.267 299.455 29.8864C299.796 30.5057 299.967 31.3352 299.967 32.375V41H297.955V39.2273H297.853C297.717 39.5114 297.489 39.8153 297.171 40.1392C296.853 40.4631 296.43 40.7386 295.901 40.9659C295.373 41.1932 294.728 41.3068 293.967 41.3068ZM294.273 39.5C295.069 39.5 295.739 39.3438 296.285 39.0312C296.836 38.7188 297.251 38.3153 297.529 37.821C297.813 37.3267 297.955 36.8068 297.955 36.2614V34.4205C297.87 34.5227 297.683 34.6165 297.393 34.7017C297.109 34.7812 296.779 34.8523 296.404 34.9148C296.035 34.9716 295.674 35.0227 295.322 35.0682C294.975 35.108 294.694 35.142 294.478 35.1705C293.955 35.2386 293.467 35.3494 293.012 35.5028C292.563 35.6506 292.2 35.875 291.921 36.1761C291.648 36.4716 291.512 36.875 291.512 37.3864C291.512 38.0852 291.771 38.6136 292.288 38.9716C292.81 39.3239 293.472 39.5 294.273 39.5ZM312.911 30.8409L311.104 31.3523C310.99 31.0511 310.822 30.7585 310.601 30.4744C310.385 30.1847 310.089 29.946 309.714 29.7585C309.339 29.571 308.859 29.4773 308.274 29.4773C307.473 29.4773 306.805 29.6619 306.271 30.0312C305.743 30.3949 305.479 30.858 305.479 31.4205C305.479 31.9205 305.661 32.3153 306.024 32.6051C306.388 32.8949 306.956 33.1364 307.729 33.3295L309.672 33.8068C310.842 34.0909 311.714 34.5256 312.288 35.1108C312.862 35.6903 313.149 36.4375 313.149 37.3523C313.149 38.1023 312.933 38.7727 312.501 39.3636C312.075 39.9545 311.479 40.4205 310.712 40.7614C309.945 41.1023 309.053 41.2727 308.036 41.2727C306.7 41.2727 305.595 40.983 304.72 40.4034C303.845 39.8239 303.291 38.9773 303.058 37.8636L304.967 37.3864C305.149 38.0909 305.493 38.6193 305.999 38.9716C306.51 39.3239 307.178 39.5 308.001 39.5C308.939 39.5 309.683 39.3011 310.234 38.9034C310.791 38.5 311.07 38.017 311.07 37.4545C311.07 37 310.911 36.6193 310.592 36.3125C310.274 36 309.786 35.767 309.126 35.6136L306.945 35.1023C305.746 34.8182 304.865 34.3778 304.303 33.7812C303.746 33.179 303.467 32.4261 303.467 31.5227C303.467 30.7841 303.675 30.1307 304.089 29.5625C304.51 28.9943 305.081 28.5483 305.803 28.2244C306.53 27.9006 307.354 27.7386 308.274 27.7386C309.57 27.7386 310.587 28.0227 311.325 28.5909C312.07 29.1591 312.598 29.9091 312.911 30.8409ZM320.029 41.3068C319.2 41.3068 318.447 41.1506 317.771 40.8381C317.094 40.5199 316.558 40.0625 316.16 39.4659C315.762 38.8636 315.563 38.1364 315.563 37.2841C315.563 36.5341 315.711 35.9261 316.006 35.4602C316.302 34.9886 316.697 34.6193 317.191 34.3523C317.685 34.0852 318.231 33.8864 318.827 33.7557C319.43 33.6193 320.035 33.5114 320.643 33.4318C321.438 33.3295 322.083 33.2528 322.577 33.2017C323.077 33.1449 323.441 33.0511 323.668 32.9205C323.901 32.7898 324.018 32.5625 324.018 32.2386V32.1705C324.018 31.3295 323.788 30.6761 323.327 30.2102C322.873 29.7443 322.183 29.5114 321.256 29.5114C320.296 29.5114 319.543 29.7216 318.998 30.142C318.452 30.5625 318.069 31.0114 317.847 31.4886L315.938 30.8068C316.279 30.0114 316.734 29.392 317.302 28.9489C317.876 28.5 318.501 28.1875 319.177 28.0114C319.859 27.8295 320.529 27.7386 321.188 27.7386C321.609 27.7386 322.092 27.7898 322.637 27.892C323.188 27.9886 323.719 28.1903 324.231 28.4972C324.748 28.804 325.177 29.267 325.518 29.8864C325.859 30.5057 326.029 31.3352 326.029 32.375V41H324.018V39.2273H323.915C323.779 39.5114 323.552 39.8153 323.234 40.1392C322.915 40.4631 322.492 40.7386 321.964 40.9659C321.435 41.1932 320.79 41.3068 320.029 41.3068ZM320.336 39.5C321.131 39.5 321.802 39.3438 322.347 39.0312C322.898 38.7188 323.313 38.3153 323.592 37.821C323.876 37.3267 324.018 36.8068 324.018 36.2614V34.4205C323.933 34.5227 323.745 34.6165 323.455 34.7017C323.171 34.7812 322.842 34.8523 322.467 34.9148C322.097 34.9716 321.737 35.0227 321.384 35.0682C321.038 35.108 320.756 35.142 320.54 35.1705C320.018 35.2386 319.529 35.3494 319.075 35.5028C318.626 35.6506 318.262 35.875 317.984 36.1761C317.711 36.4716 317.575 36.875 317.575 37.3864C317.575 38.0852 317.833 38.6136 318.35 38.9716C318.873 39.3239 319.535 39.5 320.336 39.5ZM334.643 41.2727C333.553 41.2727 332.589 40.9972 331.754 40.446C330.919 39.8892 330.266 39.1051 329.794 38.0938C329.322 37.0767 329.087 35.875 329.087 34.4886C329.087 33.1136 329.322 31.9205 329.794 30.9091C330.266 29.8977 330.922 29.1165 331.763 28.5653C332.604 28.0142 333.575 27.7386 334.678 27.7386C335.53 27.7386 336.203 27.8807 336.697 28.1648C337.197 28.4432 337.578 28.7614 337.839 29.1193C338.107 29.4716 338.314 29.7614 338.462 29.9886H338.632V23.5455H340.643V41H338.7V38.9886H338.462C338.314 39.2273 338.104 39.5284 337.831 39.892C337.558 40.25 337.169 40.571 336.663 40.8551C336.158 41.1335 335.484 41.2727 334.643 41.2727ZM334.916 39.4659C335.723 39.4659 336.405 39.2557 336.962 38.8352C337.518 38.4091 337.942 37.821 338.232 37.071C338.521 36.3153 338.666 35.4432 338.666 34.4545C338.666 33.4773 338.524 32.6222 338.24 31.8892C337.956 31.1506 337.536 30.5767 336.979 30.1676C336.422 29.7528 335.734 29.5455 334.916 29.5455C334.064 29.5455 333.354 29.7642 332.786 30.2017C332.223 30.6335 331.8 31.2216 331.516 31.9659C331.237 32.7045 331.098 33.5341 331.098 34.4545C331.098 35.3864 331.24 36.233 331.524 36.9943C331.814 37.75 332.24 38.3523 332.803 38.8011C333.371 39.2443 334.075 39.4659 334.916 39.4659ZM349.925 41.2727C348.743 41.2727 347.706 40.9915 346.814 40.429C345.928 39.8665 345.234 39.0795 344.734 38.0682C344.24 37.0568 343.993 35.875 343.993 34.5227C343.993 33.1591 344.24 31.9687 344.734 30.9517C345.234 29.9347 345.928 29.1449 346.814 28.5824C347.706 28.0199 348.743 27.7386 349.925 27.7386C351.107 27.7386 352.141 28.0199 353.027 28.5824C353.919 29.1449 354.612 29.9347 355.107 30.9517C355.607 31.9687 355.857 33.1591 355.857 34.5227C355.857 35.875 355.607 37.0568 355.107 38.0682C354.612 39.0795 353.919 39.8665 353.027 40.429C352.141 40.9915 351.107 41.2727 349.925 41.2727ZM349.925 39.4659C350.822 39.4659 351.561 39.2358 352.141 38.7756C352.72 38.3153 353.149 37.7102 353.428 36.9602C353.706 36.2102 353.845 35.3977 353.845 34.5227C353.845 33.6477 353.706 32.8324 353.428 32.0767C353.149 31.321 352.72 30.7102 352.141 30.2443C351.561 29.7784 350.822 29.5455 349.925 29.5455C349.027 29.5455 348.288 29.7784 347.709 30.2443C347.129 30.7102 346.7 31.321 346.422 32.0767C346.143 32.8324 346.004 33.6477 346.004 34.5227C346.004 35.3977 346.143 36.2102 346.422 36.9602C346.7 37.7102 347.129 38.3153 347.709 38.7756C348.288 39.2358 349.027 39.4659 349.925 39.4659ZM371.165 41.2727C369.904 41.2727 368.816 40.9943 367.901 40.4375C366.992 39.875 366.29 39.0909 365.796 38.0852C365.308 37.0739 365.063 35.8977 365.063 34.5568C365.063 33.2159 365.308 32.0341 365.796 31.0114C366.29 29.983 366.978 29.1818 367.859 28.608C368.745 28.0284 369.779 27.7386 370.961 27.7386C371.643 27.7386 372.316 27.8523 372.981 28.0795C373.646 28.3068 374.251 28.6761 374.796 29.1875C375.342 29.6932 375.776 30.3636 376.1 31.1989C376.424 32.0341 376.586 33.0625 376.586 34.2841V35.1364H366.495V33.3977H374.54C374.54 32.6591 374.393 32 374.097 31.4205C373.808 30.8409 373.393 30.3835 372.853 30.0483C372.319 29.7131 371.688 29.5455 370.961 29.5455C370.16 29.5455 369.467 29.7443 368.881 30.142C368.302 30.5341 367.856 31.0455 367.543 31.6761C367.231 32.3068 367.075 32.983 367.075 33.7045V34.8636C367.075 35.8523 367.245 36.6903 367.586 37.3778C367.933 38.0597 368.413 38.5795 369.026 38.9375C369.64 39.2898 370.353 39.4659 371.165 39.4659C371.694 39.4659 372.171 39.392 372.597 39.2443C373.029 39.0909 373.401 38.8636 373.714 38.5625C374.026 38.2557 374.268 37.875 374.438 37.4205L376.381 37.9659C376.177 38.625 375.833 39.2045 375.35 39.7045C374.867 40.1989 374.271 40.5852 373.56 40.8636C372.85 41.1364 372.052 41.2727 371.165 41.2727ZM381.657 33.125V41H379.646V27.9091H381.589V29.9545H381.759C382.066 29.2898 382.532 28.7557 383.157 28.3523C383.782 27.9432 384.589 27.7386 385.577 27.7386C386.464 27.7386 387.239 27.9205 387.904 28.2841C388.569 28.642 389.086 29.1875 389.455 29.9205C389.825 30.6477 390.009 31.5682 390.009 32.6818V41H387.998V32.8182C387.998 31.7898 387.731 30.9886 387.197 30.4148C386.663 29.8352 385.93 29.5455 384.998 29.5455C384.356 29.5455 383.782 29.6847 383.276 29.9631C382.776 30.2415 382.381 30.6477 382.092 31.1818C381.802 31.7159 381.657 32.3636 381.657 33.125ZM23.3295 70.2727C22.0682 70.2727 20.9801 69.9943 20.0653 69.4375C19.1562 68.875 18.4545 68.0909 17.9602 67.0852C17.4716 66.0739 17.2273 64.8977 17.2273 63.5568C17.2273 62.2159 17.4716 61.0341 17.9602 60.0114C18.4545 58.983 19.142 58.1818 20.0227 57.608C20.9091 57.0284 21.9432 56.7386 23.125 56.7386C23.8068 56.7386 24.4801 56.8523 25.1449 57.0795C25.8097 57.3068 26.4148 57.6761 26.9602 58.1875C27.5057 58.6932 27.9403 59.3636 28.2642 60.1989C28.5881 61.0341 28.75 62.0625 28.75 63.2841V64.1364H18.6591V62.3977H26.7045C26.7045 61.6591 26.5568 61 26.2614 60.4205C25.9716 59.8409 25.5568 59.3835 25.017 59.0483C24.483 58.7131 23.8523 58.5455 23.125 58.5455C22.3239 58.5455 21.6307 58.7443 21.0455 59.142C20.4659 59.5341 20.0199 60.0455 19.7074 60.6761C19.3949 61.3068 19.2386 61.983 19.2386 62.7045V63.8636C19.2386 64.8523 19.4091 65.6903 19.75 66.3778C20.0966 67.0597 20.5767 67.5795 21.1903 67.9375C21.804 68.2898 22.517 68.4659 23.3295 68.4659C23.858 68.4659 24.3352 68.392 24.7614 68.2443C25.1932 68.0909 25.5653 67.8636 25.8778 67.5625C26.1903 67.2557 26.4318 66.875 26.6023 66.4205L28.5455 66.9659C28.3409 67.625 27.9972 68.2045 27.5142 68.7045C27.0313 69.1989 26.4347 69.5852 25.7244 69.8636C25.0142 70.1364 24.2159 70.2727 23.3295 70.2727ZM31.8097 70V56.9091H33.7528V58.9545H33.9233C34.196 58.2557 34.6364 57.7131 35.2443 57.3267C35.8523 56.9347 36.5824 56.7386 37.4347 56.7386C38.2983 56.7386 39.017 56.9347 39.5909 57.3267C40.1705 57.7131 40.6222 58.2557 40.946 58.9545H41.0824C41.4176 58.2784 41.9205 57.7415 42.5909 57.3438C43.2614 56.9403 44.0653 56.7386 45.0028 56.7386C46.1733 56.7386 47.1307 57.1051 47.875 57.8381C48.6193 58.5653 48.9915 59.6989 48.9915 61.2386V70H46.9801V61.2386C46.9801 60.2727 46.7159 59.5824 46.1875 59.1676C45.6591 58.7528 45.0369 58.5455 44.321 58.5455C43.4006 58.5455 42.6875 58.8239 42.1818 59.3807C41.6761 59.9318 41.4233 60.6307 41.4233 61.4773V70H39.3778V61.0341C39.3778 60.2898 39.1364 59.6903 38.6534 59.2358C38.1705 58.7756 37.5483 58.5455 36.7869 58.5455C36.2642 58.5455 35.7756 58.6847 35.321 58.9631C34.8722 59.2415 34.5085 59.6278 34.2301 60.1222C33.9574 60.6108 33.821 61.1761 33.821 61.8182V70H31.8097ZM52.669 74.9091V56.9091H54.6122V58.9886H54.8509C54.9986 58.7614 55.2031 58.4716 55.4645 58.1193C55.7315 57.7614 56.1122 57.4432 56.6065 57.1648C57.1065 56.8807 57.7827 56.7386 58.6349 56.7386C59.7372 56.7386 60.7088 57.0142 61.5497 57.5653C62.3906 58.1165 63.0469 58.8977 63.5185 59.9091C63.9901 60.9205 64.2259 62.1136 64.2259 63.4886C64.2259 64.875 63.9901 66.0767 63.5185 67.0938C63.0469 68.1051 62.3935 68.8892 61.5582 69.446C60.723 69.9972 59.7599 70.2727 58.669 70.2727C57.8281 70.2727 57.1548 70.1335 56.6491 69.8551C56.1435 69.571 55.7543 69.25 55.4815 68.892C55.2088 68.5284 54.9986 68.2273 54.8509 67.9886H54.6804V74.9091H52.669ZM54.6463 63.4545C54.6463 64.4432 54.7912 65.3153 55.081 66.071C55.3707 66.821 55.794 67.4091 56.3509 67.8352C56.9077 68.2557 57.5895 68.4659 58.3963 68.4659C59.2372 68.4659 59.9389 68.2443 60.5014 67.8011C61.0696 67.3523 61.4957 66.75 61.7798 65.9943C62.0696 65.233 62.2145 64.3864 62.2145 63.4545C62.2145 62.5341 62.0724 61.7045 61.7884 60.9659C61.5099 60.2216 61.0866 59.6335 60.5185 59.2017C59.956 58.7642 59.2486 58.5455 58.3963 58.5455C57.5781 58.5455 56.8906 58.7528 56.3338 59.1676C55.777 59.5767 55.3565 60.1506 55.0724 60.8892C54.7884 61.6222 54.6463 62.4773 54.6463 63.4545ZM71.1463 70.3068C70.3168 70.3068 69.5639 70.1506 68.8878 69.8381C68.2116 69.5199 67.6747 69.0625 67.277 68.4659C66.8793 67.8636 66.6804 67.1364 66.6804 66.2841C66.6804 65.5341 66.8281 64.9261 67.1236 64.4602C67.419 63.9886 67.8139 63.6193 68.3082 63.3523C68.8026 63.0852 69.348 62.8864 69.9446 62.7557C70.5469 62.6193 71.152 62.5114 71.7599 62.4318C72.5554 62.3295 73.2003 62.2528 73.6946 62.2017C74.1946 62.1449 74.5582 62.0511 74.7855 61.9205C75.0185 61.7898 75.1349 61.5625 75.1349 61.2386V61.1705C75.1349 60.3295 74.9048 59.6761 74.4446 59.2102C73.9901 58.7443 73.2997 58.5114 72.3736 58.5114C71.4134 58.5114 70.6605 58.7216 70.1151 59.142C69.5696 59.5625 69.1861 60.0114 68.9645 60.4886L67.0554 59.8068C67.3963 59.0114 67.8509 58.392 68.419 57.9489C68.9929 57.5 69.6179 57.1875 70.294 57.0114C70.9759 56.8295 71.6463 56.7386 72.3054 56.7386C72.7259 56.7386 73.2088 56.7898 73.7543 56.892C74.3054 56.9886 74.8366 57.1903 75.348 57.4972C75.8651 57.804 76.294 58.267 76.6349 58.8864C76.9759 59.5057 77.1463 60.3352 77.1463 61.375V70H75.1349V68.2273H75.0327C74.8963 68.5114 74.669 68.8153 74.3509 69.1392C74.0327 69.4631 73.6094 69.7386 73.081 69.9659C72.5526 70.1932 71.9077 70.3068 71.1463 70.3068ZM71.4531 68.5C72.2486 68.5 72.919 68.3438 73.4645 68.0312C74.0156 67.7188 74.4304 67.3153 74.7088 66.821C74.9929 66.3267 75.1349 65.8068 75.1349 65.2614V63.4205C75.0497 63.5227 74.8622 63.6165 74.5724 63.7017C74.2884 63.7812 73.9588 63.8523 73.5838 63.9148C73.2145 63.9716 72.8537 64.0227 72.5014 64.0682C72.1548 64.108 71.8736 64.142 71.6577 64.1705C71.1349 64.2386 70.6463 64.3494 70.1918 64.5028C69.7429 64.6506 69.3793 64.875 69.1009 65.1761C68.8281 65.4716 68.6918 65.875 68.6918 66.3864C68.6918 67.0852 68.9503 67.6136 69.4673 67.9716C69.9901 68.3239 70.652 68.5 71.4531 68.5ZM89.7493 74.9091V67.9886H89.5788C89.4311 68.2273 89.2209 68.5284 88.9482 68.892C88.6754 69.25 88.2862 69.571 87.7805 69.8551C87.2749 70.1335 86.6016 70.2727 85.7607 70.2727C84.6697 70.2727 83.7067 69.9972 82.8714 69.446C82.0362 68.8892 81.3828 68.1051 80.9112 67.0938C80.4396 66.0767 80.2038 64.875 80.2038 63.4886C80.2038 62.1136 80.4396 60.9205 80.9112 59.9091C81.3828 58.8977 82.0391 58.1165 82.88 57.5653C83.7209 57.0142 84.6925 56.7386 85.7947 56.7386C86.647 56.7386 87.3203 56.8807 87.8146 57.1648C88.3146 57.4432 88.6953 57.7614 88.9567 58.1193C89.2237 58.4716 89.4311 58.7614 89.5788 58.9886H89.8175V56.9091H91.7607V74.9091H89.7493ZM86.0334 68.4659C86.8402 68.4659 87.522 68.2557 88.0788 67.8352C88.6357 67.4091 89.0589 66.821 89.3487 66.071C89.6385 65.3153 89.7834 64.4432 89.7834 63.4545C89.7834 62.4773 89.6413 61.6222 89.3572 60.8892C89.0732 60.1506 88.6527 59.5767 88.0959 59.1676C87.5391 58.7528 86.8516 58.5455 86.0334 58.5455C85.1811 58.5455 84.4709 58.7642 83.9027 59.2017C83.3402 59.6335 82.9169 60.2216 82.6328 60.9659C82.3544 61.7045 82.2152 62.5341 82.2152 63.4545C82.2152 64.3864 82.3572 65.233 82.6413 65.9943C82.9311 66.75 83.3572 67.3523 83.9197 67.8011C84.4879 68.2443 85.1925 68.4659 86.0334 68.4659ZM103.692 64.6477V56.9091H105.704V70H103.692V67.7841H103.556C103.249 68.4489 102.772 69.0142 102.124 69.4801C101.477 69.9403 100.658 70.1705 99.6697 70.1705C98.8516 70.1705 98.1243 69.9915 97.4879 69.6335C96.8516 69.2699 96.3516 68.7244 95.9879 67.9972C95.6243 67.2642 95.4425 66.3409 95.4425 65.2273V56.9091H97.4538V65.0909C97.4538 66.0455 97.7209 66.8068 98.255 67.375C98.7947 67.9432 99.4822 68.2273 100.317 68.2273C100.817 68.2273 101.326 68.0994 101.843 67.8438C102.366 67.5881 102.803 67.196 103.156 66.6676C103.513 66.1392 103.692 65.4659 103.692 64.6477ZM114.876 70.2727C113.615 70.2727 112.527 69.9943 111.612 69.4375C110.703 68.875 110.001 68.0909 109.507 67.0852C109.018 66.0739 108.774 64.8977 108.774 63.5568C108.774 62.2159 109.018 61.0341 109.507 60.0114C110.001 58.983 110.689 58.1818 111.57 57.608C112.456 57.0284 113.49 56.7386 114.672 56.7386C115.354 56.7386 116.027 56.8523 116.692 57.0795C117.357 57.3068 117.962 57.6761 118.507 58.1875C119.053 58.6932 119.487 59.3636 119.811 60.1989C120.135 61.0341 120.297 62.0625 120.297 63.2841V64.1364H110.206V62.3977H118.251C118.251 61.6591 118.104 61 117.808 60.4205C117.518 59.8409 117.104 59.3835 116.564 59.0483C116.03 58.7131 115.399 58.5455 114.672 58.5455C113.871 58.5455 113.178 58.7443 112.592 59.142C112.013 59.5341 111.567 60.0455 111.254 60.6761C110.942 61.3068 110.786 61.983 110.786 62.7045V63.8636C110.786 64.8523 110.956 65.6903 111.297 66.3778C111.643 67.0597 112.124 67.5795 112.737 67.9375C113.351 68.2898 114.064 68.4659 114.876 68.4659C115.405 68.4659 115.882 68.392 116.308 68.2443C116.74 68.0909 117.112 67.8636 117.425 67.5625C117.737 67.2557 117.979 66.875 118.149 66.4205L120.092 66.9659C119.888 67.625 119.544 68.2045 119.061 68.7045C118.578 69.1989 117.982 69.5852 117.271 69.8636C116.561 70.1364 115.763 70.2727 114.876 70.2727ZM129.05 56.9091V58.6136H122.266V56.9091H129.05ZM124.243 53.7727H126.254V66.25C126.254 66.8182 126.337 67.2443 126.501 67.5284C126.672 67.8068 126.888 67.9943 127.149 68.0909C127.416 68.1818 127.697 68.2273 127.993 68.2273C128.214 68.2273 128.396 68.2159 128.538 68.1932C128.68 68.1648 128.794 68.142 128.879 68.125L129.288 69.9318C129.152 69.983 128.962 70.0341 128.717 70.0852C128.473 70.142 128.163 70.1705 127.788 70.1705C127.22 70.1705 126.663 70.0483 126.118 69.804C125.578 69.5597 125.129 69.1875 124.771 68.6875C124.419 68.1875 124.243 67.5568 124.243 66.7955V53.7727ZM135.928 70.3068C135.098 70.3068 134.345 70.1506 133.669 69.8381C132.993 69.5199 132.456 69.0625 132.058 68.4659C131.661 67.8636 131.462 67.1364 131.462 66.2841C131.462 65.5341 131.609 64.9261 131.905 64.4602C132.2 63.9886 132.595 63.6193 133.089 63.3523C133.584 63.0852 134.129 62.8864 134.726 62.7557C135.328 62.6193 135.933 62.5114 136.541 62.4318C137.337 62.3295 137.982 62.2528 138.476 62.2017C138.976 62.1449 139.339 62.0511 139.567 61.9205C139.8 61.7898 139.916 61.5625 139.916 61.2386V61.1705C139.916 60.3295 139.686 59.6761 139.226 59.2102C138.771 58.7443 138.081 58.5114 137.155 58.5114C136.195 58.5114 135.442 58.7216 134.896 59.142C134.351 59.5625 133.967 60.0114 133.746 60.4886L131.837 59.8068C132.178 59.0114 132.632 58.392 133.2 57.9489C133.774 57.5 134.399 57.1875 135.075 57.0114C135.757 56.8295 136.428 56.7386 137.087 56.7386C137.507 56.7386 137.99 56.7898 138.536 56.892C139.087 56.9886 139.618 57.1903 140.129 57.4972C140.646 57.804 141.075 58.267 141.416 58.8864C141.757 59.5057 141.928 60.3352 141.928 61.375V70H139.916V68.2273H139.814C139.678 68.5114 139.45 68.8153 139.132 69.1392C138.814 69.4631 138.391 69.7386 137.862 69.9659C137.334 70.1932 136.689 70.3068 135.928 70.3068ZM136.234 68.5C137.03 68.5 137.7 68.3438 138.246 68.0312C138.797 67.7188 139.212 67.3153 139.49 66.821C139.774 66.3267 139.916 65.8068 139.916 65.2614V63.4205C139.831 63.5227 139.643 63.6165 139.354 63.7017C139.07 63.7812 138.74 63.8523 138.365 63.9148C137.996 63.9716 137.635 64.0227 137.283 64.0682C136.936 64.108 136.655 64.142 136.439 64.1705C135.916 64.2386 135.428 64.3494 134.973 64.5028C134.524 64.6506 134.161 64.875 133.882 65.1761C133.609 65.4716 133.473 65.875 133.473 66.3864C133.473 67.0852 133.732 67.6136 134.249 67.9716C134.771 68.3239 135.433 68.5 136.234 68.5ZM150.542 70.2727C149.451 70.2727 148.488 69.9972 147.653 69.446C146.817 68.8892 146.164 68.1051 145.692 67.0938C145.221 66.0767 144.985 64.875 144.985 63.4886C144.985 62.1136 145.221 60.9205 145.692 59.9091C146.164 58.8977 146.82 58.1165 147.661 57.5653C148.502 57.0142 149.474 56.7386 150.576 56.7386C151.428 56.7386 152.102 56.8807 152.596 57.1648C153.096 57.4432 153.477 57.7614 153.738 58.1193C154.005 58.4716 154.212 58.7614 154.36 58.9886H154.531V52.5455H156.542V70H154.599V67.9886H154.36C154.212 68.2273 154.002 68.5284 153.729 68.892C153.457 69.25 153.067 69.571 152.562 69.8551C152.056 70.1335 151.383 70.2727 150.542 70.2727ZM150.815 68.4659C151.621 68.4659 152.303 68.2557 152.86 67.8352C153.417 67.4091 153.84 66.821 154.13 66.071C154.42 65.3153 154.565 64.4432 154.565 63.4545C154.565 62.4773 154.423 61.6222 154.138 60.8892C153.854 60.1506 153.434 59.5767 152.877 59.1676C152.32 58.7528 151.633 58.5455 150.815 58.5455C149.962 58.5455 149.252 58.7642 148.684 59.2017C148.121 59.6335 147.698 60.2216 147.414 60.9659C147.136 61.7045 146.996 62.5341 146.996 63.4545C146.996 64.3864 147.138 65.233 147.423 65.9943C147.712 66.75 148.138 67.3523 148.701 67.8011C149.269 68.2443 149.974 68.4659 150.815 68.4659ZM165.823 70.2727C164.641 70.2727 163.604 69.9915 162.712 69.429C161.826 68.8665 161.133 68.0795 160.633 67.0682C160.138 66.0568 159.891 64.875 159.891 63.5227C159.891 62.1591 160.138 60.9687 160.633 59.9517C161.133 58.9347 161.826 58.1449 162.712 57.5824C163.604 57.0199 164.641 56.7386 165.823 56.7386C167.005 56.7386 168.039 57.0199 168.925 57.5824C169.817 58.1449 170.511 58.9347 171.005 59.9517C171.505 60.9687 171.755 62.1591 171.755 63.5227C171.755 64.875 171.505 66.0568 171.005 67.0682C170.511 68.0795 169.817 68.8665 168.925 69.429C168.039 69.9915 167.005 70.2727 165.823 70.2727ZM165.823 68.4659C166.721 68.4659 167.46 68.2358 168.039 67.7756C168.619 67.3153 169.048 66.7102 169.326 65.9602C169.604 65.2102 169.744 64.3977 169.744 63.5227C169.744 62.6477 169.604 61.8324 169.326 61.0767C169.048 60.321 168.619 59.7102 168.039 59.2443C167.46 58.7784 166.721 58.5455 165.823 58.5455C164.925 58.5455 164.187 58.7784 163.607 59.2443C163.028 59.7102 162.599 60.321 162.32 61.0767C162.042 61.8324 161.903 62.6477 161.903 63.5227C161.903 64.3977 162.042 65.2102 162.32 65.9602C162.599 66.7102 163.028 67.3153 163.607 67.7756C164.187 68.2358 164.925 68.4659 165.823 68.4659Z" fill="#FFAA3E"/>
<path d="M365.004 83.6835H51.4388C32.3698 83.6835 16.9114 99.0463 16.9114 117.997V317.927C16.9114 336.878 32.3698 352.241 51.4388 352.241H365.004C384.073 352.241 399.532 336.878 399.532 317.927V117.997C399.532 99.0463 384.073 83.6835 365.004 83.6835Z" stroke="#FFC36B" stroke-width="4"/>
<path d="M109.219 202.031H41.5739C39.6281 202.031 38.0507 203.598 38.0507 205.532V227.591C38.0507 229.525 39.6281 231.092 41.5739 231.092H109.219C111.165 231.092 112.743 229.525 112.743 227.591V205.532C112.743 203.598 111.165 202.031 109.219 202.031Z" fill="#C3E88C"/>
<path d="M45.0114 222V210.364H52.8523V212.392H47.4716V215.165H52.4489V217.193H47.4716V219.972H52.875V222H45.0114ZM57.1832 216.955V222H54.7628V213.273H57.0696V214.812H57.1719C57.3651 214.305 57.6889 213.903 58.1435 213.608C58.598 213.309 59.1491 213.159 59.7969 213.159C60.4029 213.159 60.9313 213.292 61.3821 213.557C61.8329 213.822 62.1832 214.201 62.4332 214.693C62.6832 215.182 62.8082 215.765 62.8082 216.443V222H60.3878V216.875C60.3916 216.341 60.2552 215.924 59.9787 215.625C59.7022 215.322 59.3215 215.17 58.8366 215.17C58.5109 215.17 58.223 215.241 57.973 215.381C57.7268 215.521 57.5336 215.725 57.3935 215.994C57.2571 216.259 57.187 216.58 57.1832 216.955ZM69.358 213.273V215.091H64.1023V213.273H69.358ZM65.2955 211.182H67.7159V219.318C67.7159 219.542 67.75 219.716 67.8182 219.841C67.8864 219.962 67.9811 220.047 68.1023 220.097C68.2273 220.146 68.3712 220.17 68.5341 220.17C68.6477 220.17 68.7614 220.161 68.875 220.142C68.9886 220.119 69.0758 220.102 69.1364 220.091L69.517 221.892C69.3958 221.93 69.2254 221.973 69.0057 222.023C68.786 222.076 68.5189 222.108 68.2045 222.119C67.6212 222.142 67.1098 222.064 66.6705 221.886C66.2348 221.708 65.8958 221.432 65.6534 221.057C65.411 220.682 65.2917 220.208 65.2955 219.636V211.182ZM70.9347 222V213.273H73.2812V214.795H73.3722C73.5313 214.254 73.7983 213.845 74.1733 213.568C74.5483 213.288 74.9801 213.148 75.4688 213.148C75.59 213.148 75.7206 213.155 75.8608 213.17C76.0009 213.186 76.1241 213.206 76.2301 213.233V215.381C76.1165 215.347 75.9593 215.316 75.7585 215.29C75.5578 215.263 75.3741 215.25 75.2074 215.25C74.8513 215.25 74.5331 215.328 74.2528 215.483C73.9763 215.634 73.7566 215.847 73.5938 216.119C73.4347 216.392 73.3551 216.706 73.3551 217.062V222H70.9347ZM79.7202 222.165C79.1634 222.165 78.6671 222.068 78.2315 221.875C77.7959 221.678 77.4512 221.388 77.1974 221.006C76.9474 220.619 76.8224 220.138 76.8224 219.562C76.8224 219.078 76.9115 218.67 77.0895 218.341C77.2675 218.011 77.5099 217.746 77.8168 217.545C78.1236 217.345 78.4721 217.193 78.8622 217.091C79.2562 216.989 79.669 216.917 80.1009 216.875C80.6084 216.822 81.0175 216.773 81.3281 216.727C81.6387 216.678 81.8641 216.606 82.0043 216.511C82.1444 216.417 82.2145 216.277 82.2145 216.091V216.057C82.2145 215.697 82.1009 215.419 81.8736 215.222C81.6501 215.025 81.3319 214.926 80.919 214.926C80.4834 214.926 80.1368 215.023 79.8793 215.216C79.6217 215.405 79.4512 215.644 79.3679 215.932L77.1293 215.75C77.2429 215.22 77.4664 214.761 77.7997 214.375C78.133 213.985 78.563 213.686 79.0895 213.477C79.6198 213.265 80.2334 213.159 80.9304 213.159C81.4152 213.159 81.8793 213.216 82.3224 213.33C82.7694 213.443 83.1652 213.619 83.5099 213.858C83.8584 214.097 84.133 214.403 84.3338 214.778C84.5346 215.15 84.6349 215.595 84.6349 216.114V222H82.3395V220.79H82.2713C82.1312 221.062 81.9437 221.303 81.7088 221.511C81.474 221.716 81.1918 221.877 80.8622 221.994C80.5327 222.108 80.152 222.165 79.7202 222.165ZM80.4134 220.494C80.7694 220.494 81.0838 220.424 81.3565 220.284C81.6293 220.14 81.8433 219.947 81.9986 219.705C82.1539 219.462 82.2315 219.187 82.2315 218.881V217.955C82.1558 218.004 82.0516 218.049 81.919 218.091C81.7902 218.129 81.6444 218.165 81.4815 218.199C81.3187 218.229 81.1558 218.258 80.9929 218.284C80.83 218.307 80.6823 218.328 80.5497 218.347C80.2656 218.388 80.0175 218.455 79.8054 218.545C79.5933 218.636 79.4285 218.759 79.3111 218.915C79.1937 219.066 79.1349 219.256 79.1349 219.483C79.1349 219.812 79.2543 220.064 79.4929 220.239C79.7353 220.409 80.0421 220.494 80.4134 220.494ZM89.7287 222.142C89.0658 222.142 88.4654 221.972 87.9276 221.631C87.3935 221.286 86.9692 220.78 86.6548 220.114C86.3442 219.443 86.1889 218.621 86.1889 217.648C86.1889 216.648 86.3499 215.816 86.6719 215.153C86.9938 214.487 87.4219 213.989 87.956 213.659C88.4938 213.326 89.0829 213.159 89.723 213.159C90.2116 213.159 90.6188 213.242 90.9446 213.409C91.2741 213.572 91.5393 213.777 91.7401 214.023C91.9446 214.265 92.0999 214.504 92.206 214.739H92.2798V210.364H94.6946V222H92.3082V220.602H92.206C92.0923 220.845 91.9313 221.085 91.723 221.324C91.5185 221.559 91.2514 221.754 90.9219 221.909C90.5961 222.064 90.1984 222.142 89.7287 222.142ZM90.4957 220.216C90.8859 220.216 91.2154 220.11 91.4844 219.898C91.7571 219.682 91.9654 219.381 92.1094 218.994C92.2571 218.608 92.331 218.155 92.331 217.636C92.331 217.117 92.259 216.667 92.1151 216.284C91.9711 215.902 91.7628 215.606 91.4901 215.398C91.2173 215.189 90.8859 215.085 90.4957 215.085C90.098 215.085 89.7628 215.193 89.4901 215.409C89.2173 215.625 89.0109 215.924 88.8707 216.307C88.7306 216.689 88.6605 217.133 88.6605 217.636C88.6605 218.144 88.7306 218.593 88.8707 218.983C89.0147 219.369 89.2211 219.672 89.4901 219.892C89.7628 220.108 90.098 220.216 90.4957 220.216ZM99.1733 222.165C98.6165 222.165 98.1203 222.068 97.6847 221.875C97.2491 221.678 96.9044 221.388 96.6506 221.006C96.4006 220.619 96.2756 220.138 96.2756 219.562C96.2756 219.078 96.3646 218.67 96.5426 218.341C96.7206 218.011 96.9631 217.746 97.2699 217.545C97.5767 217.345 97.9252 217.193 98.3153 217.091C98.7093 216.989 99.1222 216.917 99.554 216.875C100.062 216.822 100.471 216.773 100.781 216.727C101.092 216.678 101.317 216.606 101.457 216.511C101.598 216.417 101.668 216.277 101.668 216.091V216.057C101.668 215.697 101.554 215.419 101.327 215.222C101.103 215.025 100.785 214.926 100.372 214.926C99.9366 214.926 99.59 215.023 99.3324 215.216C99.0748 215.405 98.9044 215.644 98.821 215.932L96.5824 215.75C96.696 215.22 96.9195 214.761 97.2528 214.375C97.5862 213.985 98.0161 213.686 98.5426 213.477C99.0729 213.265 99.6866 213.159 100.384 213.159C100.868 213.159 101.332 213.216 101.776 213.33C102.223 213.443 102.618 213.619 102.963 213.858C103.312 214.097 103.586 214.403 103.787 214.778C103.988 215.15 104.088 215.595 104.088 216.114V222H101.793V220.79H101.724C101.584 221.062 101.397 221.303 101.162 221.511C100.927 221.716 100.645 221.877 100.315 221.994C99.9858 222.108 99.6051 222.165 99.1733 222.165ZM99.8665 220.494C100.223 220.494 100.537 220.424 100.81 220.284C101.082 220.14 101.296 219.947 101.452 219.705C101.607 219.462 101.685 219.187 101.685 218.881V217.955C101.609 218.004 101.505 218.049 101.372 218.091C101.243 218.129 101.098 218.165 100.935 218.199C100.772 218.229 100.609 218.258 100.446 218.284C100.283 218.307 100.135 218.328 100.003 218.347C99.7188 218.388 99.4706 218.455 99.2585 218.545C99.0464 218.636 98.8816 218.759 98.7642 218.915C98.6468 219.066 98.5881 219.256 98.5881 219.483C98.5881 219.812 98.7074 220.064 98.946 220.239C99.1884 220.409 99.4953 220.494 99.8665 220.494Z" fill="#15505C"/>
<path d="M238.873 249.3H171.228C169.282 249.3 167.705 250.867 167.705 252.801V276.611C167.705 278.544 169.282 280.112 171.228 280.112H238.873C240.819 280.112 242.397 278.544 242.397 276.611V252.801C242.397 250.867 240.819 249.3 238.873 249.3Z" fill="#4FC08D"/>
<path d="M238.873 153.361H171.228C169.282 153.361 167.705 154.929 167.705 156.863V180.672C167.705 182.606 169.282 184.174 171.228 184.174H238.873C240.819 184.174 242.397 182.606 242.397 180.672V156.863C242.397 154.929 240.819 153.361 238.873 153.361Z" fill="#4FC08D"/>
<path d="M187.011 174V162.364H191.602C192.481 162.364 193.231 162.521 193.852 162.835C194.477 163.146 194.953 163.587 195.278 164.159C195.608 164.727 195.773 165.396 195.773 166.165C195.773 166.937 195.606 167.602 195.273 168.159C194.939 168.712 194.456 169.136 193.824 169.432C193.195 169.727 192.434 169.875 191.54 169.875H188.466V167.898H191.142C191.612 167.898 192.002 167.833 192.312 167.705C192.623 167.576 192.854 167.383 193.006 167.125C193.161 166.867 193.239 166.547 193.239 166.165C193.239 165.778 193.161 165.453 193.006 165.188C192.854 164.922 192.621 164.722 192.307 164.585C191.996 164.445 191.604 164.375 191.131 164.375H189.472V174H187.011ZM193.295 168.705L196.188 174H193.472L190.642 168.705H193.295ZM203.062 170.284V165.273H205.483V174H203.159V172.415H203.068C202.871 172.926 202.544 173.337 202.085 173.648C201.631 173.958 201.076 174.114 200.42 174.114C199.837 174.114 199.324 173.981 198.881 173.716C198.438 173.451 198.091 173.074 197.841 172.585C197.595 172.097 197.47 171.511 197.466 170.83V165.273H199.886V170.398C199.89 170.913 200.028 171.32 200.301 171.619C200.574 171.919 200.939 172.068 201.398 172.068C201.689 172.068 201.962 172.002 202.216 171.869C202.47 171.733 202.674 171.532 202.83 171.267C202.989 171.002 203.066 170.674 203.062 170.284ZM212.061 165.273V167.091H206.805V165.273H212.061ZM207.999 163.182H210.419V171.318C210.419 171.542 210.453 171.716 210.521 171.841C210.589 171.962 210.684 172.047 210.805 172.097C210.93 172.146 211.074 172.17 211.237 172.17C211.351 172.17 211.464 172.161 211.578 172.142C211.692 172.119 211.779 172.102 211.839 172.091L212.22 173.892C212.099 173.93 211.929 173.973 211.709 174.023C211.489 174.076 211.222 174.108 210.908 174.119C210.324 174.142 209.813 174.064 209.374 173.886C208.938 173.708 208.599 173.432 208.357 173.057C208.114 172.682 207.995 172.208 207.999 171.636V163.182ZM216.126 174.165C215.57 174.165 215.073 174.068 214.638 173.875C214.202 173.678 213.857 173.388 213.604 173.006C213.354 172.619 213.229 172.138 213.229 171.562C213.229 171.078 213.318 170.67 213.496 170.341C213.674 170.011 213.916 169.746 214.223 169.545C214.53 169.345 214.878 169.193 215.268 169.091C215.662 168.989 216.075 168.917 216.507 168.875C217.015 168.822 217.424 168.773 217.734 168.727C218.045 168.678 218.27 168.606 218.411 168.511C218.551 168.417 218.621 168.277 218.621 168.091V168.057C218.621 167.697 218.507 167.419 218.28 167.222C218.056 167.025 217.738 166.926 217.325 166.926C216.89 166.926 216.543 167.023 216.286 167.216C216.028 167.405 215.857 167.644 215.774 167.932L213.536 167.75C213.649 167.22 213.873 166.761 214.206 166.375C214.539 165.985 214.969 165.686 215.496 165.477C216.026 165.265 216.64 165.159 217.337 165.159C217.821 165.159 218.286 165.216 218.729 165.33C219.176 165.443 219.571 165.619 219.916 165.858C220.265 166.097 220.539 166.403 220.74 166.778C220.941 167.15 221.041 167.595 221.041 168.114V174H218.746V172.79H218.678C218.537 173.062 218.35 173.303 218.115 173.511C217.88 173.716 217.598 173.877 217.268 173.994C216.939 174.108 216.558 174.165 216.126 174.165ZM216.82 172.494C217.176 172.494 217.49 172.424 217.763 172.284C218.036 172.14 218.25 171.947 218.405 171.705C218.56 171.462 218.638 171.187 218.638 170.881V169.955C218.562 170.004 218.458 170.049 218.325 170.091C218.196 170.129 218.051 170.165 217.888 170.199C217.725 170.229 217.562 170.258 217.399 170.284C217.236 170.307 217.089 170.328 216.956 170.347C216.672 170.388 216.424 170.455 216.212 170.545C216 170.636 215.835 170.759 215.717 170.915C215.6 171.066 215.541 171.256 215.541 171.483C215.541 171.812 215.661 172.064 215.899 172.239C216.142 172.409 216.448 172.494 216.82 172.494Z" fill="#15505C"/>
<path d="M237.816 201.681H170.171C168.225 201.681 166.648 203.248 166.648 205.182V228.992C166.648 230.925 168.225 232.493 170.171 232.493H237.816C239.762 232.493 241.34 230.925 241.34 228.992V205.182C241.34 203.248 239.762 201.681 237.816 201.681Z" fill="#4FC08D"/>
<path d="M166.512 168.662L154.604 171.32L162.874 180.24L166.512 168.662ZM114.357 217.85L160.232 175.841L158.8 174.296L112.924 216.305L114.357 217.85Z" fill="#E06666"/>
<path d="M165.238 217.087L154.669 211.022V223.152L165.238 217.087ZM113.8 218.137H155.726V216.036H113.8V218.137Z" fill="#E06666"/>
<path d="M166.512 264.743L162.783 253.193L154.583 262.177L166.512 264.743ZM112.93 217.856L158.756 259.169L160.176 257.613L114.351 216.3L112.93 217.856Z" fill="#E06666"/>
<path d="M289.626 316.911L287.154 305.033L278.04 313.1L289.626 316.911ZM242.763 266.192L282.51 310.549L284.089 309.152L244.342 264.794L242.763 266.192Z" fill="#FFC36B"/>
<path d="M288.871 264.743L286.047 252.942L277.176 261.273L288.871 264.743ZM242.784 217.799L281.569 258.592L283.106 257.15L244.321 216.356L242.784 217.799Z" fill="#FFC36B"/>
<path d="M288.116 218.204L277.704 211.874L277.394 223.999L288.116 218.204ZM243.526 218.128L278.579 219.013L278.633 216.913L243.579 216.028L243.526 218.128Z" fill="#FFC36B"/>
<path d="M288.493 168.662L278.082 162.333L277.772 174.458L288.493 168.662ZM243.904 168.586L278.957 169.472L279.011 167.372L243.957 166.486L243.904 168.586Z" fill="#FFC36B"/>
<path d="M288.871 119.121L277.25 122.827L286.29 130.976L288.871 119.121ZM245.469 168.242L283.263 126.829L281.697 125.418L243.903 166.831L245.469 168.242Z" fill="#FFC36B"/>
<path d="M288.116 215.201L285.544 203.344L276.497 211.485L288.116 215.201ZM243.902 168.241L280.947 208.898L282.514 207.488L245.469 166.831L243.902 168.241Z" fill="#FFC36B"/>
<path d="M360.776 100.84H293.131C291.185 100.84 289.608 102.408 289.608 104.342V128.151C289.608 130.085 291.185 131.653 293.131 131.653H360.776C362.722 131.653 364.3 130.085 364.3 128.151V104.342C364.3 102.408 362.722 100.84 360.776 100.84Z" fill="#4FC08D"/>
<path d="M299.011 111.364H302.045L305.25 119.182H305.386L308.591 111.364H311.625V123H309.239V115.426H309.142L306.131 122.943H304.506L301.494 115.398H301.398V123H299.011V111.364ZM317.55 123.17C316.667 123.17 315.904 122.983 315.26 122.608C314.62 122.229 314.125 121.703 313.777 121.028C313.429 120.35 313.254 119.564 313.254 118.67C313.254 117.769 313.429 116.981 313.777 116.307C314.125 115.629 314.62 115.102 315.26 114.727C315.904 114.348 316.667 114.159 317.55 114.159C318.432 114.159 319.194 114.348 319.834 114.727C320.478 115.102 320.974 115.629 321.322 116.307C321.671 116.981 321.845 117.769 321.845 118.67C321.845 119.564 321.671 120.35 321.322 121.028C320.974 121.703 320.478 122.229 319.834 122.608C319.194 122.983 318.432 123.17 317.55 123.17ZM317.561 121.295C317.963 121.295 318.298 121.182 318.567 120.955C318.836 120.723 319.038 120.409 319.175 120.011C319.315 119.614 319.385 119.161 319.385 118.653C319.385 118.146 319.315 117.693 319.175 117.295C319.038 116.898 318.836 116.583 318.567 116.352C318.298 116.121 317.963 116.006 317.561 116.006C317.156 116.006 316.815 116.121 316.538 116.352C316.266 116.583 316.059 116.898 315.919 117.295C315.783 117.693 315.714 118.146 315.714 118.653C315.714 119.161 315.783 119.614 315.919 120.011C316.059 120.409 316.266 120.723 316.538 120.955C316.815 121.182 317.156 121.295 317.561 121.295ZM316.68 113.148L317.885 110.562H320.124L318.391 113.148H316.68ZM326.635 123.142C325.972 123.142 325.372 122.972 324.834 122.631C324.3 122.286 323.875 121.78 323.561 121.114C323.25 120.443 323.095 119.621 323.095 118.648C323.095 117.648 323.256 116.816 323.578 116.153C323.9 115.487 324.328 114.989 324.862 114.659C325.4 114.326 325.989 114.159 326.629 114.159C327.118 114.159 327.525 114.242 327.851 114.409C328.18 114.572 328.446 114.777 328.646 115.023C328.851 115.265 329.006 115.504 329.112 115.739H329.186V111.364H331.601V123H329.214V121.602H329.112C328.999 121.845 328.838 122.085 328.629 122.324C328.425 122.559 328.158 122.754 327.828 122.909C327.502 123.064 327.105 123.142 326.635 123.142ZM327.402 121.216C327.792 121.216 328.122 121.11 328.391 120.898C328.663 120.682 328.872 120.381 329.016 119.994C329.163 119.608 329.237 119.155 329.237 118.636C329.237 118.117 329.165 117.667 329.021 117.284C328.877 116.902 328.669 116.606 328.396 116.398C328.124 116.189 327.792 116.085 327.402 116.085C327.004 116.085 326.669 116.193 326.396 116.409C326.124 116.625 325.917 116.924 325.777 117.307C325.637 117.689 325.567 118.133 325.567 118.636C325.567 119.144 325.637 119.593 325.777 119.983C325.921 120.369 326.127 120.672 326.396 120.892C326.669 121.108 327.004 121.216 327.402 121.216ZM339.188 119.284V114.273H341.608V123H339.284V121.415H339.193C338.996 121.926 338.669 122.337 338.21 122.648C337.756 122.958 337.201 123.114 336.545 123.114C335.962 123.114 335.449 122.981 335.006 122.716C334.563 122.451 334.216 122.074 333.966 121.585C333.72 121.097 333.595 120.511 333.591 119.83V114.273H336.011V119.398C336.015 119.913 336.153 120.32 336.426 120.619C336.699 120.919 337.064 121.068 337.523 121.068C337.814 121.068 338.087 121.002 338.341 120.869C338.595 120.733 338.799 120.532 338.955 120.267C339.114 120.002 339.191 119.674 339.188 119.284ZM345.964 111.364V123H343.544V111.364H345.964ZM351.847 123.17C350.964 123.17 350.201 122.983 349.557 122.608C348.917 122.229 348.422 121.703 348.074 121.028C347.725 120.35 347.551 119.564 347.551 118.67C347.551 117.769 347.725 116.981 348.074 116.307C348.422 115.629 348.917 115.102 349.557 114.727C350.201 114.348 350.964 114.159 351.847 114.159C352.729 114.159 353.491 114.348 354.131 114.727C354.775 115.102 355.271 115.629 355.619 116.307C355.968 116.981 356.142 117.769 356.142 118.67C356.142 119.564 355.968 120.35 355.619 121.028C355.271 121.703 354.775 122.229 354.131 122.608C353.491 122.983 352.729 123.17 351.847 123.17ZM351.858 121.295C352.259 121.295 352.595 121.182 352.864 120.955C353.133 120.723 353.335 120.409 353.472 120.011C353.612 119.614 353.682 119.161 353.682 118.653C353.682 118.146 353.612 117.693 353.472 117.295C353.335 116.898 353.133 116.583 352.864 116.352C352.595 116.121 352.259 116.006 351.858 116.006C351.453 116.006 351.112 116.121 350.835 116.352C350.563 116.583 350.356 116.898 350.216 117.295C350.08 117.693 350.011 118.146 350.011 118.653C350.011 119.161 350.08 119.614 350.216 120.011C350.356 120.409 350.563 120.723 350.835 120.955C351.112 121.182 351.453 121.295 351.858 121.295Z" fill="#15505C"/>
<path d="M360.776 152.311H293.131C291.185 152.311 289.608 153.879 289.608 155.812V179.272C289.608 181.205 291.185 182.773 293.131 182.773H360.776C362.722 182.773 364.3 181.205 364.3 179.272V155.812C364.3 153.879 362.722 152.311 360.776 152.311Z" fill="#4FC08D"/>
<path d="M299.011 162.364H302.045L305.25 170.182H305.386L308.591 162.364H311.625V174H309.239V166.426H309.142L306.131 173.943H304.506L301.494 166.398H301.398V174H299.011V162.364ZM317.55 174.17C316.667 174.17 315.904 173.983 315.26 173.608C314.62 173.229 314.125 172.703 313.777 172.028C313.429 171.35 313.254 170.564 313.254 169.67C313.254 168.769 313.429 167.981 313.777 167.307C314.125 166.629 314.62 166.102 315.26 165.727C315.904 165.348 316.667 165.159 317.55 165.159C318.432 165.159 319.194 165.348 319.834 165.727C320.478 166.102 320.974 166.629 321.322 167.307C321.671 167.981 321.845 168.769 321.845 169.67C321.845 170.564 321.671 171.35 321.322 172.028C320.974 172.703 320.478 173.229 319.834 173.608C319.194 173.983 318.432 174.17 317.55 174.17ZM317.561 172.295C317.963 172.295 318.298 172.182 318.567 171.955C318.836 171.723 319.038 171.409 319.175 171.011C319.315 170.614 319.385 170.161 319.385 169.653C319.385 169.146 319.315 168.693 319.175 168.295C319.038 167.898 318.836 167.583 318.567 167.352C318.298 167.121 317.963 167.006 317.561 167.006C317.156 167.006 316.815 167.121 316.538 167.352C316.266 167.583 316.059 167.898 315.919 168.295C315.783 168.693 315.714 169.146 315.714 169.653C315.714 170.161 315.783 170.614 315.919 171.011C316.059 171.409 316.266 171.723 316.538 171.955C316.815 172.182 317.156 172.295 317.561 172.295ZM316.68 164.148L317.885 161.562H320.124L318.391 164.148H316.68ZM326.635 174.142C325.972 174.142 325.372 173.972 324.834 173.631C324.3 173.286 323.875 172.78 323.561 172.114C323.25 171.443 323.095 170.621 323.095 169.648C323.095 168.648 323.256 167.816 323.578 167.153C323.9 166.487 324.328 165.989 324.862 165.659C325.4 165.326 325.989 165.159 326.629 165.159C327.118 165.159 327.525 165.242 327.851 165.409C328.18 165.572 328.446 165.777 328.646 166.023C328.851 166.265 329.006 166.504 329.112 166.739H329.186V162.364H331.601V174H329.214V172.602H329.112C328.999 172.845 328.838 173.085 328.629 173.324C328.425 173.559 328.158 173.754 327.828 173.909C327.502 174.064 327.105 174.142 326.635 174.142ZM327.402 172.216C327.792 172.216 328.122 172.11 328.391 171.898C328.663 171.682 328.872 171.381 329.016 170.994C329.163 170.608 329.237 170.155 329.237 169.636C329.237 169.117 329.165 168.667 329.021 168.284C328.877 167.902 328.669 167.606 328.396 167.398C328.124 167.189 327.792 167.085 327.402 167.085C327.004 167.085 326.669 167.193 326.396 167.409C326.124 167.625 325.917 167.924 325.777 168.307C325.637 168.689 325.567 169.133 325.567 169.636C325.567 170.144 325.637 170.593 325.777 170.983C325.921 171.369 326.127 171.672 326.396 171.892C326.669 172.108 327.004 172.216 327.402 172.216ZM339.188 170.284V165.273H341.608V174H339.284V172.415H339.193C338.996 172.926 338.669 173.337 338.21 173.648C337.756 173.958 337.201 174.114 336.545 174.114C335.962 174.114 335.449 173.981 335.006 173.716C334.563 173.451 334.216 173.074 333.966 172.585C333.72 172.097 333.595 171.511 333.591 170.83V165.273H336.011V170.398C336.015 170.913 336.153 171.32 336.426 171.619C336.699 171.919 337.064 172.068 337.523 172.068C337.814 172.068 338.087 172.002 338.341 171.869C338.595 171.733 338.799 171.532 338.955 171.267C339.114 171.002 339.191 170.674 339.188 170.284ZM345.964 162.364V174H343.544V162.364H345.964ZM351.847 174.17C350.964 174.17 350.201 173.983 349.557 173.608C348.917 173.229 348.422 172.703 348.074 172.028C347.725 171.35 347.551 170.564 347.551 169.67C347.551 168.769 347.725 167.981 348.074 167.307C348.422 166.629 348.917 166.102 349.557 165.727C350.201 165.348 350.964 165.159 351.847 165.159C352.729 165.159 353.491 165.348 354.131 165.727C354.775 166.102 355.271 166.629 355.619 167.307C355.968 167.981 356.142 168.769 356.142 169.67C356.142 170.564 355.968 171.35 355.619 172.028C355.271 172.703 354.775 173.229 354.131 173.608C353.491 173.983 352.729 174.17 351.847 174.17ZM351.858 172.295C352.259 172.295 352.595 172.182 352.864 171.955C353.133 171.723 353.335 171.409 353.472 171.011C353.612 170.614 353.682 170.161 353.682 169.653C353.682 169.146 353.612 168.693 353.472 168.295C353.335 167.898 353.133 167.583 352.864 167.352C352.595 167.121 352.259 167.006 351.858 167.006C351.453 167.006 351.112 167.121 350.835 167.352C350.563 167.583 350.356 167.898 350.216 168.295C350.08 168.693 350.011 169.146 350.011 169.653C350.011 170.161 350.08 170.614 350.216 171.011C350.356 171.409 350.563 171.723 350.835 171.955C351.112 172.182 351.453 172.295 351.858 172.295Z" fill="#15505C"/>
<path d="M360.072 199.93H292.426C290.48 199.93 288.903 201.498 288.903 203.431V227.241C288.903 229.175 290.48 230.742 292.426 230.742H360.072C362.018 230.742 363.595 229.175 363.595 227.241V203.431C363.595 201.498 362.018 199.93 360.072 199.93Z" fill="#4FC08D"/>
<path d="M360.776 251.401H293.131C291.185 251.401 289.608 252.968 289.608 254.902V278.361C289.608 280.295 291.185 281.863 293.131 281.863H360.776C362.722 281.863 364.3 280.295 364.3 278.361V254.902C364.3 252.968 362.722 251.401 360.776 251.401Z" fill="#4FC08D"/>
<path d="M360.776 302.521H293.131C291.185 302.521 289.608 304.089 289.608 306.022V329.832C289.608 331.766 291.185 333.333 293.131 333.333H360.776C362.722 333.333 364.3 331.766 364.3 329.832V306.022C364.3 304.089 362.722 302.521 360.776 302.521Z" fill="#4FC08D"/>
<path d="M320.381 319.267C320.006 319.267 319.684 319.134 319.415 318.869C319.15 318.6 319.017 318.278 319.017 317.903C319.017 317.532 319.15 317.214 319.415 316.949C319.684 316.684 320.006 316.551 320.381 316.551C320.744 316.551 321.063 316.684 321.335 316.949C321.608 317.214 321.744 317.532 321.744 317.903C321.744 318.153 321.68 318.383 321.551 318.591C321.426 318.795 321.261 318.96 321.057 319.085C320.852 319.206 320.627 319.267 320.381 319.267ZM325.146 319.267C324.771 319.267 324.449 319.134 324.18 318.869C323.915 318.6 323.783 318.278 323.783 317.903C323.783 317.532 323.915 317.214 324.18 316.949C324.449 316.684 324.771 316.551 325.146 316.551C325.51 316.551 325.828 316.684 326.101 316.949C326.374 317.214 326.51 317.532 326.51 317.903C326.51 318.153 326.446 318.383 326.317 318.591C326.192 318.795 326.027 318.96 325.822 319.085C325.618 319.206 325.393 319.267 325.146 319.267ZM329.912 319.267C329.537 319.267 329.215 319.134 328.946 318.869C328.681 318.6 328.548 318.278 328.548 317.903C328.548 317.532 328.681 317.214 328.946 316.949C329.215 316.684 329.537 316.551 329.912 316.551C330.276 316.551 330.594 316.684 330.866 316.949C331.139 317.214 331.276 317.532 331.276 317.903C331.276 318.153 331.211 318.383 331.082 318.591C330.957 318.795 330.793 318.96 330.588 319.085C330.384 319.206 330.158 319.267 329.912 319.267Z" fill="#15505C"/>
<path d="M198.381 266.267C198.006 266.267 197.684 266.134 197.415 265.869C197.15 265.6 197.017 265.278 197.017 264.903C197.017 264.532 197.15 264.214 197.415 263.949C197.684 263.684 198.006 263.551 198.381 263.551C198.744 263.551 199.063 263.684 199.335 263.949C199.608 264.214 199.744 264.532 199.744 264.903C199.744 265.153 199.68 265.383 199.551 265.591C199.426 265.795 199.261 265.96 199.057 266.085C198.852 266.206 198.627 266.267 198.381 266.267ZM203.146 266.267C202.771 266.267 202.449 266.134 202.18 265.869C201.915 265.6 201.783 265.278 201.783 264.903C201.783 264.532 201.915 264.214 202.18 263.949C202.449 263.684 202.771 263.551 203.146 263.551C203.51 263.551 203.828 263.684 204.101 263.949C204.374 264.214 204.51 264.532 204.51 264.903C204.51 265.153 204.446 265.383 204.317 265.591C204.192 265.795 204.027 265.96 203.822 266.085C203.618 266.206 203.393 266.267 203.146 266.267ZM207.912 266.267C207.537 266.267 207.215 266.134 206.946 265.869C206.681 265.6 206.548 265.278 206.548 264.903C206.548 264.532 206.681 264.214 206.946 263.949C207.215 263.684 207.537 263.551 207.912 263.551C208.276 263.551 208.594 263.684 208.866 263.949C209.139 264.214 209.276 264.532 209.276 264.903C209.276 265.153 209.211 265.383 209.082 265.591C208.957 265.795 208.793 265.96 208.588 266.085C208.384 266.206 208.158 266.267 207.912 266.267Z" fill="#15505C"/>
<path d="M436.525 219.538L425.956 213.473V225.603L436.525 219.538ZM400.236 220.588H427.013V218.487H400.236V220.588Z" fill="#FFC36B"/>
<path d="M562.304 219.538L551.734 213.473V225.603L562.304 219.538ZM526.015 220.588H552.791V218.487H526.015V220.588Z" fill="#FFC36B"/>
<path d="M522.492 190.826H440.049C438.103 190.826 436.525 192.394 436.525 194.328V237.745C436.525 239.679 438.103 241.246 440.049 241.246H522.492C524.437 241.246 526.015 239.679 526.015 237.745V194.328C526.015 192.394 524.437 190.826 522.492 190.826Z" fill="#C692EA"/>
<path d="M450.011 222V210.364H454.602C455.485 210.364 456.237 210.532 456.858 210.869C457.479 211.203 457.953 211.667 458.278 212.261C458.608 212.852 458.773 213.534 458.773 214.307C458.773 215.08 458.606 215.761 458.273 216.352C457.939 216.943 457.456 217.403 456.824 217.733C456.195 218.062 455.434 218.227 454.54 218.227H451.614V216.256H454.142C454.616 216.256 455.006 216.174 455.312 216.011C455.623 215.845 455.854 215.616 456.006 215.324C456.161 215.028 456.239 214.689 456.239 214.307C456.239 213.92 456.161 213.583 456.006 213.295C455.854 213.004 455.623 212.778 455.312 212.619C455.002 212.456 454.608 212.375 454.131 212.375H452.472V222H450.011ZM462.58 222.165C462.023 222.165 461.527 222.068 461.091 221.875C460.655 221.678 460.311 221.388 460.057 221.006C459.807 220.619 459.682 220.138 459.682 219.562C459.682 219.078 459.771 218.67 459.949 218.341C460.127 218.011 460.369 217.746 460.676 217.545C460.983 217.345 461.331 217.193 461.722 217.091C462.116 216.989 462.528 216.917 462.96 216.875C463.468 216.822 463.877 216.773 464.188 216.727C464.498 216.678 464.723 216.606 464.864 216.511C465.004 216.417 465.074 216.277 465.074 216.091V216.057C465.074 215.697 464.96 215.419 464.733 215.222C464.509 215.025 464.191 214.926 463.778 214.926C463.343 214.926 462.996 215.023 462.739 215.216C462.481 215.405 462.311 215.644 462.227 215.932L459.989 215.75C460.102 215.22 460.326 214.761 460.659 214.375C460.992 213.985 461.422 213.686 461.949 213.477C462.479 213.265 463.093 213.159 463.79 213.159C464.275 213.159 464.739 213.216 465.182 213.33C465.629 213.443 466.025 213.619 466.369 213.858C466.718 214.097 466.992 214.403 467.193 214.778C467.394 215.15 467.494 215.595 467.494 216.114V222H465.199V220.79H465.131C464.991 221.062 464.803 221.303 464.568 221.511C464.333 221.716 464.051 221.877 463.722 221.994C463.392 222.108 463.011 222.165 462.58 222.165ZM463.273 220.494C463.629 220.494 463.943 220.424 464.216 220.284C464.489 220.14 464.703 219.947 464.858 219.705C465.013 219.462 465.091 219.187 465.091 218.881V217.955C465.015 218.004 464.911 218.049 464.778 218.091C464.65 218.129 464.504 218.165 464.341 218.199C464.178 218.229 464.015 218.258 463.852 218.284C463.689 218.307 463.542 218.328 463.409 218.347C463.125 218.388 462.877 218.455 462.665 218.545C462.453 218.636 462.288 218.759 462.17 218.915C462.053 219.066 461.994 219.256 461.994 219.483C461.994 219.812 462.114 220.064 462.352 220.239C462.595 220.409 462.902 220.494 463.273 220.494ZM475.139 225.273V220.602H475.065C474.952 220.845 474.791 221.085 474.582 221.324C474.378 221.559 474.111 221.754 473.781 221.909C473.455 222.064 473.058 222.142 472.588 222.142C471.925 222.142 471.325 221.972 470.787 221.631C470.253 221.286 469.829 220.78 469.514 220.114C469.204 219.443 469.048 218.621 469.048 217.648C469.048 216.648 469.209 215.816 469.531 215.153C469.853 214.487 470.281 213.989 470.815 213.659C471.353 213.326 471.942 213.159 472.582 213.159C473.071 213.159 473.478 213.242 473.804 213.409C474.134 213.572 474.399 213.777 474.599 214.023C474.804 214.265 474.959 214.504 475.065 214.739H475.168V213.273H477.554V225.273H475.139ZM473.355 220.216C473.745 220.216 474.075 220.11 474.344 219.898C474.616 219.682 474.825 219.381 474.969 218.994C475.116 218.608 475.19 218.155 475.19 217.636C475.19 217.117 475.118 216.667 474.974 216.284C474.83 215.902 474.622 215.606 474.349 215.398C474.077 215.189 473.745 215.085 473.355 215.085C472.957 215.085 472.622 215.193 472.349 215.409C472.077 215.625 471.87 215.924 471.73 216.307C471.59 216.689 471.52 217.133 471.52 217.636C471.52 218.144 471.59 218.593 471.73 218.983C471.874 219.369 472.08 219.672 472.349 219.892C472.622 220.108 472.957 220.216 473.355 220.216ZM485.094 218.284V213.273H487.514V222H485.19V220.415H485.099C484.902 220.926 484.575 221.337 484.116 221.648C483.662 221.958 483.107 222.114 482.452 222.114C481.868 222.114 481.355 221.981 480.912 221.716C480.469 221.451 480.122 221.074 479.872 220.585C479.626 220.097 479.501 219.511 479.497 218.83V213.273H481.918V218.398C481.921 218.913 482.06 219.32 482.332 219.619C482.605 219.919 482.971 220.068 483.429 220.068C483.721 220.068 483.993 220.002 484.247 219.869C484.501 219.733 484.705 219.532 484.861 219.267C485.02 219.002 485.098 218.674 485.094 218.284ZM493.428 222.17C492.53 222.17 491.757 221.989 491.109 221.625C490.465 221.258 489.969 220.739 489.621 220.068C489.272 219.394 489.098 218.597 489.098 217.676C489.098 216.778 489.272 215.991 489.621 215.312C489.969 214.634 490.46 214.106 491.092 213.727C491.729 213.348 492.475 213.159 493.331 213.159C493.907 213.159 494.443 213.252 494.939 213.438C495.439 213.619 495.875 213.894 496.246 214.261C496.621 214.629 496.912 215.091 497.121 215.648C497.329 216.201 497.433 216.848 497.433 217.591V218.256H490.064V216.756H495.155C495.155 216.407 495.079 216.098 494.928 215.83C494.776 215.561 494.566 215.35 494.297 215.199C494.032 215.044 493.723 214.966 493.371 214.966C493.003 214.966 492.678 215.051 492.393 215.222C492.113 215.388 491.893 215.614 491.734 215.898C491.575 216.178 491.494 216.491 491.49 216.835V218.261C491.49 218.693 491.57 219.066 491.729 219.381C491.892 219.695 492.121 219.938 492.416 220.108C492.712 220.278 493.062 220.364 493.467 220.364C493.736 220.364 493.982 220.326 494.206 220.25C494.429 220.174 494.621 220.061 494.78 219.909C494.939 219.758 495.06 219.572 495.143 219.352L497.382 219.5C497.268 220.038 497.036 220.508 496.683 220.909C496.335 221.307 495.884 221.617 495.331 221.841C494.782 222.061 494.147 222.17 493.428 222.17ZM503.655 213.273V215.091H498.399V213.273H503.655ZM499.592 211.182H502.013V219.318C502.013 219.542 502.047 219.716 502.115 219.841C502.183 219.962 502.278 220.047 502.399 220.097C502.524 220.146 502.668 220.17 502.831 220.17C502.945 220.17 503.058 220.161 503.172 220.142C503.286 220.119 503.373 220.102 503.433 220.091L503.814 221.892C503.693 221.93 503.522 221.973 503.303 222.023C503.083 222.076 502.816 222.108 502.501 222.119C501.918 222.142 501.407 222.064 500.967 221.886C500.532 221.708 500.193 221.432 499.95 221.057C499.708 220.682 499.589 220.208 499.592 219.636V211.182ZM509.115 222.17C508.217 222.17 507.445 221.989 506.797 221.625C506.153 221.258 505.657 220.739 505.308 220.068C504.96 219.394 504.786 218.597 504.786 217.676C504.786 216.778 504.96 215.991 505.308 215.312C505.657 214.634 506.147 214.106 506.78 213.727C507.416 213.348 508.162 213.159 509.018 213.159C509.594 213.159 510.13 213.252 510.626 213.438C511.126 213.619 511.562 213.894 511.933 214.261C512.308 214.629 512.6 215.091 512.808 215.648C513.017 216.201 513.121 216.848 513.121 217.591V218.256H505.751V216.756H510.842C510.842 216.407 510.767 216.098 510.615 215.83C510.464 215.561 510.253 215.35 509.984 215.199C509.719 215.044 509.411 214.966 509.058 214.966C508.691 214.966 508.365 215.051 508.081 215.222C507.801 215.388 507.581 215.614 507.422 215.898C507.263 216.178 507.181 216.491 507.178 216.835V218.261C507.178 218.693 507.257 219.066 507.416 219.381C507.579 219.695 507.808 219.938 508.104 220.108C508.399 220.278 508.75 220.364 509.155 220.364C509.424 220.364 509.67 220.326 509.893 220.25C510.117 220.174 510.308 220.061 510.467 219.909C510.626 219.758 510.748 219.572 510.831 219.352L513.07 219.5C512.956 220.038 512.723 220.508 512.371 220.909C512.022 221.307 511.571 221.617 511.018 221.841C510.469 222.061 509.835 222.17 509.115 222.17Z" fill="white"/>
<path d="M648.27 190.126H565.827C563.881 190.126 562.304 191.694 562.304 193.627V236.695C562.304 238.628 563.881 240.196 565.827 240.196H648.27C650.216 240.196 651.793 238.628 651.793 236.695V193.627C651.793 191.694 650.216 190.126 648.27 190.126Z" fill="#009688"/>
<path d="M581.324 213.71C581.278 213.252 581.083 212.896 580.739 212.642C580.394 212.388 579.926 212.261 579.335 212.261C578.934 212.261 578.595 212.318 578.318 212.432C578.042 212.542 577.83 212.695 577.682 212.892C577.538 213.089 577.466 213.312 577.466 213.562C577.458 213.771 577.502 213.953 577.597 214.108C577.695 214.263 577.83 214.398 578 214.511C578.17 214.621 578.367 214.718 578.591 214.801C578.814 214.881 579.053 214.949 579.307 215.006L580.352 215.256C580.86 215.369 581.326 215.521 581.75 215.71C582.174 215.9 582.542 216.133 582.852 216.409C583.163 216.686 583.403 217.011 583.574 217.386C583.748 217.761 583.837 218.191 583.841 218.676C583.837 219.388 583.655 220.006 583.295 220.528C582.939 221.047 582.424 221.451 581.75 221.739C581.08 222.023 580.271 222.165 579.324 222.165C578.384 222.165 577.566 222.021 576.869 221.733C576.176 221.445 575.634 221.019 575.244 220.455C574.858 219.886 574.655 219.184 574.636 218.347H577.017C577.044 218.737 577.155 219.062 577.352 219.324C577.553 219.581 577.82 219.777 578.153 219.909C578.491 220.038 578.871 220.102 579.295 220.102C579.712 220.102 580.074 220.042 580.381 219.92C580.691 219.799 580.932 219.631 581.102 219.415C581.273 219.199 581.358 218.951 581.358 218.67C581.358 218.409 581.28 218.189 581.125 218.011C580.973 217.833 580.75 217.682 580.455 217.557C580.163 217.432 579.805 217.318 579.381 217.216L578.114 216.898C577.133 216.659 576.358 216.286 575.79 215.778C575.222 215.271 574.939 214.587 574.943 213.727C574.939 213.023 575.127 212.407 575.506 211.881C575.888 211.354 576.413 210.943 577.08 210.648C577.746 210.352 578.504 210.205 579.352 210.205C580.216 210.205 580.97 210.352 581.614 210.648C582.261 210.943 582.765 211.354 583.125 211.881C583.485 212.407 583.67 213.017 583.682 213.71H581.324ZM589.428 222.17C588.53 222.17 587.757 221.989 587.109 221.625C586.465 221.258 585.969 220.739 585.621 220.068C585.272 219.394 585.098 218.597 585.098 217.676C585.098 216.778 585.272 215.991 585.621 215.312C585.969 214.634 586.46 214.106 587.092 213.727C587.729 213.348 588.475 213.159 589.331 213.159C589.907 213.159 590.443 213.252 590.939 213.438C591.439 213.619 591.875 213.894 592.246 214.261C592.621 214.629 592.912 215.091 593.121 215.648C593.329 216.201 593.433 216.848 593.433 217.591V218.256H586.064V216.756H591.155C591.155 216.407 591.079 216.098 590.928 215.83C590.776 215.561 590.566 215.35 590.297 215.199C590.032 215.044 589.723 214.966 589.371 214.966C589.003 214.966 588.678 215.051 588.393 215.222C588.113 215.388 587.893 215.614 587.734 215.898C587.575 216.178 587.494 216.491 587.49 216.835V218.261C587.49 218.693 587.57 219.066 587.729 219.381C587.892 219.695 588.121 219.938 588.416 220.108C588.712 220.278 589.062 220.364 589.467 220.364C589.736 220.364 589.982 220.326 590.206 220.25C590.429 220.174 590.621 220.061 590.78 219.909C590.939 219.758 591.06 219.572 591.143 219.352L593.382 219.5C593.268 220.038 593.036 220.508 592.683 220.909C592.335 221.307 591.884 221.617 591.331 221.841C590.782 222.061 590.147 222.17 589.428 222.17ZM595.013 222V213.273H597.359V214.795H597.45C597.609 214.254 597.876 213.845 598.251 213.568C598.626 213.288 599.058 213.148 599.547 213.148C599.668 213.148 599.799 213.155 599.939 213.17C600.079 213.186 600.202 213.206 600.308 213.233V215.381C600.195 215.347 600.037 215.316 599.837 215.29C599.636 215.263 599.452 215.25 599.286 215.25C598.929 215.25 598.611 215.328 598.331 215.483C598.054 215.634 597.835 215.847 597.672 216.119C597.513 216.392 597.433 216.706 597.433 217.062V222H595.013ZM609.962 213.273L606.911 222H604.183L601.132 213.273H603.689L605.501 219.517H605.592L607.399 213.273H609.962ZM611.2 222V213.273H613.621V222H611.2ZM612.416 212.148C612.056 212.148 611.748 212.028 611.49 211.79C611.236 211.547 611.109 211.258 611.109 210.92C611.109 210.587 611.236 210.301 611.49 210.062C611.748 209.82 612.056 209.699 612.416 209.699C612.776 209.699 613.083 209.82 613.337 210.062C613.594 210.301 613.723 210.587 613.723 210.92C613.723 211.258 613.594 211.547 613.337 211.79C613.083 212.028 612.776 212.148 612.416 212.148ZM618.776 222.142C618.113 222.142 617.512 221.972 616.974 221.631C616.44 221.286 616.016 220.78 615.702 220.114C615.391 219.443 615.236 218.621 615.236 217.648C615.236 216.648 615.397 215.816 615.719 215.153C616.041 214.487 616.469 213.989 617.003 213.659C617.541 213.326 618.13 213.159 618.77 213.159C619.259 213.159 619.666 213.242 619.991 213.409C620.321 213.572 620.586 213.777 620.787 214.023C620.991 214.265 621.147 214.504 621.253 214.739H621.327V210.364H623.741V222H621.355V220.602H621.253C621.139 220.845 620.978 221.085 620.77 221.324C620.565 221.559 620.298 221.754 619.969 221.909C619.643 222.064 619.245 222.142 618.776 222.142ZM619.543 220.216C619.933 220.216 620.262 220.11 620.531 219.898C620.804 219.682 621.012 219.381 621.156 218.994C621.304 218.608 621.378 218.155 621.378 217.636C621.378 217.117 621.306 216.667 621.162 216.284C621.018 215.902 620.81 215.606 620.537 215.398C620.264 215.189 619.933 215.085 619.543 215.085C619.145 215.085 618.81 215.193 618.537 215.409C618.264 215.625 618.058 215.924 617.918 216.307C617.777 216.689 617.707 217.133 617.707 217.636C617.707 218.144 617.777 218.593 617.918 218.983C618.062 219.369 618.268 219.672 618.537 219.892C618.81 220.108 619.145 220.216 619.543 220.216ZM629.675 222.17C628.792 222.17 628.029 221.983 627.385 221.608C626.745 221.229 626.25 220.703 625.902 220.028C625.554 219.35 625.379 218.564 625.379 217.67C625.379 216.769 625.554 215.981 625.902 215.307C626.25 214.629 626.745 214.102 627.385 213.727C628.029 213.348 628.792 213.159 629.675 213.159C630.557 213.159 631.319 213.348 631.959 213.727C632.603 214.102 633.099 214.629 633.447 215.307C633.796 215.981 633.97 216.769 633.97 217.67C633.97 218.564 633.796 219.35 633.447 220.028C633.099 220.703 632.603 221.229 631.959 221.608C631.319 221.983 630.557 222.17 629.675 222.17ZM629.686 220.295C630.088 220.295 630.423 220.182 630.692 219.955C630.961 219.723 631.163 219.409 631.3 219.011C631.44 218.614 631.51 218.161 631.51 217.653C631.51 217.146 631.44 216.693 631.3 216.295C631.163 215.898 630.961 215.583 630.692 215.352C630.423 215.121 630.088 215.006 629.686 215.006C629.281 215.006 628.94 215.121 628.663 215.352C628.391 215.583 628.184 215.898 628.044 216.295C627.908 216.693 627.839 217.146 627.839 217.653C627.839 218.161 627.908 218.614 628.044 219.011C628.184 219.409 628.391 219.723 628.663 219.955C628.94 220.182 629.281 220.295 629.686 220.295ZM635.544 222V213.273H637.891V214.795H637.982C638.141 214.254 638.408 213.845 638.783 213.568C639.158 213.288 639.589 213.148 640.078 213.148C640.199 213.148 640.33 213.155 640.47 213.17C640.61 213.186 640.733 213.206 640.839 213.233V215.381C640.726 215.347 640.569 215.316 640.368 215.29C640.167 215.263 639.983 215.25 639.817 215.25C639.461 215.25 639.143 215.328 638.862 215.483C638.586 215.634 638.366 215.847 638.203 216.119C638.044 216.392 637.964 216.706 637.964 217.062V222H635.544Z" fill="white"/>
<path d="M299.011 260.364H302.045L305.25 268.182H305.386L308.591 260.364H311.625V272H309.239V264.426H309.142L306.131 271.943H304.506L301.494 264.398H301.398V272H299.011V260.364ZM317.55 272.17C316.667 272.17 315.904 271.983 315.26 271.608C314.62 271.229 314.125 270.703 313.777 270.028C313.429 269.35 313.254 268.564 313.254 267.67C313.254 266.769 313.429 265.981 313.777 265.307C314.125 264.629 314.62 264.102 315.26 263.727C315.904 263.348 316.667 263.159 317.55 263.159C318.432 263.159 319.194 263.348 319.834 263.727C320.478 264.102 320.974 264.629 321.322 265.307C321.671 265.981 321.845 266.769 321.845 267.67C321.845 268.564 321.671 269.35 321.322 270.028C320.974 270.703 320.478 271.229 319.834 271.608C319.194 271.983 318.432 272.17 317.55 272.17ZM317.561 270.295C317.963 270.295 318.298 270.182 318.567 269.955C318.836 269.723 319.038 269.409 319.175 269.011C319.315 268.614 319.385 268.161 319.385 267.653C319.385 267.146 319.315 266.693 319.175 266.295C319.038 265.898 318.836 265.583 318.567 265.352C318.298 265.121 317.963 265.006 317.561 265.006C317.156 265.006 316.815 265.121 316.538 265.352C316.266 265.583 316.059 265.898 315.919 266.295C315.783 266.693 315.714 267.146 315.714 267.653C315.714 268.161 315.783 268.614 315.919 269.011C316.059 269.409 316.266 269.723 316.538 269.955C316.815 270.182 317.156 270.295 317.561 270.295ZM316.68 262.148L317.885 259.562H320.124L318.391 262.148H316.68ZM326.635 272.142C325.972 272.142 325.372 271.972 324.834 271.631C324.3 271.286 323.875 270.78 323.561 270.114C323.25 269.443 323.095 268.621 323.095 267.648C323.095 266.648 323.256 265.816 323.578 265.153C323.9 264.487 324.328 263.989 324.862 263.659C325.4 263.326 325.989 263.159 326.629 263.159C327.118 263.159 327.525 263.242 327.851 263.409C328.18 263.572 328.446 263.777 328.646 264.023C328.851 264.265 329.006 264.504 329.112 264.739H329.186V260.364H331.601V272H329.214V270.602H329.112C328.999 270.845 328.838 271.085 328.629 271.324C328.425 271.559 328.158 271.754 327.828 271.909C327.502 272.064 327.105 272.142 326.635 272.142ZM327.402 270.216C327.792 270.216 328.122 270.11 328.391 269.898C328.663 269.682 328.872 269.381 329.016 268.994C329.163 268.608 329.237 268.155 329.237 267.636C329.237 267.117 329.165 266.667 329.021 266.284C328.877 265.902 328.669 265.606 328.396 265.398C328.124 265.189 327.792 265.085 327.402 265.085C327.004 265.085 326.669 265.193 326.396 265.409C326.124 265.625 325.917 265.924 325.777 266.307C325.637 266.689 325.567 267.133 325.567 267.636C325.567 268.144 325.637 268.593 325.777 268.983C325.921 269.369 326.127 269.672 326.396 269.892C326.669 270.108 327.004 270.216 327.402 270.216ZM339.188 268.284V263.273H341.608V272H339.284V270.415H339.193C338.996 270.926 338.669 271.337 338.21 271.648C337.756 271.958 337.201 272.114 336.545 272.114C335.962 272.114 335.449 271.981 335.006 271.716C334.563 271.451 334.216 271.074 333.966 270.585C333.72 270.097 333.595 269.511 333.591 268.83V263.273H336.011V268.398C336.015 268.913 336.153 269.32 336.426 269.619C336.699 269.919 337.064 270.068 337.523 270.068C337.814 270.068 338.087 270.002 338.341 269.869C338.595 269.733 338.799 269.532 338.955 269.267C339.114 269.002 339.191 268.674 339.188 268.284ZM345.964 260.364V272H343.544V260.364H345.964ZM351.847 272.17C350.964 272.17 350.201 271.983 349.557 271.608C348.917 271.229 348.422 270.703 348.074 270.028C347.725 269.35 347.551 268.564 347.551 267.67C347.551 266.769 347.725 265.981 348.074 265.307C348.422 264.629 348.917 264.102 349.557 263.727C350.201 263.348 350.964 263.159 351.847 263.159C352.729 263.159 353.491 263.348 354.131 263.727C354.775 264.102 355.271 264.629 355.619 265.307C355.968 265.981 356.142 266.769 356.142 267.67C356.142 268.564 355.968 269.35 355.619 270.028C355.271 270.703 354.775 271.229 354.131 271.608C353.491 271.983 352.729 272.17 351.847 272.17ZM351.858 270.295C352.259 270.295 352.595 270.182 352.864 269.955C353.133 269.723 353.335 269.409 353.472 269.011C353.612 268.614 353.682 268.161 353.682 267.653C353.682 267.146 353.612 266.693 353.472 266.295C353.335 265.898 353.133 265.583 352.864 265.352C352.595 265.121 352.259 265.006 351.858 265.006C351.453 265.006 351.112 265.121 350.835 265.352C350.563 265.583 350.356 265.898 350.216 266.295C350.08 266.693 350.011 267.146 350.011 267.653C350.011 268.161 350.08 268.614 350.216 269.011C350.356 269.409 350.563 269.723 350.835 269.955C351.112 270.182 351.453 270.295 351.858 270.295Z" fill="#15505C"/>
<path d="M298.011 210.364H301.045L304.25 218.182H304.386L307.591 210.364H310.625V222H308.239V214.426H308.142L305.131 221.943H303.506L300.494 214.398H300.398V222H298.011V210.364ZM316.55 222.17C315.667 222.17 314.904 221.983 314.26 221.608C313.62 221.229 313.125 220.703 312.777 220.028C312.429 219.35 312.254 218.564 312.254 217.67C312.254 216.769 312.429 215.981 312.777 215.307C313.125 214.629 313.62 214.102 314.26 213.727C314.904 213.348 315.667 213.159 316.55 213.159C317.432 213.159 318.194 213.348 318.834 213.727C319.478 214.102 319.974 214.629 320.322 215.307C320.671 215.981 320.845 216.769 320.845 217.67C320.845 218.564 320.671 219.35 320.322 220.028C319.974 220.703 319.478 221.229 318.834 221.608C318.194 221.983 317.432 222.17 316.55 222.17ZM316.561 220.295C316.963 220.295 317.298 220.182 317.567 219.955C317.836 219.723 318.038 219.409 318.175 219.011C318.315 218.614 318.385 218.161 318.385 217.653C318.385 217.146 318.315 216.693 318.175 216.295C318.038 215.898 317.836 215.583 317.567 215.352C317.298 215.121 316.963 215.006 316.561 215.006C316.156 215.006 315.815 215.121 315.538 215.352C315.266 215.583 315.059 215.898 314.919 216.295C314.783 216.693 314.714 217.146 314.714 217.653C314.714 218.161 314.783 218.614 314.919 219.011C315.059 219.409 315.266 219.723 315.538 219.955C315.815 220.182 316.156 220.295 316.561 220.295ZM315.68 212.148L316.885 209.562H319.124L317.391 212.148H315.68ZM325.635 222.142C324.972 222.142 324.372 221.972 323.834 221.631C323.3 221.286 322.875 220.78 322.561 220.114C322.25 219.443 322.095 218.621 322.095 217.648C322.095 216.648 322.256 215.816 322.578 215.153C322.9 214.487 323.328 213.989 323.862 213.659C324.4 213.326 324.989 213.159 325.629 213.159C326.118 213.159 326.525 213.242 326.851 213.409C327.18 213.572 327.446 213.777 327.646 214.023C327.851 214.265 328.006 214.504 328.112 214.739H328.186V210.364H330.601V222H328.214V220.602H328.112C327.999 220.845 327.838 221.085 327.629 221.324C327.425 221.559 327.158 221.754 326.828 221.909C326.502 222.064 326.105 222.142 325.635 222.142ZM326.402 220.216C326.792 220.216 327.122 220.11 327.391 219.898C327.663 219.682 327.872 219.381 328.016 218.994C328.163 218.608 328.237 218.155 328.237 217.636C328.237 217.117 328.165 216.667 328.021 216.284C327.877 215.902 327.669 215.606 327.396 215.398C327.124 215.189 326.792 215.085 326.402 215.085C326.004 215.085 325.669 215.193 325.396 215.409C325.124 215.625 324.917 215.924 324.777 216.307C324.637 216.689 324.567 217.133 324.567 217.636C324.567 218.144 324.637 218.593 324.777 218.983C324.921 219.369 325.127 219.672 325.396 219.892C325.669 220.108 326.004 220.216 326.402 220.216ZM338.188 218.284V213.273H340.608V222H338.284V220.415H338.193C337.996 220.926 337.669 221.337 337.21 221.648C336.756 221.958 336.201 222.114 335.545 222.114C334.962 222.114 334.449 221.981 334.006 221.716C333.563 221.451 333.216 221.074 332.966 220.585C332.72 220.097 332.595 219.511 332.591 218.83V213.273H335.011V218.398C335.015 218.913 335.153 219.32 335.426 219.619C335.699 219.919 336.064 220.068 336.523 220.068C336.814 220.068 337.087 220.002 337.341 219.869C337.595 219.733 337.799 219.532 337.955 219.267C338.114 219.002 338.191 218.674 338.188 218.284ZM344.964 210.364V222H342.544V210.364H344.964ZM350.847 222.17C349.964 222.17 349.201 221.983 348.557 221.608C347.917 221.229 347.422 220.703 347.074 220.028C346.725 219.35 346.551 218.564 346.551 217.67C346.551 216.769 346.725 215.981 347.074 215.307C347.422 214.629 347.917 214.102 348.557 213.727C349.201 213.348 349.964 213.159 350.847 213.159C351.729 213.159 352.491 213.348 353.131 213.727C353.775 214.102 354.271 214.629 354.619 215.307C354.968 215.981 355.142 216.769 355.142 217.67C355.142 218.564 354.968 219.35 354.619 220.028C354.271 220.703 353.775 221.229 353.131 221.608C352.491 221.983 351.729 222.17 350.847 222.17ZM350.858 220.295C351.259 220.295 351.595 220.182 351.864 219.955C352.133 219.723 352.335 219.409 352.472 219.011C352.612 218.614 352.682 218.161 352.682 217.653C352.682 217.146 352.612 216.693 352.472 216.295C352.335 215.898 352.133 215.583 351.864 215.352C351.595 215.121 351.259 215.006 350.858 215.006C350.453 215.006 350.112 215.121 349.835 215.352C349.563 215.583 349.356 215.898 349.216 216.295C349.08 216.693 349.011 217.146 349.011 217.653C349.011 218.161 349.08 218.614 349.216 219.011C349.356 219.409 349.563 219.723 349.835 219.955C350.112 220.182 350.453 220.295 350.858 220.295Z" fill="#15505C"/>
<path d="M187.011 223V211.364H191.602C192.481 211.364 193.231 211.521 193.852 211.835C194.477 212.146 194.953 212.587 195.278 213.159C195.608 213.727 195.773 214.396 195.773 215.165C195.773 215.937 195.606 216.602 195.273 217.159C194.939 217.712 194.456 218.136 193.824 218.432C193.195 218.727 192.434 218.875 191.54 218.875H188.466V216.898H191.142C191.612 216.898 192.002 216.833 192.312 216.705C192.623 216.576 192.854 216.383 193.006 216.125C193.161 215.867 193.239 215.547 193.239 215.165C193.239 214.778 193.161 214.453 193.006 214.188C192.854 213.922 192.621 213.722 192.307 213.585C191.996 213.445 191.604 213.375 191.131 213.375H189.472V223H187.011ZM193.295 217.705L196.188 223H193.472L190.642 217.705H193.295ZM203.062 219.284V214.273H205.483V223H203.159V221.415H203.068C202.871 221.926 202.544 222.337 202.085 222.648C201.631 222.958 201.076 223.114 200.42 223.114C199.837 223.114 199.324 222.981 198.881 222.716C198.438 222.451 198.091 222.074 197.841 221.585C197.595 221.097 197.47 220.511 197.466 219.83V214.273H199.886V219.398C199.89 219.913 200.028 220.32 200.301 220.619C200.574 220.919 200.939 221.068 201.398 221.068C201.689 221.068 201.962 221.002 202.216 220.869C202.47 220.733 202.674 220.532 202.83 220.267C202.989 220.002 203.066 219.674 203.062 219.284ZM212.061 214.273V216.091H206.805V214.273H212.061ZM207.999 212.182H210.419V220.318C210.419 220.542 210.453 220.716 210.521 220.841C210.589 220.962 210.684 221.047 210.805 221.097C210.93 221.146 211.074 221.17 211.237 221.17C211.351 221.17 211.464 221.161 211.578 221.142C211.692 221.119 211.779 221.102 211.839 221.091L212.22 222.892C212.099 222.93 211.929 222.973 211.709 223.023C211.489 223.076 211.222 223.108 210.908 223.119C210.324 223.142 209.813 223.064 209.374 222.886C208.938 222.708 208.599 222.432 208.357 222.057C208.114 221.682 207.995 221.208 207.999 220.636V212.182ZM216.126 223.165C215.57 223.165 215.073 223.068 214.638 222.875C214.202 222.678 213.857 222.388 213.604 222.006C213.354 221.619 213.229 221.138 213.229 220.562C213.229 220.078 213.318 219.67 213.496 219.341C213.674 219.011 213.916 218.746 214.223 218.545C214.53 218.345 214.878 218.193 215.268 218.091C215.662 217.989 216.075 217.917 216.507 217.875C217.015 217.822 217.424 217.773 217.734 217.727C218.045 217.678 218.27 217.606 218.411 217.511C218.551 217.417 218.621 217.277 218.621 217.091V217.057C218.621 216.697 218.507 216.419 218.28 216.222C218.056 216.025 217.738 215.926 217.325 215.926C216.89 215.926 216.543 216.023 216.286 216.216C216.028 216.405 215.857 216.644 215.774 216.932L213.536 216.75C213.649 216.22 213.873 215.761 214.206 215.375C214.539 214.985 214.969 214.686 215.496 214.477C216.026 214.265 216.64 214.159 217.337 214.159C217.821 214.159 218.286 214.216 218.729 214.33C219.176 214.443 219.571 214.619 219.916 214.858C220.265 215.097 220.539 215.403 220.74 215.778C220.941 216.15 221.041 216.595 221.041 217.114V223H218.746V221.79H218.678C218.537 222.062 218.35 222.303 218.115 222.511C217.88 222.716 217.598 222.877 217.268 222.994C216.939 223.108 216.558 223.165 216.126 223.165ZM216.82 221.494C217.176 221.494 217.49 221.424 217.763 221.284C218.036 221.14 218.25 220.947 218.405 220.705C218.56 220.462 218.638 220.187 218.638 219.881V218.955C218.562 219.004 218.458 219.049 218.325 219.091C218.196 219.129 218.051 219.165 217.888 219.199C217.725 219.229 217.562 219.258 217.399 219.284C217.236 219.307 217.089 219.328 216.956 219.347C216.672 219.388 216.424 219.455 216.212 219.545C216 219.636 215.835 219.759 215.717 219.915C215.6 220.066 215.541 220.256 215.541 220.483C215.541 220.812 215.661 221.064 215.899 221.239C216.142 221.409 216.448 221.494 216.82 221.494Z" fill="#15505C"/>
</svg>
