<svg width="668" height="375" viewBox="0 0 668 375" fill="none" xmlns="http://www.w3.org/2000/svg">
<path d="M29.6023 29.7273C29.483 28.7197 28.9991 27.9375 28.1506 27.3807C27.3021 26.8239 26.2614 26.5455 25.0284 26.5455C24.1269 26.5455 23.3381 26.6913 22.6619 26.983C21.9924 27.2746 21.4688 27.6757 21.0909 28.1861C20.7197 28.6965 20.5341 29.2765 20.5341 29.9261C20.5341 30.4697 20.6634 30.937 20.9219 31.3281C21.187 31.7126 21.5251 32.0341 21.9361 32.2926C22.3471 32.5445 22.7779 32.7533 23.2287 32.919C23.6795 33.0781 24.0938 33.2074 24.4716 33.3068L26.5398 33.8636C27.0701 34.0028 27.66 34.1951 28.3097 34.4403C28.9659 34.6856 29.5923 35.0204 30.1889 35.4446C30.7921 35.8622 31.2893 36.3991 31.6804 37.0554C32.0715 37.7116 32.267 38.517 32.267 39.4716C32.267 40.572 31.9787 41.5663 31.402 42.4545C30.8319 43.3428 29.9967 44.0488 28.8963 44.5724C27.8026 45.0961 26.4735 45.358 24.9091 45.358C23.4508 45.358 22.188 45.1226 21.1207 44.652C20.0601 44.1813 19.2249 43.5251 18.6151 42.6832C18.0118 41.8414 17.6705 40.8636 17.5909 39.75H20.1364C20.2027 40.5189 20.4612 41.1553 20.9119 41.6591C21.3693 42.1562 21.946 42.5275 22.642 42.7727C23.3447 43.0114 24.1004 43.1307 24.9091 43.1307C25.8504 43.1307 26.6955 42.9782 27.4446 42.6733C28.1937 42.3617 28.7869 41.9309 29.2244 41.3807C29.6619 40.8239 29.8807 40.1742 29.8807 39.4318C29.8807 38.7557 29.6918 38.2055 29.3139 37.7812C28.9361 37.357 28.4389 37.0123 27.8224 36.7472C27.206 36.482 26.5398 36.25 25.8239 36.0511L23.3182 35.3352C21.7273 34.8778 20.4678 34.2249 19.5398 33.3764C18.6117 32.5279 18.1477 31.4176 18.1477 30.0455C18.1477 28.9053 18.456 27.911 19.0724 27.0625C19.6955 26.2074 20.5308 25.5445 21.5781 25.0739C22.6321 24.5966 23.8087 24.358 25.108 24.358C26.4205 24.358 27.5871 24.5933 28.608 25.0639C29.6288 25.5279 30.4375 26.1643 31.0341 26.973C31.6373 27.7817 31.9555 28.6998 31.9886 29.7273H29.6023ZM42.4066 45.3182C40.935 45.3182 39.6656 44.9934 38.5984 44.3438C37.5378 43.6875 36.7191 42.7727 36.1424 41.5994C35.5723 40.4195 35.2873 39.0473 35.2873 37.483C35.2873 35.9186 35.5723 34.5398 36.1424 33.3466C36.7191 32.1468 37.5212 31.2121 38.5487 30.5426C39.5827 29.8665 40.7892 29.5284 42.168 29.5284C42.9634 29.5284 43.7489 29.661 44.5245 29.9261C45.3001 30.1913 46.006 30.6222 46.6424 31.2188C47.2788 31.8087 47.7859 32.5909 48.1637 33.5653C48.5415 34.5398 48.7305 35.7396 48.7305 37.1648V38.1591H36.9577V36.1307H46.3441C46.3441 35.2689 46.1718 34.5 45.8271 33.8239C45.489 33.1477 45.0051 32.6141 44.3754 32.223C43.7522 31.8319 43.0165 31.6364 42.168 31.6364C41.2333 31.6364 40.4246 31.8684 39.7418 32.3324C39.0657 32.7898 38.5453 33.3864 38.1808 34.1222C37.8162 34.858 37.6339 35.6468 37.6339 36.4886V37.8409C37.6339 38.9943 37.8327 39.9721 38.2305 40.7741C38.6348 41.5696 39.195 42.1761 39.9109 42.5938C40.6268 43.0047 41.4587 43.2102 42.4066 43.2102C43.0231 43.2102 43.5799 43.1241 44.0771 42.9517C44.5808 42.7727 45.015 42.5076 45.3796 42.1562C45.7442 41.7983 46.0259 41.3542 46.2248 40.8239L48.4918 41.4602C48.2532 42.2292 47.8522 42.9053 47.2887 43.4886C46.7253 44.0653 46.0292 44.5161 45.2006 44.8409C44.372 45.1591 43.4407 45.3182 42.4066 45.3182ZM52.3001 45V29.7273H54.5671V32.0341H54.7262C55.0046 31.2784 55.5084 30.6652 56.2376 30.1946C56.9667 29.724 57.7887 29.4886 58.7035 29.4886C58.8758 29.4886 59.0913 29.4919 59.3498 29.4986C59.6083 29.5052 59.8039 29.5152 59.9364 29.5284V31.9148C59.8569 31.8949 59.6746 31.8651 59.3896 31.8253C59.1112 31.7789 58.8162 31.7557 58.5046 31.7557C57.7622 31.7557 57.0993 31.9115 56.516 32.223C55.9393 32.5279 55.4819 32.9522 55.1438 33.4957C54.8124 34.0327 54.6467 34.6458 54.6467 35.3352V45H52.3001ZM75.6715 29.7273L70.0238 45H67.6374L61.9897 29.7273H64.5352L68.7511 41.8977H68.9102L73.1261 29.7273H75.6715ZM78.7688 45V29.7273H81.1154V45H78.7688ZM79.962 27.1818C79.5046 27.1818 79.1102 27.026 78.7788 26.7145C78.454 26.4029 78.2915 26.0284 78.2915 25.5909C78.2915 25.1534 78.454 24.7789 78.7788 24.4673C79.1102 24.1558 79.5046 24 79.962 24C80.4194 24 80.8105 24.1558 81.1353 24.4673C81.4667 24.7789 81.6325 25.1534 81.6325 25.5909C81.6325 26.0284 81.4667 26.4029 81.1353 26.7145C80.8105 27.026 80.4194 27.1818 79.962 27.1818ZM91.1804 45.3182C89.9077 45.3182 88.7841 44.9967 87.8097 44.3537C86.8352 43.7041 86.0729 42.7893 85.5227 41.6094C84.9725 40.4228 84.6974 39.0208 84.6974 37.4034C84.6974 35.7992 84.9725 34.4072 85.5227 33.2273C86.0729 32.0473 86.8385 31.1359 87.8196 30.4929C88.8007 29.8499 89.9342 29.5284 91.2202 29.5284C92.2145 29.5284 93 29.6941 93.5767 30.0256C94.16 30.3504 94.6042 30.7216 94.9091 31.1392C95.2206 31.5502 95.4626 31.8883 95.6349 32.1534H95.8338V24.6364H98.1804V45H95.9134V42.6534H95.6349C95.4626 42.9318 95.2173 43.2831 94.8991 43.7074C94.581 44.125 94.1269 44.4995 93.5369 44.831C92.947 45.1558 92.1615 45.3182 91.1804 45.3182ZM91.4986 43.2102C92.4399 43.2102 93.2353 42.965 93.8849 42.4744C94.5346 41.9773 95.0284 41.2912 95.3665 40.4162C95.7045 39.5346 95.8736 38.517 95.8736 37.3636C95.8736 36.2235 95.7079 35.2259 95.3764 34.3707C95.045 33.509 94.5545 32.8395 93.9048 32.3622C93.2552 31.8783 92.4531 31.6364 91.4986 31.6364C90.5043 31.6364 89.6757 31.8916 89.0128 32.402C88.3565 32.9058 87.8627 33.5919 87.5312 34.4602C87.2064 35.322 87.044 36.2898 87.044 37.3636C87.044 38.4508 87.2098 39.4384 87.5412 40.3267C87.8793 41.2083 88.3764 41.911 89.0327 42.4347C89.6955 42.9517 90.5175 43.2102 91.4986 43.2102ZM109.009 45.3182C107.63 45.3182 106.42 44.9901 105.379 44.3338C104.345 43.6776 103.536 42.7595 102.953 41.5795C102.376 40.3996 102.088 39.0208 102.088 37.4432C102.088 35.8523 102.376 34.4635 102.953 33.277C103.536 32.0904 104.345 31.169 105.379 30.5128C106.42 29.8565 107.63 29.5284 109.009 29.5284C110.387 29.5284 111.594 29.8565 112.628 30.5128C113.669 31.169 114.477 32.0904 115.054 33.277C115.637 34.4635 115.929 35.8523 115.929 37.4432C115.929 39.0208 115.637 40.3996 115.054 41.5795C114.477 42.7595 113.669 43.6776 112.628 44.3338C111.594 44.9901 110.387 45.3182 109.009 45.3182ZM109.009 43.2102C110.056 43.2102 110.918 42.9418 111.594 42.4048C112.27 41.8679 112.77 41.1619 113.095 40.2869C113.42 39.4119 113.582 38.464 113.582 37.4432C113.582 36.4223 113.42 35.4711 113.095 34.5895C112.77 33.7079 112.27 32.9953 111.594 32.4517C110.918 31.9081 110.056 31.6364 109.009 31.6364C107.961 31.6364 107.099 31.9081 106.423 32.4517C105.747 32.9953 105.247 33.7079 104.922 34.5895C104.597 35.4711 104.435 36.4223 104.435 37.4432C104.435 38.464 104.597 39.4119 104.922 40.2869C105.247 41.1619 105.747 41.8679 106.423 42.4048C107.099 42.9418 107.961 43.2102 109.009 43.2102ZM119.511 45V29.7273H121.778V32.0341H121.937C122.216 31.2784 122.719 30.6652 123.449 30.1946C124.178 29.724 125 29.4886 125.914 29.4886C126.087 29.4886 126.302 29.4919 126.561 29.4986C126.819 29.5052 127.015 29.5152 127.147 29.5284V31.9148C127.068 31.8949 126.886 31.8651 126.6 31.8253C126.322 31.7789 126.027 31.7557 125.716 31.7557C124.973 31.7557 124.31 31.9115 123.727 32.223C123.15 32.5279 122.693 32.9522 122.355 33.4957C122.023 34.0327 121.858 34.6458 121.858 35.3352V45H119.511ZM143.571 45.3182C142.298 45.3182 141.175 44.9967 140.2 44.3537C139.226 43.7041 138.464 42.7893 137.913 41.6094C137.363 40.4228 137.088 39.0208 137.088 37.4034C137.088 35.7992 137.363 34.4072 137.913 33.2273C138.464 32.0473 139.229 31.1359 140.21 30.4929C141.191 29.8499 142.325 29.5284 143.611 29.5284C144.605 29.5284 145.391 29.6941 145.967 30.0256C146.551 30.3504 146.995 30.7216 147.3 31.1392C147.611 31.5502 147.853 31.8883 148.026 32.1534H148.224V24.6364H150.571V45H148.304V42.6534H148.026C147.853 42.9318 147.608 43.2831 147.29 43.7074C146.972 44.125 146.518 44.4995 145.928 44.831C145.338 45.1558 144.552 45.3182 143.571 45.3182ZM143.889 43.2102C144.83 43.2102 145.626 42.965 146.276 42.4744C146.925 41.9773 147.419 41.2912 147.757 40.4162C148.095 39.5346 148.264 38.517 148.264 37.3636C148.264 36.2235 148.098 35.2259 147.767 34.3707C147.436 33.509 146.945 32.8395 146.295 32.3622C145.646 31.8783 144.844 31.6364 143.889 31.6364C142.895 31.6364 142.066 31.8916 141.403 32.402C140.747 32.9058 140.253 33.5919 139.922 34.4602C139.597 35.322 139.435 36.2898 139.435 37.3636C139.435 38.4508 139.6 39.4384 139.932 40.3267C140.27 41.2083 140.767 41.911 141.423 42.4347C142.086 42.9517 142.908 43.2102 143.889 43.2102ZM161.598 45.3182C160.126 45.3182 158.857 44.9934 157.79 44.3438C156.729 43.6875 155.911 42.7727 155.334 41.5994C154.764 40.4195 154.479 39.0473 154.479 37.483C154.479 35.9186 154.764 34.5398 155.334 33.3466C155.911 32.1468 156.713 31.2121 157.74 30.5426C158.774 29.8665 159.981 29.5284 161.359 29.5284C162.155 29.5284 162.94 29.661 163.716 29.9261C164.491 30.1913 165.197 30.6222 165.834 31.2188C166.47 31.8087 166.977 32.5909 167.355 33.5653C167.733 34.5398 167.922 35.7396 167.922 37.1648V38.1591H156.149V36.1307H165.536C165.536 35.2689 165.363 34.5 165.018 33.8239C164.68 33.1477 164.196 32.6141 163.567 32.223C162.944 31.8319 162.208 31.6364 161.359 31.6364C160.425 31.6364 159.616 31.8684 158.933 32.3324C158.257 32.7898 157.737 33.3864 157.372 34.1222C157.008 34.858 156.825 35.6468 156.825 36.4886V37.8409C156.825 38.9943 157.024 39.9721 157.422 40.7741C157.826 41.5696 158.386 42.1761 159.102 42.5938C159.818 43.0047 160.65 43.2102 161.598 43.2102C162.214 43.2102 162.771 43.1241 163.268 42.9517C163.772 42.7727 164.206 42.5076 164.571 42.1562C164.936 41.7983 165.217 41.3542 165.416 40.8239L167.683 41.4602C167.445 42.2292 167.044 42.9053 166.48 43.4886C165.917 44.0653 165.221 44.5161 164.392 44.8409C163.563 45.1591 162.632 45.3182 161.598 45.3182ZM185.134 45.3182C183.861 45.3182 182.737 44.9967 181.763 44.3537C180.788 43.7041 180.026 42.7893 179.476 41.6094C178.926 40.4228 178.651 39.0208 178.651 37.4034C178.651 35.7992 178.926 34.4072 179.476 33.2273C180.026 32.0473 180.792 31.1359 181.773 30.4929C182.754 29.8499 183.887 29.5284 185.173 29.5284C186.168 29.5284 186.953 29.6941 187.53 30.0256C188.113 30.3504 188.557 30.7216 188.862 31.1392C189.174 31.5502 189.416 31.8883 189.588 32.1534H189.787V24.6364H192.134V45H189.866V42.6534H189.588C189.416 42.9318 189.17 43.2831 188.852 43.7074C188.534 44.125 188.08 44.4995 187.49 44.831C186.9 45.1558 186.115 45.3182 185.134 45.3182ZM185.452 43.2102C186.393 43.2102 187.188 42.965 187.838 42.4744C188.488 41.9773 188.982 41.2912 189.32 40.4162C189.658 39.5346 189.827 38.517 189.827 37.3636C189.827 36.2235 189.661 35.2259 189.33 34.3707C188.998 33.509 188.508 32.8395 187.858 32.3622C187.208 31.8783 186.406 31.6364 185.452 31.6364C184.457 31.6364 183.629 31.8916 182.966 32.402C182.31 32.9058 181.816 33.5919 181.484 34.4602C181.16 35.322 180.997 36.2898 180.997 37.3636C180.997 38.4508 181.163 39.4384 181.494 40.3267C181.832 41.2083 182.33 41.911 182.986 42.4347C183.649 42.9517 184.471 43.2102 185.452 43.2102ZM203.161 45.3182C201.689 45.3182 200.42 44.9934 199.352 44.3438C198.292 43.6875 197.473 42.7727 196.896 41.5994C196.326 40.4195 196.041 39.0473 196.041 37.483C196.041 35.9186 196.326 34.5398 196.896 33.3466C197.473 32.1468 198.275 31.2121 199.303 30.5426C200.337 29.8665 201.543 29.5284 202.922 29.5284C203.717 29.5284 204.503 29.661 205.278 29.9261C206.054 30.1913 206.76 30.6222 207.396 31.2188C208.033 31.8087 208.54 32.5909 208.918 33.5653C209.295 34.5398 209.484 35.7396 209.484 37.1648V38.1591H197.712V36.1307H207.098C207.098 35.2689 206.926 34.5 206.581 33.8239C206.243 33.1477 205.759 32.6141 205.129 32.223C204.506 31.8319 203.77 31.6364 202.922 31.6364C201.987 31.6364 201.179 31.8684 200.496 32.3324C199.82 32.7898 199.299 33.3864 198.935 34.1222C198.57 34.858 198.388 35.6468 198.388 36.4886V37.8409C198.388 38.9943 198.587 39.9721 198.984 40.7741C199.389 41.5696 199.949 42.1761 200.665 42.5938C201.381 43.0047 202.213 43.2102 203.161 43.2102C203.777 43.2102 204.334 43.1241 204.831 42.9517C205.335 42.7727 205.769 42.5076 206.134 42.1562C206.498 41.7983 206.78 41.3542 206.979 40.8239L209.246 41.4602C209.007 42.2292 208.606 42.9053 208.043 43.4886C207.479 44.0653 206.783 44.5161 205.955 44.8409C205.126 45.1591 204.195 45.3182 203.161 45.3182ZM223.872 33.1477L221.764 33.7443C221.632 33.393 221.436 33.0516 221.178 32.7202C220.926 32.3821 220.581 32.1037 220.143 31.8849C219.706 31.6662 219.146 31.5568 218.463 31.5568C217.528 31.5568 216.75 31.7723 216.126 32.2031C215.51 32.6274 215.202 33.1676 215.202 33.8239C215.202 34.4072 215.414 34.8679 215.838 35.206C216.262 35.544 216.925 35.8258 217.827 36.0511L220.094 36.608C221.459 36.9394 222.477 37.4465 223.146 38.1293C223.816 38.8054 224.151 39.6771 224.151 40.7443C224.151 41.6193 223.899 42.4015 223.395 43.0909C222.898 43.7803 222.202 44.3239 221.307 44.7216C220.412 45.1193 219.371 45.3182 218.185 45.3182C216.627 45.3182 215.338 44.9801 214.317 44.304C213.296 43.6278 212.65 42.6402 212.378 41.3409L214.605 40.7841C214.817 41.6061 215.218 42.2225 215.808 42.6335C216.405 43.0445 217.184 43.25 218.145 43.25C219.239 43.25 220.107 43.018 220.75 42.554C221.4 42.0833 221.724 41.5199 221.724 40.8636C221.724 40.3333 221.539 39.8892 221.168 39.5312C220.796 39.1667 220.226 38.8949 219.457 38.7159L216.912 38.1193C215.513 37.7879 214.486 37.2741 213.83 36.5781C213.18 35.8755 212.855 34.9972 212.855 33.9432C212.855 33.0814 213.097 32.3191 213.581 31.6562C214.071 30.9934 214.738 30.473 215.58 30.0952C216.428 29.7173 217.389 29.5284 218.463 29.5284C219.974 29.5284 221.161 29.8598 222.023 30.5227C222.891 31.1856 223.508 32.0606 223.872 33.1477ZM232.177 45.358C231.209 45.358 230.331 45.1757 229.542 44.8111C228.753 44.4399 228.127 43.9062 227.663 43.2102C227.199 42.5076 226.967 41.6591 226.967 40.6648C226.967 39.7898 227.139 39.0805 227.484 38.5369C227.829 37.9867 228.289 37.5559 228.866 37.2443C229.443 36.9328 230.079 36.7008 230.775 36.5483C231.478 36.3892 232.184 36.2633 232.893 36.1705C233.821 36.0511 234.574 35.9616 235.15 35.902C235.734 35.8357 236.158 35.7263 236.423 35.5739C236.695 35.4214 236.831 35.1562 236.831 34.7784V34.6989C236.831 33.7178 236.562 32.9555 236.025 32.4119C235.495 31.8684 234.69 31.5966 233.609 31.5966C232.489 31.5966 231.61 31.8419 230.974 32.3324C230.338 32.8229 229.89 33.3466 229.632 33.9034L227.404 33.108C227.802 32.1799 228.333 31.4574 228.995 30.9403C229.665 30.4167 230.394 30.0521 231.183 29.8466C231.978 29.6345 232.761 29.5284 233.529 29.5284C234.02 29.5284 234.583 29.5881 235.22 29.7074C235.863 29.8201 236.483 30.0554 237.079 30.4134C237.682 30.7713 238.183 31.3116 238.581 32.0341C238.978 32.7566 239.177 33.7244 239.177 34.9375V45H236.831V42.9318H236.711C236.552 43.2633 236.287 43.6179 235.916 43.9957C235.545 44.3736 235.051 44.6951 234.434 44.9602C233.818 45.2254 233.065 45.358 232.177 45.358ZM232.535 43.25C233.463 43.25 234.245 43.0677 234.882 42.7031C235.525 42.3385 236.009 41.8679 236.333 41.2912C236.665 40.7145 236.831 40.108 236.831 39.4716V37.3239C236.731 37.4432 236.512 37.5526 236.174 37.652C235.843 37.7448 235.458 37.8277 235.021 37.9006C234.59 37.9669 234.169 38.0265 233.758 38.0795C233.354 38.1259 233.026 38.1657 232.774 38.1989C232.164 38.2784 231.594 38.4077 231.064 38.5866C230.54 38.759 230.116 39.0208 229.791 39.3722C229.473 39.7169 229.314 40.1875 229.314 40.7841C229.314 41.5994 229.615 42.2159 230.218 42.6335C230.828 43.0445 231.6 43.25 232.535 43.25ZM243.46 45V29.7273H245.727V32.0341H245.886C246.165 31.2784 246.669 30.6652 247.398 30.1946C248.127 29.724 248.949 29.4886 249.864 29.4886C250.036 29.4886 250.251 29.4919 250.51 29.4986C250.768 29.5052 250.964 29.5152 251.097 29.5284V31.9148C251.017 31.8949 250.835 31.8651 250.55 31.8253C250.271 31.7789 249.976 31.7557 249.665 31.7557C248.922 31.7557 248.259 31.9115 247.676 32.223C247.099 32.5279 246.642 32.9522 246.304 33.4957C245.973 34.0327 245.807 34.6458 245.807 35.3352V45H243.46ZM253.878 45V29.7273H256.145V32.0341H256.304C256.583 31.2784 257.087 30.6652 257.816 30.1946C258.545 29.724 259.367 29.4886 260.282 29.4886C260.454 29.4886 260.669 29.4919 260.928 29.4986C261.186 29.5052 261.382 29.5152 261.515 29.5284V31.9148C261.435 31.8949 261.253 31.8651 260.968 31.8253C260.689 31.7789 260.394 31.7557 260.083 31.7557C259.34 31.7557 258.677 31.9115 258.094 32.223C257.517 32.5279 257.06 32.9522 256.722 33.4957C256.391 34.0327 256.225 34.6458 256.225 35.3352V45H253.878ZM270.036 45.3182C268.657 45.3182 267.447 44.9901 266.407 44.3338C265.373 43.6776 264.564 42.7595 263.98 41.5795C263.404 40.3996 263.115 39.0208 263.115 37.4432C263.115 35.8523 263.404 34.4635 263.98 33.277C264.564 32.0904 265.373 31.169 266.407 30.5128C267.447 29.8565 268.657 29.5284 270.036 29.5284C271.415 29.5284 272.621 29.8565 273.655 30.5128C274.696 31.169 275.505 32.0904 276.081 33.277C276.665 34.4635 276.956 35.8523 276.956 37.4432C276.956 39.0208 276.665 40.3996 276.081 41.5795C275.505 42.7595 274.696 43.6776 273.655 44.3338C272.621 44.9901 271.415 45.3182 270.036 45.3182ZM270.036 43.2102C271.083 43.2102 271.945 42.9418 272.621 42.4048C273.297 41.8679 273.798 41.1619 274.123 40.2869C274.447 39.4119 274.61 38.464 274.61 37.4432C274.61 36.4223 274.447 35.4711 274.123 34.5895C273.798 33.7079 273.297 32.9953 272.621 32.4517C271.945 31.9081 271.083 31.6364 270.036 31.6364C268.989 31.6364 268.127 31.9081 267.451 32.4517C266.775 32.9953 266.274 33.7079 265.949 34.5895C265.624 35.4711 265.462 36.4223 265.462 37.4432C265.462 38.464 265.624 39.4119 265.949 40.2869C266.274 41.1619 266.775 41.8679 267.451 42.4048C268.127 42.9418 268.989 43.2102 270.036 43.2102ZM282.885 24.6364V45H280.538V24.6364H282.885ZM289.529 24.6364V45H287.183V24.6364H289.529ZM300.032 45.3182C298.653 45.3182 297.443 44.9901 296.403 44.3338C295.369 43.6776 294.56 42.7595 293.977 41.5795C293.4 40.3996 293.112 39.0208 293.112 37.4432C293.112 35.8523 293.4 34.4635 293.977 33.277C294.56 32.0904 295.369 31.169 296.403 30.5128C297.443 29.8565 298.653 29.5284 300.032 29.5284C301.411 29.5284 302.617 29.8565 303.651 30.5128C304.692 31.169 305.501 32.0904 306.077 33.277C306.661 34.4635 306.952 35.8523 306.952 37.4432C306.952 39.0208 306.661 40.3996 306.077 41.5795C305.501 42.7595 304.692 43.6776 303.651 44.3338C302.617 44.9901 301.411 45.3182 300.032 45.3182ZM300.032 43.2102C301.079 43.2102 301.941 42.9418 302.617 42.4048C303.293 41.8679 303.794 41.1619 304.119 40.2869C304.443 39.4119 304.606 38.464 304.606 37.4432C304.606 36.4223 304.443 35.4711 304.119 34.5895C303.794 33.7079 303.293 32.9953 302.617 32.4517C301.941 31.9081 301.079 31.6364 300.032 31.6364C298.985 31.6364 298.123 31.9081 297.447 32.4517C296.771 32.9953 296.27 33.7079 295.945 34.5895C295.621 35.4711 295.458 36.4223 295.458 37.4432C295.458 38.464 295.621 39.4119 295.945 40.2869C296.27 41.1619 296.771 41.8679 297.447 42.4048C298.123 42.9418 298.985 43.2102 300.032 43.2102ZM318.728 45V24.6364H321.074V32.1534H321.273C321.445 31.8883 321.684 31.5502 321.989 31.1392C322.301 30.7216 322.745 30.3504 323.321 30.0256C323.905 29.6941 324.694 29.5284 325.688 29.5284C326.974 29.5284 328.107 29.8499 329.088 30.4929C330.069 31.1359 330.835 32.0473 331.385 33.2273C331.935 34.4072 332.211 35.7992 332.211 37.4034C332.211 39.0208 331.935 40.4228 331.385 41.6094C330.835 42.7893 330.073 43.7041 329.098 44.3537C328.124 44.9967 327 45.3182 325.728 45.3182C324.747 45.3182 323.961 45.1558 323.371 44.831C322.781 44.4995 322.327 44.125 322.009 43.7074C321.691 43.2831 321.445 42.9318 321.273 42.6534H320.995V45H318.728ZM321.034 37.3636C321.034 38.517 321.203 39.5346 321.542 40.4162C321.88 41.2912 322.373 41.9773 323.023 42.4744C323.673 42.965 324.468 43.2102 325.409 43.2102C326.391 43.2102 327.209 42.9517 327.865 42.4347C328.528 41.911 329.025 41.2083 329.357 40.3267C329.695 39.4384 329.864 38.4508 329.864 37.3636C329.864 36.2898 329.698 35.322 329.367 34.4602C329.042 33.5919 328.548 32.9058 327.885 32.402C327.229 31.8916 326.404 31.6364 325.409 31.6364C324.455 31.6364 323.653 31.8783 323.003 32.3622C322.354 32.8395 321.863 33.509 321.532 34.3707C321.2 35.2259 321.034 36.2235 321.034 37.3636ZM340.294 45.358C339.327 45.358 338.448 45.1757 337.659 44.8111C336.871 44.4399 336.244 43.9062 335.78 43.2102C335.316 42.5076 335.084 41.6591 335.084 40.6648C335.084 39.7898 335.257 39.0805 335.601 38.5369C335.946 37.9867 336.407 37.5559 336.983 37.2443C337.56 36.9328 338.196 36.7008 338.892 36.5483C339.595 36.3892 340.301 36.2633 341.01 36.1705C341.938 36.0511 342.691 35.9616 343.267 35.902C343.851 35.8357 344.275 35.7263 344.54 35.5739C344.812 35.4214 344.948 35.1562 344.948 34.7784V34.6989C344.948 33.7178 344.679 32.9555 344.142 32.4119C343.612 31.8684 342.807 31.5966 341.726 31.5966C340.606 31.5966 339.728 31.8419 339.091 32.3324C338.455 32.8229 338.007 33.3466 337.749 33.9034L335.522 33.108C335.919 32.1799 336.45 31.4574 337.113 30.9403C337.782 30.4167 338.511 30.0521 339.3 29.8466C340.096 29.6345 340.878 29.5284 341.647 29.5284C342.137 29.5284 342.701 29.5881 343.337 29.7074C343.98 29.8201 344.6 30.0554 345.196 30.4134C345.8 30.7713 346.3 31.3116 346.698 32.0341C347.096 32.7566 347.294 33.7244 347.294 34.9375V45H344.948V42.9318H344.828C344.669 43.2633 344.404 43.6179 344.033 43.9957C343.662 44.3736 343.168 44.6951 342.551 44.9602C341.935 45.2254 341.183 45.358 340.294 45.358ZM340.652 43.25C341.58 43.25 342.363 43.0677 342.999 42.7031C343.642 42.3385 344.126 41.8679 344.451 41.2912C344.782 40.7145 344.948 40.108 344.948 39.4716V37.3239C344.848 37.4432 344.63 37.5526 344.292 37.652C343.96 37.7448 343.576 37.8277 343.138 37.9006C342.707 37.9669 342.286 38.0265 341.875 38.0795C341.471 38.1259 341.143 38.1657 340.891 38.1989C340.281 38.2784 339.711 38.4077 339.181 38.5866C338.657 38.759 338.233 39.0208 337.908 39.3722C337.59 39.7169 337.431 40.1875 337.431 40.7841C337.431 41.5994 337.732 42.2159 338.336 42.6335C338.945 43.0445 339.718 43.25 340.652 43.25ZM362.396 33.1477L360.288 33.7443C360.155 33.393 359.96 33.0516 359.701 32.7202C359.449 32.3821 359.104 32.1037 358.667 31.8849C358.229 31.6662 357.669 31.5568 356.987 31.5568C356.052 31.5568 355.273 31.7723 354.65 32.2031C354.033 32.6274 353.725 33.1676 353.725 33.8239C353.725 34.4072 353.937 34.8679 354.362 35.206C354.786 35.544 355.449 35.8258 356.35 36.0511L358.617 36.608C359.983 36.9394 361 37.4465 361.67 38.1293C362.339 38.8054 362.674 39.6771 362.674 40.7443C362.674 41.6193 362.422 42.4015 361.918 43.0909C361.421 43.7803 360.725 44.3239 359.83 44.7216C358.935 45.1193 357.895 45.3182 356.708 45.3182C355.15 45.3182 353.861 44.9801 352.84 44.304C351.819 43.6278 351.173 42.6402 350.901 41.3409L353.129 40.7841C353.341 41.6061 353.742 42.2225 354.332 42.6335C354.928 43.0445 355.707 43.25 356.668 43.25C357.762 43.25 358.63 43.018 359.273 42.554C359.923 42.0833 360.248 41.5199 360.248 40.8636C360.248 40.3333 360.062 39.8892 359.691 39.5312C359.32 39.1667 358.75 38.8949 357.981 38.7159L355.435 38.1193C354.037 37.7879 353.009 37.2741 352.353 36.5781C351.703 35.8755 351.379 34.9972 351.379 33.9432C351.379 33.0814 351.621 32.3191 352.104 31.6562C352.595 30.9934 353.261 30.473 354.103 30.0952C354.951 29.7173 355.913 29.5284 356.987 29.5284C358.498 29.5284 359.684 29.8598 360.546 30.5227C361.415 31.1856 362.031 32.0606 362.396 33.1477ZM370.701 45.358C369.733 45.358 368.855 45.1757 368.066 44.8111C367.277 44.4399 366.65 43.9062 366.186 43.2102C365.722 42.5076 365.49 41.6591 365.49 40.6648C365.49 39.7898 365.663 39.0805 366.007 38.5369C366.352 37.9867 366.813 37.5559 367.39 37.2443C367.966 36.9328 368.603 36.7008 369.299 36.5483C370.001 36.3892 370.707 36.2633 371.417 36.1705C372.345 36.0511 373.097 35.9616 373.674 35.902C374.257 35.8357 374.681 35.7263 374.946 35.5739C375.218 35.4214 375.354 35.1562 375.354 34.7784V34.6989C375.354 33.7178 375.086 32.9555 374.549 32.4119C374.018 31.8684 373.213 31.5966 372.132 31.5966C371.012 31.5966 370.134 31.8419 369.498 32.3324C368.861 32.8229 368.414 33.3466 368.155 33.9034L365.928 33.108C366.326 32.1799 366.856 31.4574 367.519 30.9403C368.188 30.4167 368.917 30.0521 369.706 29.8466C370.502 29.6345 371.284 29.5284 372.053 29.5284C372.543 29.5284 373.107 29.5881 373.743 29.7074C374.386 29.8201 375.006 30.0554 375.603 30.4134C376.206 30.7713 376.706 31.3116 377.104 32.0341C377.502 32.7566 377.701 33.7244 377.701 34.9375V45H375.354V42.9318H375.235C375.076 43.2633 374.81 43.6179 374.439 43.9957C374.068 44.3736 373.574 44.6951 372.958 44.9602C372.341 45.2254 371.589 45.358 370.701 45.358ZM371.059 43.25C371.987 43.25 372.769 43.0677 373.405 42.7031C374.048 42.3385 374.532 41.8679 374.857 41.2912C375.188 40.7145 375.354 40.108 375.354 39.4716V37.3239C375.255 37.4432 375.036 37.5526 374.698 37.652C374.366 37.7448 373.982 37.8277 373.544 37.9006C373.114 37.9669 372.693 38.0265 372.282 38.0795C371.877 38.1259 371.549 38.1657 371.297 38.1989C370.687 38.2784 370.117 38.4077 369.587 38.5866C369.063 38.759 368.639 39.0208 368.314 39.3722C367.996 39.7169 367.837 40.1875 367.837 40.7841C367.837 41.5994 368.139 42.2159 368.742 42.6335C369.352 43.0445 370.124 43.25 371.059 43.25ZM387.751 45.3182C386.478 45.3182 385.354 44.9967 384.38 44.3537C383.406 43.7041 382.643 42.7893 382.093 41.6094C381.543 40.4228 381.268 39.0208 381.268 37.4034C381.268 35.7992 381.543 34.4072 382.093 33.2273C382.643 32.0473 383.409 31.1359 384.39 30.4929C385.371 29.8499 386.504 29.5284 387.79 29.5284C388.785 29.5284 389.57 29.6941 390.147 30.0256C390.73 30.3504 391.174 30.7216 391.479 31.1392C391.791 31.5502 392.033 31.8883 392.205 32.1534H392.404V24.6364H394.751V45H392.484V42.6534H392.205C392.033 42.9318 391.788 43.2831 391.469 43.7074C391.151 44.125 390.697 44.4995 390.107 44.831C389.517 45.1558 388.732 45.3182 387.751 45.3182ZM388.069 43.2102C389.01 43.2102 389.806 42.965 390.455 42.4744C391.105 41.9773 391.599 41.2912 391.937 40.4162C392.275 39.5346 392.444 38.517 392.444 37.3636C392.444 36.2235 392.278 35.2259 391.947 34.3707C391.615 33.509 391.125 32.8395 390.475 32.3622C389.826 31.8783 389.023 31.6364 388.069 31.6364C387.075 31.6364 386.246 31.8916 385.583 32.402C384.927 32.9058 384.433 33.5919 384.102 34.4602C383.777 35.322 383.614 36.2898 383.614 37.3636C383.614 38.4508 383.78 39.4384 384.112 40.3267C384.45 41.2083 384.947 41.911 385.603 42.4347C386.266 42.9517 387.088 43.2102 388.069 43.2102ZM405.579 45.3182C404.2 45.3182 402.99 44.9901 401.95 44.3338C400.915 43.6776 400.107 42.7595 399.523 41.5795C398.947 40.3996 398.658 39.0208 398.658 37.4432C398.658 35.8523 398.947 34.4635 399.523 33.277C400.107 32.0904 400.915 31.169 401.95 30.5128C402.99 29.8565 404.2 29.5284 405.579 29.5284C406.958 29.5284 408.164 29.8565 409.198 30.5128C410.239 31.169 411.048 32.0904 411.624 33.277C412.208 34.4635 412.499 35.8523 412.499 37.4432C412.499 39.0208 412.208 40.3996 411.624 41.5795C411.048 42.7595 410.239 43.6776 409.198 44.3338C408.164 44.9901 406.958 45.3182 405.579 45.3182ZM405.579 43.2102C406.626 43.2102 407.488 42.9418 408.164 42.4048C408.84 41.8679 409.341 41.1619 409.665 40.2869C409.99 39.4119 410.153 38.464 410.153 37.4432C410.153 36.4223 409.99 35.4711 409.665 34.5895C409.341 33.7079 408.84 32.9953 408.164 32.4517C407.488 31.9081 406.626 31.6364 405.579 31.6364C404.531 31.6364 403.67 31.9081 402.994 32.4517C402.317 32.9953 401.817 33.7079 401.492 34.5895C401.167 35.4711 401.005 36.4223 401.005 37.4432C401.005 38.464 401.167 39.4119 401.492 40.2869C401.817 41.1619 402.317 41.8679 402.994 42.4048C403.67 42.9418 404.531 43.2102 405.579 43.2102ZM430.36 45.3182C428.888 45.3182 427.619 44.9934 426.551 44.3438C425.491 43.6875 424.672 42.7727 424.096 41.5994C423.525 40.4195 423.24 39.0473 423.24 37.483C423.24 35.9186 423.525 34.5398 424.096 33.3466C424.672 32.1468 425.474 31.2121 426.502 30.5426C427.536 29.8665 428.742 29.5284 430.121 29.5284C430.917 29.5284 431.702 29.661 432.478 29.9261C433.253 30.1913 433.959 30.6222 434.596 31.2188C435.232 31.8087 435.739 32.5909 436.117 33.5653C436.495 34.5398 436.684 35.7396 436.684 37.1648V38.1591H424.911V36.1307H434.297C434.297 35.2689 434.125 34.5 433.78 33.8239C433.442 33.1477 432.958 32.6141 432.328 32.223C431.705 31.8319 430.97 31.6364 430.121 31.6364C429.186 31.6364 428.378 31.8684 427.695 32.3324C427.019 32.7898 426.498 33.3864 426.134 34.1222C425.769 34.858 425.587 35.6468 425.587 36.4886V37.8409C425.587 38.9943 425.786 39.9721 426.184 40.7741C426.588 41.5696 427.148 42.1761 427.864 42.5938C428.58 43.0047 429.412 43.2102 430.36 43.2102C430.976 43.2102 431.533 43.1241 432.03 42.9517C432.534 42.7727 432.968 42.5076 433.333 42.1562C433.697 41.7983 433.979 41.3542 434.178 40.8239L436.445 41.4602C436.206 42.2292 435.805 42.9053 435.242 43.4886C434.678 44.0653 433.982 44.5161 433.154 44.8409C432.325 45.1591 431.394 45.3182 430.36 45.3182ZM442.6 35.8125V45H440.253V29.7273H442.52V32.1136H442.719C443.077 31.3381 443.621 30.715 444.35 30.2443C445.079 29.767 446.02 29.5284 447.174 29.5284C448.208 29.5284 449.113 29.7405 449.888 30.1648C450.664 30.5824 451.267 31.2188 451.698 32.0739C452.129 32.9223 452.344 33.9962 452.344 35.2955V45H449.998V35.4545C449.998 34.2547 449.686 33.3201 449.063 32.6506C448.44 31.9744 447.585 31.6364 446.498 31.6364C445.748 31.6364 445.079 31.7988 444.489 32.1236C443.906 32.4484 443.445 32.9223 443.107 33.5455C442.769 34.1686 442.6 34.9242 442.6 35.8125ZM470.911 45.3182C469.439 45.3182 468.17 44.9934 467.102 44.3438C466.042 43.6875 465.223 42.7727 464.646 41.5994C464.076 40.4195 463.791 39.0473 463.791 37.483C463.791 35.9186 464.076 34.5398 464.646 33.3466C465.223 32.1468 466.025 31.2121 467.053 30.5426C468.087 29.8665 469.293 29.5284 470.672 29.5284C471.467 29.5284 472.253 29.661 473.028 29.9261C473.804 30.1913 474.51 30.6222 475.146 31.2188C475.783 31.8087 476.29 32.5909 476.668 33.5653C477.045 34.5398 477.234 35.7396 477.234 37.1648V38.1591H465.462V36.1307H474.848C474.848 35.2689 474.676 34.5 474.331 33.8239C473.993 33.1477 473.509 32.6141 472.879 32.223C472.256 31.8319 471.52 31.6364 470.672 31.6364C469.737 31.6364 468.929 31.8684 468.246 32.3324C467.57 32.7898 467.049 33.3864 466.685 34.1222C466.32 34.858 466.138 35.6468 466.138 36.4886V37.8409C466.138 38.9943 466.337 39.9721 466.734 40.7741C467.139 41.5696 467.699 42.1761 468.415 42.5938C469.131 43.0047 469.963 43.2102 470.911 43.2102C471.527 43.2102 472.084 43.1241 472.581 42.9517C473.085 42.7727 473.519 42.5076 473.884 42.1562C474.248 41.7983 474.53 41.3542 474.729 40.8239L476.996 41.4602C476.757 42.2292 476.356 42.9053 475.793 43.4886C475.229 44.0653 474.533 44.5161 473.705 44.8409C472.876 45.1591 471.945 45.3182 470.911 45.3182ZM480.804 45V29.7273H483.071V32.1136H483.27C483.588 31.2983 484.102 30.6652 484.811 30.2145C485.52 29.7571 486.372 29.5284 487.366 29.5284C488.374 29.5284 489.213 29.7571 489.882 30.2145C490.558 30.6652 491.085 31.2983 491.463 32.1136H491.622C492.013 31.3248 492.6 30.6984 493.382 30.2344C494.164 29.7637 495.102 29.5284 496.196 29.5284C497.562 29.5284 498.679 29.956 499.547 30.8111C500.415 31.6596 500.849 32.982 500.849 34.7784V45H498.503V34.7784C498.503 33.6515 498.195 32.8461 497.578 32.3622C496.962 31.8783 496.236 31.6364 495.401 31.6364C494.327 31.6364 493.495 31.9612 492.905 32.6108C492.315 33.2538 492.02 34.0691 492.02 35.0568V45H489.634V34.5398C489.634 33.6714 489.352 32.9721 488.788 32.4418C488.225 31.9048 487.499 31.6364 486.611 31.6364C486.001 31.6364 485.431 31.7988 484.901 32.1236C484.377 32.4484 483.953 32.8991 483.628 33.4759C483.31 34.0459 483.151 34.7055 483.151 35.4545V45H480.804ZM505.14 50.7273V29.7273H507.407V32.1534H507.685C507.858 31.8883 508.096 31.5502 508.401 31.1392C508.713 30.7216 509.157 30.3504 509.734 30.0256C510.317 29.6941 511.106 29.5284 512.1 29.5284C513.386 29.5284 514.52 29.8499 515.501 30.4929C516.482 31.1359 517.247 32.0473 517.798 33.2273C518.348 34.4072 518.623 35.7992 518.623 37.4034C518.623 39.0208 518.348 40.4228 517.798 41.6094C517.247 42.7893 516.485 43.7041 515.511 44.3537C514.536 44.9967 513.413 45.3182 512.14 45.3182C511.159 45.3182 510.373 45.1558 509.783 44.831C509.193 44.4995 508.739 44.125 508.421 43.7074C508.103 43.2831 507.858 42.9318 507.685 42.6534H507.487V50.7273H505.14ZM507.447 37.3636C507.447 38.517 507.616 39.5346 507.954 40.4162C508.292 41.2912 508.786 41.9773 509.435 42.4744C510.085 42.965 510.88 43.2102 511.822 43.2102C512.803 43.2102 513.621 42.9517 514.278 42.4347C514.941 41.911 515.438 41.2083 515.769 40.3267C516.107 39.4384 516.276 38.4508 516.276 37.3636C516.276 36.2898 516.111 35.322 515.779 34.4602C515.454 33.5919 514.96 32.9058 514.298 32.402C513.641 31.8916 512.816 31.6364 511.822 31.6364C510.867 31.6364 510.065 31.8783 509.415 32.3622C508.766 32.8395 508.275 33.509 507.944 34.3707C507.612 35.2259 507.447 36.2235 507.447 37.3636ZM526.697 45.358C525.729 45.358 524.851 45.1757 524.062 44.8111C523.273 44.4399 522.647 43.9062 522.183 43.2102C521.719 42.5076 521.487 41.6591 521.487 40.6648C521.487 39.7898 521.659 39.0805 522.004 38.5369C522.348 37.9867 522.809 37.5559 523.386 37.2443C523.962 36.9328 524.599 36.7008 525.295 36.5483C525.997 36.3892 526.703 36.2633 527.413 36.1705C528.341 36.0511 529.093 35.9616 529.67 35.902C530.253 35.8357 530.677 35.7263 530.942 35.5739C531.214 35.4214 531.35 35.1562 531.35 34.7784V34.6989C531.35 33.7178 531.082 32.9555 530.545 32.4119C530.014 31.8684 529.209 31.5966 528.129 31.5966C527.008 31.5966 526.13 31.8419 525.494 32.3324C524.857 32.8229 524.41 33.3466 524.151 33.9034L521.924 33.108C522.322 32.1799 522.852 31.4574 523.515 30.9403C524.184 30.4167 524.914 30.0521 525.702 29.8466C526.498 29.6345 527.28 29.5284 528.049 29.5284C528.54 29.5284 529.103 29.5881 529.739 29.7074C530.382 29.8201 531.002 30.0554 531.599 30.4134C532.202 30.7713 532.702 31.3116 533.1 32.0341C533.498 32.7566 533.697 33.7244 533.697 34.9375V45H531.35V42.9318H531.231C531.072 43.2633 530.807 43.6179 530.435 43.9957C530.064 44.3736 529.57 44.6951 528.954 44.9602C528.337 45.2254 527.585 45.358 526.697 45.358ZM527.055 43.25C527.983 43.25 528.765 43.0677 529.401 42.7031C530.044 42.3385 530.528 41.8679 530.853 41.2912C531.184 40.7145 531.35 40.108 531.35 39.4716V37.3239C531.251 37.4432 531.032 37.5526 530.694 37.652C530.362 37.7448 529.978 37.8277 529.54 37.9006C529.11 37.9669 528.689 38.0265 528.278 38.0795C527.873 38.1259 527.545 38.1657 527.293 38.1989C526.683 38.2784 526.113 38.4077 525.583 38.5866C525.059 38.759 524.635 39.0208 524.31 39.3722C523.992 39.7169 523.833 40.1875 523.833 40.7841C523.833 41.5994 524.135 42.2159 524.738 42.6335C525.348 43.0445 526.12 43.25 527.055 43.25ZM548.4 50.7273V42.6534H548.201C548.029 42.9318 547.784 43.2831 547.466 43.7074C547.147 44.125 546.693 44.4995 546.103 44.831C545.513 45.1558 544.728 45.3182 543.747 45.3182C542.474 45.3182 541.35 44.9967 540.376 44.3537C539.402 43.7041 538.639 42.7893 538.089 41.6094C537.539 40.4228 537.264 39.0208 537.264 37.4034C537.264 35.7992 537.539 34.4072 538.089 33.2273C538.639 32.0473 539.405 31.1359 540.386 30.4929C541.367 29.8499 542.501 29.5284 543.787 29.5284C544.781 29.5284 545.566 29.6941 546.143 30.0256C546.726 30.3504 547.171 30.7216 547.475 31.1392C547.787 31.5502 548.029 31.8883 548.201 32.1534H548.48V29.7273H550.747V50.7273H548.4ZM544.065 43.2102C545.006 43.2102 545.802 42.965 546.451 42.4744C547.101 41.9773 547.595 41.2912 547.933 40.4162C548.271 39.5346 548.44 38.517 548.44 37.3636C548.44 36.2235 548.274 35.2259 547.943 34.3707C547.611 33.509 547.121 32.8395 546.471 32.3622C545.822 31.8783 545.02 31.6364 544.065 31.6364C543.071 31.6364 542.242 31.8916 541.579 32.402C540.923 32.9058 540.429 33.5919 540.098 34.4602C539.773 35.322 539.61 36.2898 539.61 37.3636C539.61 38.4508 539.776 39.4384 540.108 40.3267C540.446 41.2083 540.943 41.911 541.599 42.4347C542.262 42.9517 543.084 43.2102 544.065 43.2102ZM564.667 38.7557V29.7273H567.014V45H564.667V42.4148H564.508C564.15 43.1903 563.593 43.8499 562.838 44.3935C562.082 44.9304 561.127 45.1989 559.974 45.1989C559.02 45.1989 558.171 44.9901 557.429 44.5724C556.686 44.1482 556.103 43.5118 555.679 42.6634C555.254 41.8082 555.042 40.7311 555.042 39.4318V29.7273H557.389V39.2727C557.389 40.3864 557.7 41.2746 558.324 41.9375C558.953 42.6004 559.755 42.9318 560.73 42.9318C561.313 42.9318 561.906 42.7827 562.51 42.4844C563.119 42.1861 563.63 41.7287 564.041 41.1122C564.458 40.4957 564.667 39.7102 564.667 38.7557ZM577.715 45.3182C576.244 45.3182 574.974 44.9934 573.907 44.3438C572.846 43.6875 572.028 42.7727 571.451 41.5994C570.881 40.4195 570.596 39.0473 570.596 37.483C570.596 35.9186 570.881 34.5398 571.451 33.3466C572.028 32.1468 572.83 31.2121 573.857 30.5426C574.891 29.8665 576.098 29.5284 577.477 29.5284C578.272 29.5284 579.058 29.661 579.833 29.9261C580.609 30.1913 581.315 30.6222 581.951 31.2188C582.587 31.8087 583.094 32.5909 583.472 33.5653C583.85 34.5398 584.039 35.7396 584.039 37.1648V38.1591H572.266V36.1307H581.653C581.653 35.2689 581.48 34.5 581.136 33.8239C580.798 33.1477 580.314 32.6141 579.684 32.223C579.061 31.8319 578.325 31.6364 577.477 31.6364C576.542 31.6364 575.733 31.8684 575.05 32.3324C574.374 32.7898 573.854 33.3864 573.489 34.1222C573.125 34.858 572.942 35.6468 572.942 36.4886V37.8409C572.942 38.9943 573.141 39.9721 573.539 40.7741C573.943 41.5696 574.504 42.1761 575.219 42.5938C575.935 43.0047 576.767 43.2102 577.715 43.2102C578.332 43.2102 578.888 43.1241 579.386 42.9517C579.889 42.7727 580.324 42.5076 580.688 42.1562C581.053 41.7983 581.335 41.3542 581.533 40.8239L583.8 41.4602C583.562 42.2292 583.161 42.9053 582.597 43.4886C582.034 44.0653 581.338 44.5161 580.509 44.8409C579.681 45.1591 578.749 45.3182 577.715 45.3182ZM594.251 29.7273V31.7159H586.336V29.7273H594.251ZM588.643 26.0682H590.989V40.625C590.989 41.2879 591.085 41.785 591.278 42.1165C591.477 42.4413 591.728 42.66 592.033 42.7727C592.345 42.8788 592.673 42.9318 593.018 42.9318C593.276 42.9318 593.488 42.9186 593.654 42.892C593.82 42.8589 593.952 42.8324 594.052 42.8125L594.529 44.9205C594.37 44.9801 594.148 45.0398 593.863 45.0994C593.578 45.1657 593.217 45.1989 592.779 45.1989C592.116 45.1989 591.467 45.0563 590.83 44.7713C590.201 44.4863 589.677 44.0521 589.259 43.4688C588.848 42.8854 588.643 42.1496 588.643 41.2614V26.0682ZM602.275 45.358C601.307 45.358 600.429 45.1757 599.64 44.8111C598.851 44.4399 598.225 43.9062 597.761 43.2102C597.297 42.5076 597.065 41.6591 597.065 40.6648C597.065 39.7898 597.237 39.0805 597.582 38.5369C597.926 37.9867 598.387 37.5559 598.964 37.2443C599.54 36.9328 600.177 36.7008 600.873 36.5483C601.576 36.3892 602.281 36.2633 602.991 36.1705C603.919 36.0511 604.671 35.9616 605.248 35.902C605.831 35.8357 606.255 35.7263 606.521 35.5739C606.792 35.4214 606.928 35.1562 606.928 34.7784V34.6989C606.928 33.7178 606.66 32.9555 606.123 32.4119C605.593 31.8684 604.787 31.5966 603.707 31.5966C602.586 31.5966 601.708 31.8419 601.072 32.3324C600.435 32.8229 599.988 33.3466 599.729 33.9034L597.502 33.108C597.9 32.1799 598.43 31.4574 599.093 30.9403C599.763 30.4167 600.492 30.0521 601.281 29.8466C602.076 29.6345 602.858 29.5284 603.627 29.5284C604.118 29.5284 604.681 29.5881 605.317 29.7074C605.96 29.8201 606.58 30.0554 607.177 30.4134C607.78 30.7713 608.281 31.3116 608.678 32.0341C609.076 32.7566 609.275 33.7244 609.275 34.9375V45H606.928V42.9318H606.809C606.65 43.2633 606.385 43.6179 606.013 43.9957C605.642 44.3736 605.148 44.6951 604.532 44.9602C603.915 45.2254 603.163 45.358 602.275 45.358ZM602.633 43.25C603.561 43.25 604.343 43.0677 604.979 42.7031C605.622 42.3385 606.106 41.8679 606.431 41.2912C606.763 40.7145 606.928 40.108 606.928 39.4716V37.3239C606.829 37.4432 606.61 37.5526 606.272 37.652C605.941 37.7448 605.556 37.8277 605.119 37.9006C604.688 37.9669 604.267 38.0265 603.856 38.0795C603.451 38.1259 603.123 38.1657 602.871 38.1989C602.262 38.2784 601.692 38.4077 601.161 38.5866C600.638 38.759 600.213 39.0208 599.888 39.3722C599.57 39.7169 599.411 40.1875 599.411 40.7841C599.411 41.5994 599.713 42.2159 600.316 42.6335C600.926 43.0445 601.698 43.25 602.633 43.25ZM619.325 45.3182C618.052 45.3182 616.929 44.9967 615.954 44.3537C614.98 43.7041 614.217 42.7893 613.667 41.6094C613.117 40.4228 612.842 39.0208 612.842 37.4034C612.842 35.7992 613.117 34.4072 613.667 33.2273C614.217 32.0473 614.983 31.1359 615.964 30.4929C616.945 29.8499 618.079 29.5284 619.365 29.5284C620.359 29.5284 621.145 29.6941 621.721 30.0256C622.305 30.3504 622.749 30.7216 623.054 31.1392C623.365 31.5502 623.607 31.8883 623.779 32.1534H623.978V24.6364H626.325V45H624.058V42.6534H623.779C623.607 42.9318 623.362 43.2831 623.044 43.7074C622.725 44.125 622.271 44.4995 621.681 44.831C621.092 45.1558 620.306 45.3182 619.325 45.3182ZM619.643 43.2102C620.584 43.2102 621.38 42.965 622.029 42.4744C622.679 41.9773 623.173 41.2912 623.511 40.4162C623.849 39.5346 624.018 38.517 624.018 37.3636C624.018 36.2235 623.852 35.2259 623.521 34.3707C623.19 33.509 622.699 32.8395 622.049 32.3622C621.4 31.8783 620.598 31.6364 619.643 31.6364C618.649 31.6364 617.82 31.8916 617.157 32.402C616.501 32.9058 616.007 33.5919 615.676 34.4602C615.351 35.322 615.189 36.2898 615.189 37.3636C615.189 38.4508 615.354 39.4384 615.686 40.3267C616.024 41.2083 616.521 41.911 617.177 42.4347C617.84 42.9517 618.662 43.2102 619.643 43.2102ZM637.153 45.3182C635.774 45.3182 634.565 44.9901 633.524 44.3338C632.49 43.6776 631.681 42.7595 631.098 41.5795C630.521 40.3996 630.233 39.0208 630.233 37.4432C630.233 35.8523 630.521 34.4635 631.098 33.277C631.681 32.0904 632.49 31.169 633.524 30.5128C634.565 29.8565 635.774 29.5284 637.153 29.5284C638.532 29.5284 639.738 29.8565 640.772 30.5128C641.813 31.169 642.622 32.0904 643.199 33.277C643.782 34.4635 644.074 35.8523 644.074 37.4432C644.074 39.0208 643.782 40.3996 643.199 41.5795C642.622 42.7595 641.813 43.6776 640.772 44.3338C639.738 44.9901 638.532 45.3182 637.153 45.3182ZM637.153 43.2102C638.2 43.2102 639.062 42.9418 639.738 42.4048C640.414 41.8679 640.915 41.1619 641.24 40.2869C641.565 39.4119 641.727 38.464 641.727 37.4432C641.727 36.4223 641.565 35.4711 641.24 34.5895C640.915 33.7079 640.414 32.9953 639.738 32.4517C639.062 31.9081 638.2 31.6364 637.153 31.6364C636.106 31.6364 635.244 31.9081 634.568 32.4517C633.892 32.9953 633.391 33.7079 633.066 34.5895C632.742 35.4711 632.579 36.4223 632.579 37.4432C632.579 38.464 632.742 39.4119 633.066 40.2869C633.391 41.1619 633.892 41.8679 634.568 42.4048C635.244 42.9418 636.106 43.2102 637.153 43.2102Z" fill="#FFAA3E"/>
<path d="M365.004 83.6835H51.4388C32.3698 83.6835 16.9114 99.0463 16.9114 117.997V317.927C16.9114 336.878 32.3698 352.241 51.4388 352.241H365.004C384.073 352.241 399.532 336.878 399.532 317.927V117.997C399.532 99.0463 384.073 83.6835 365.004 83.6835Z" stroke="#FFC36B" stroke-width="4"/>
<path d="M109.219 202.031H41.5739C39.6281 202.031 38.0507 203.598 38.0507 205.532V227.591C38.0507 229.525 39.6281 231.092 41.5739 231.092H109.219C111.165 231.092 112.743 229.525 112.743 227.591V205.532C112.743 203.598 111.165 202.031 109.219 202.031Z" fill="#C3E88C"/>
<path d="M45.0114 222V210.364H52.8523V212.392H47.4716V215.165H52.4489V217.193H47.4716V219.972H52.875V222H45.0114ZM57.1832 216.955V222H54.7628V213.273H57.0696V214.812H57.1719C57.3651 214.305 57.6889 213.903 58.1435 213.608C58.598 213.309 59.1491 213.159 59.7969 213.159C60.4029 213.159 60.9313 213.292 61.3821 213.557C61.8329 213.822 62.1832 214.201 62.4332 214.693C62.6832 215.182 62.8082 215.765 62.8082 216.443V222H60.3878V216.875C60.3916 216.341 60.2552 215.924 59.9787 215.625C59.7022 215.322 59.3215 215.17 58.8366 215.17C58.5109 215.17 58.223 215.241 57.973 215.381C57.7268 215.521 57.5336 215.725 57.3935 215.994C57.2571 216.259 57.187 216.58 57.1832 216.955ZM69.358 213.273V215.091H64.1023V213.273H69.358ZM65.2955 211.182H67.7159V219.318C67.7159 219.542 67.75 219.716 67.8182 219.841C67.8864 219.962 67.9811 220.047 68.1023 220.097C68.2273 220.146 68.3712 220.17 68.5341 220.17C68.6477 220.17 68.7614 220.161 68.875 220.142C68.9886 220.119 69.0758 220.102 69.1364 220.091L69.517 221.892C69.3958 221.93 69.2254 221.973 69.0057 222.023C68.786 222.076 68.5189 222.108 68.2045 222.119C67.6212 222.142 67.1098 222.064 66.6705 221.886C66.2348 221.708 65.8958 221.432 65.6534 221.057C65.411 220.682 65.2917 220.208 65.2955 219.636V211.182ZM70.9347 222V213.273H73.2812V214.795H73.3722C73.5313 214.254 73.7983 213.845 74.1733 213.568C74.5483 213.288 74.9801 213.148 75.4688 213.148C75.59 213.148 75.7206 213.155 75.8608 213.17C76.0009 213.186 76.1241 213.206 76.2301 213.233V215.381C76.1165 215.347 75.9593 215.316 75.7585 215.29C75.5578 215.263 75.3741 215.25 75.2074 215.25C74.8513 215.25 74.5331 215.328 74.2528 215.483C73.9763 215.634 73.7566 215.847 73.5938 216.119C73.4347 216.392 73.3551 216.706 73.3551 217.062V222H70.9347ZM79.7202 222.165C79.1634 222.165 78.6671 222.068 78.2315 221.875C77.7959 221.678 77.4512 221.388 77.1974 221.006C76.9474 220.619 76.8224 220.138 76.8224 219.562C76.8224 219.078 76.9115 218.67 77.0895 218.341C77.2675 218.011 77.5099 217.746 77.8168 217.545C78.1236 217.345 78.4721 217.193 78.8622 217.091C79.2562 216.989 79.669 216.917 80.1009 216.875C80.6084 216.822 81.0175 216.773 81.3281 216.727C81.6387 216.678 81.8641 216.606 82.0043 216.511C82.1444 216.417 82.2145 216.277 82.2145 216.091V216.057C82.2145 215.697 82.1009 215.419 81.8736 215.222C81.6501 215.025 81.3319 214.926 80.919 214.926C80.4834 214.926 80.1368 215.023 79.8793 215.216C79.6217 215.405 79.4512 215.644 79.3679 215.932L77.1293 215.75C77.2429 215.22 77.4664 214.761 77.7997 214.375C78.133 213.985 78.563 213.686 79.0895 213.477C79.6198 213.265 80.2334 213.159 80.9304 213.159C81.4152 213.159 81.8793 213.216 82.3224 213.33C82.7694 213.443 83.1652 213.619 83.5099 213.858C83.8584 214.097 84.133 214.403 84.3338 214.778C84.5346 215.15 84.6349 215.595 84.6349 216.114V222H82.3395V220.79H82.2713C82.1312 221.062 81.9437 221.303 81.7088 221.511C81.474 221.716 81.1918 221.877 80.8622 221.994C80.5327 222.108 80.152 222.165 79.7202 222.165ZM80.4134 220.494C80.7694 220.494 81.0838 220.424 81.3565 220.284C81.6293 220.14 81.8433 219.947 81.9986 219.705C82.1539 219.462 82.2315 219.187 82.2315 218.881V217.955C82.1558 218.004 82.0516 218.049 81.919 218.091C81.7902 218.129 81.6444 218.165 81.4815 218.199C81.3187 218.229 81.1558 218.258 80.9929 218.284C80.83 218.307 80.6823 218.328 80.5497 218.347C80.2656 218.388 80.0175 218.455 79.8054 218.545C79.5933 218.636 79.4285 218.759 79.3111 218.915C79.1937 219.066 79.1349 219.256 79.1349 219.483C79.1349 219.812 79.2543 220.064 79.4929 220.239C79.7353 220.409 80.0421 220.494 80.4134 220.494ZM89.7287 222.142C89.0658 222.142 88.4654 221.972 87.9276 221.631C87.3935 221.286 86.9692 220.78 86.6548 220.114C86.3442 219.443 86.1889 218.621 86.1889 217.648C86.1889 216.648 86.3499 215.816 86.6719 215.153C86.9938 214.487 87.4219 213.989 87.956 213.659C88.4938 213.326 89.0829 213.159 89.723 213.159C90.2116 213.159 90.6188 213.242 90.9446 213.409C91.2741 213.572 91.5393 213.777 91.7401 214.023C91.9446 214.265 92.0999 214.504 92.206 214.739H92.2798V210.364H94.6946V222H92.3082V220.602H92.206C92.0923 220.845 91.9313 221.085 91.723 221.324C91.5185 221.559 91.2514 221.754 90.9219 221.909C90.5961 222.064 90.1984 222.142 89.7287 222.142ZM90.4957 220.216C90.8859 220.216 91.2154 220.11 91.4844 219.898C91.7571 219.682 91.9654 219.381 92.1094 218.994C92.2571 218.608 92.331 218.155 92.331 217.636C92.331 217.117 92.259 216.667 92.1151 216.284C91.9711 215.902 91.7628 215.606 91.4901 215.398C91.2173 215.189 90.8859 215.085 90.4957 215.085C90.098 215.085 89.7628 215.193 89.4901 215.409C89.2173 215.625 89.0109 215.924 88.8707 216.307C88.7306 216.689 88.6605 217.133 88.6605 217.636C88.6605 218.144 88.7306 218.593 88.8707 218.983C89.0147 219.369 89.2211 219.672 89.4901 219.892C89.7628 220.108 90.098 220.216 90.4957 220.216ZM99.1733 222.165C98.6165 222.165 98.1203 222.068 97.6847 221.875C97.2491 221.678 96.9044 221.388 96.6506 221.006C96.4006 220.619 96.2756 220.138 96.2756 219.562C96.2756 219.078 96.3646 218.67 96.5426 218.341C96.7206 218.011 96.9631 217.746 97.2699 217.545C97.5767 217.345 97.9252 217.193 98.3153 217.091C98.7093 216.989 99.1222 216.917 99.554 216.875C100.062 216.822 100.471 216.773 100.781 216.727C101.092 216.678 101.317 216.606 101.457 216.511C101.598 216.417 101.668 216.277 101.668 216.091V216.057C101.668 215.697 101.554 215.419 101.327 215.222C101.103 215.025 100.785 214.926 100.372 214.926C99.9366 214.926 99.59 215.023 99.3324 215.216C99.0748 215.405 98.9044 215.644 98.821 215.932L96.5824 215.75C96.696 215.22 96.9195 214.761 97.2528 214.375C97.5862 213.985 98.0161 213.686 98.5426 213.477C99.0729 213.265 99.6866 213.159 100.384 213.159C100.868 213.159 101.332 213.216 101.776 213.33C102.223 213.443 102.618 213.619 102.963 213.858C103.312 214.097 103.586 214.403 103.787 214.778C103.988 215.15 104.088 215.595 104.088 216.114V222H101.793V220.79H101.724C101.584 221.062 101.397 221.303 101.162 221.511C100.927 221.716 100.645 221.877 100.315 221.994C99.9858 222.108 99.6051 222.165 99.1733 222.165ZM99.8665 220.494C100.223 220.494 100.537 220.424 100.81 220.284C101.082 220.14 101.296 219.947 101.452 219.705C101.607 219.462 101.685 219.187 101.685 218.881V217.955C101.609 218.004 101.505 218.049 101.372 218.091C101.243 218.129 101.098 218.165 100.935 218.199C100.772 218.229 100.609 218.258 100.446 218.284C100.283 218.307 100.135 218.328 100.003 218.347C99.7188 218.388 99.4706 218.455 99.2585 218.545C99.0464 218.636 98.8816 218.759 98.7642 218.915C98.6468 219.066 98.5881 219.256 98.5881 219.483C98.5881 219.812 98.7074 220.064 98.946 220.239C99.1884 220.409 99.4953 220.494 99.8665 220.494Z" fill="#15505C"/>
<path d="M238.873 249.3H171.228C169.282 249.3 167.705 250.867 167.705 252.801V276.611C167.705 278.544 169.282 280.112 171.228 280.112H238.873C240.819 280.112 242.397 278.544 242.397 276.611V252.801C242.397 250.867 240.819 249.3 238.873 249.3Z" fill="#4FC08D"/>
<path d="M238.873 153.361H171.228C169.282 153.361 167.705 154.929 167.705 156.863V180.672C167.705 182.606 169.282 184.174 171.228 184.174H238.873C240.819 184.174 242.397 182.606 242.397 180.672V156.863C242.397 154.929 240.819 153.361 238.873 153.361Z" fill="#4FC08D"/>
<path d="M187.011 174V162.364H191.602C192.481 162.364 193.231 162.521 193.852 162.835C194.477 163.146 194.953 163.587 195.278 164.159C195.608 164.727 195.773 165.396 195.773 166.165C195.773 166.937 195.606 167.602 195.273 168.159C194.939 168.712 194.456 169.136 193.824 169.432C193.195 169.727 192.434 169.875 191.54 169.875H188.466V167.898H191.142C191.612 167.898 192.002 167.833 192.312 167.705C192.623 167.576 192.854 167.383 193.006 167.125C193.161 166.867 193.239 166.547 193.239 166.165C193.239 165.778 193.161 165.453 193.006 165.188C192.854 164.922 192.621 164.722 192.307 164.585C191.996 164.445 191.604 164.375 191.131 164.375H189.472V174H187.011ZM193.295 168.705L196.188 174H193.472L190.642 168.705H193.295ZM203.062 170.284V165.273H205.483V174H203.159V172.415H203.068C202.871 172.926 202.544 173.337 202.085 173.648C201.631 173.958 201.076 174.114 200.42 174.114C199.837 174.114 199.324 173.981 198.881 173.716C198.438 173.451 198.091 173.074 197.841 172.585C197.595 172.097 197.47 171.511 197.466 170.83V165.273H199.886V170.398C199.89 170.913 200.028 171.32 200.301 171.619C200.574 171.919 200.939 172.068 201.398 172.068C201.689 172.068 201.962 172.002 202.216 171.869C202.47 171.733 202.674 171.532 202.83 171.267C202.989 171.002 203.066 170.674 203.062 170.284ZM212.061 165.273V167.091H206.805V165.273H212.061ZM207.999 163.182H210.419V171.318C210.419 171.542 210.453 171.716 210.521 171.841C210.589 171.962 210.684 172.047 210.805 172.097C210.93 172.146 211.074 172.17 211.237 172.17C211.351 172.17 211.464 172.161 211.578 172.142C211.692 172.119 211.779 172.102 211.839 172.091L212.22 173.892C212.099 173.93 211.929 173.973 211.709 174.023C211.489 174.076 211.222 174.108 210.908 174.119C210.324 174.142 209.813 174.064 209.374 173.886C208.938 173.708 208.599 173.432 208.357 173.057C208.114 172.682 207.995 172.208 207.999 171.636V163.182ZM216.126 174.165C215.57 174.165 215.073 174.068 214.638 173.875C214.202 173.678 213.857 173.388 213.604 173.006C213.354 172.619 213.229 172.138 213.229 171.562C213.229 171.078 213.318 170.67 213.496 170.341C213.674 170.011 213.916 169.746 214.223 169.545C214.53 169.345 214.878 169.193 215.268 169.091C215.662 168.989 216.075 168.917 216.507 168.875C217.015 168.822 217.424 168.773 217.734 168.727C218.045 168.678 218.27 168.606 218.411 168.511C218.551 168.417 218.621 168.277 218.621 168.091V168.057C218.621 167.697 218.507 167.419 218.28 167.222C218.056 167.025 217.738 166.926 217.325 166.926C216.89 166.926 216.543 167.023 216.286 167.216C216.028 167.405 215.857 167.644 215.774 167.932L213.536 167.75C213.649 167.22 213.873 166.761 214.206 166.375C214.539 165.985 214.969 165.686 215.496 165.477C216.026 165.265 216.64 165.159 217.337 165.159C217.821 165.159 218.286 165.216 218.729 165.33C219.176 165.443 219.571 165.619 219.916 165.858C220.265 166.097 220.539 166.403 220.74 166.778C220.941 167.15 221.041 167.595 221.041 168.114V174H218.746V172.79H218.678C218.537 173.062 218.35 173.303 218.115 173.511C217.88 173.716 217.598 173.877 217.268 173.994C216.939 174.108 216.558 174.165 216.126 174.165ZM216.82 172.494C217.176 172.494 217.49 172.424 217.763 172.284C218.036 172.14 218.25 171.947 218.405 171.705C218.56 171.462 218.638 171.187 218.638 170.881V169.955C218.562 170.004 218.458 170.049 218.325 170.091C218.196 170.129 218.051 170.165 217.888 170.199C217.725 170.229 217.562 170.258 217.399 170.284C217.236 170.307 217.089 170.328 216.956 170.347C216.672 170.388 216.424 170.455 216.212 170.545C216 170.636 215.835 170.759 215.717 170.915C215.6 171.066 215.541 171.256 215.541 171.483C215.541 171.812 215.661 172.064 215.899 172.239C216.142 172.409 216.448 172.494 216.82 172.494Z" fill="#15505C"/>
<path d="M237.816 201.681H170.171C168.225 201.681 166.648 203.248 166.648 205.182V228.992C166.648 230.925 168.225 232.493 170.171 232.493H237.816C239.762 232.493 241.34 230.925 241.34 228.992V205.182C241.34 203.248 239.762 201.681 237.816 201.681Z" fill="#4FC08D"/>
<path d="M166.512 168.662L154.604 171.32L162.874 180.24L166.512 168.662ZM114.357 217.85L160.232 175.841L158.8 174.296L112.924 216.305L114.357 217.85Z" fill="#E06666"/>
<path d="M165.238 217.087L154.669 211.022V223.152L165.238 217.087ZM113.8 218.137H155.726V216.036H113.8V218.137Z" fill="#E06666"/>
<path d="M166.512 264.743L162.783 253.193L154.583 262.177L166.512 264.743ZM112.93 217.856L158.756 259.169L160.176 257.613L114.351 216.3L112.93 217.856Z" fill="#E06666"/>
<path d="M289.626 316.911L287.154 305.033L278.04 313.1L289.626 316.911ZM242.763 266.192L282.51 310.549L284.089 309.152L244.342 264.794L242.763 266.192Z" fill="#FFC36B"/>
<path d="M288.871 264.743L286.047 252.942L277.176 261.273L288.871 264.743ZM242.784 217.799L281.569 258.592L283.106 257.15L244.321 216.356L242.784 217.799Z" fill="#FFC36B"/>
<path d="M288.116 218.204L277.704 211.874L277.394 223.999L288.116 218.204ZM243.526 218.128L278.579 219.013L278.633 216.913L243.579 216.028L243.526 218.128Z" fill="#FFC36B"/>
<path d="M288.493 168.662L278.082 162.333L277.772 174.458L288.493 168.662ZM243.904 168.586L278.957 169.472L279.011 167.372L243.957 166.486L243.904 168.586Z" fill="#FFC36B"/>
<path d="M288.871 119.121L277.25 122.827L286.29 130.976L288.871 119.121ZM245.469 168.242L283.263 126.829L281.697 125.418L243.903 166.831L245.469 168.242Z" fill="#FFC36B"/>
<path d="M288.116 215.201L285.544 203.344L276.497 211.485L288.116 215.201ZM243.902 168.241L280.947 208.898L282.514 207.488L245.469 166.831L243.902 168.241Z" fill="#FFC36B"/>
<path d="M360.776 100.84H293.131C291.185 100.84 289.608 102.408 289.608 104.342V128.151C289.608 130.085 291.185 131.653 293.131 131.653H360.776C362.722 131.653 364.3 130.085 364.3 128.151V104.342C364.3 102.408 362.722 100.84 360.776 100.84Z" fill="#4FC08D"/>
<path d="M299.011 111.364H302.045L305.25 119.182H305.386L308.591 111.364H311.625V123H309.239V115.426H309.142L306.131 122.943H304.506L301.494 115.398H301.398V123H299.011V111.364ZM317.55 123.17C316.667 123.17 315.904 122.983 315.26 122.608C314.62 122.229 314.125 121.703 313.777 121.028C313.429 120.35 313.254 119.564 313.254 118.67C313.254 117.769 313.429 116.981 313.777 116.307C314.125 115.629 314.62 115.102 315.26 114.727C315.904 114.348 316.667 114.159 317.55 114.159C318.432 114.159 319.194 114.348 319.834 114.727C320.478 115.102 320.974 115.629 321.322 116.307C321.671 116.981 321.845 117.769 321.845 118.67C321.845 119.564 321.671 120.35 321.322 121.028C320.974 121.703 320.478 122.229 319.834 122.608C319.194 122.983 318.432 123.17 317.55 123.17ZM317.561 121.295C317.963 121.295 318.298 121.182 318.567 120.955C318.836 120.723 319.038 120.409 319.175 120.011C319.315 119.614 319.385 119.161 319.385 118.653C319.385 118.146 319.315 117.693 319.175 117.295C319.038 116.898 318.836 116.583 318.567 116.352C318.298 116.121 317.963 116.006 317.561 116.006C317.156 116.006 316.815 116.121 316.538 116.352C316.266 116.583 316.059 116.898 315.919 117.295C315.783 117.693 315.714 118.146 315.714 118.653C315.714 119.161 315.783 119.614 315.919 120.011C316.059 120.409 316.266 120.723 316.538 120.955C316.815 121.182 317.156 121.295 317.561 121.295ZM316.68 113.148L317.885 110.562H320.124L318.391 113.148H316.68ZM326.635 123.142C325.972 123.142 325.372 122.972 324.834 122.631C324.3 122.286 323.875 121.78 323.561 121.114C323.25 120.443 323.095 119.621 323.095 118.648C323.095 117.648 323.256 116.816 323.578 116.153C323.9 115.487 324.328 114.989 324.862 114.659C325.4 114.326 325.989 114.159 326.629 114.159C327.118 114.159 327.525 114.242 327.851 114.409C328.18 114.572 328.446 114.777 328.646 115.023C328.851 115.265 329.006 115.504 329.112 115.739H329.186V111.364H331.601V123H329.214V121.602H329.112C328.999 121.845 328.838 122.085 328.629 122.324C328.425 122.559 328.158 122.754 327.828 122.909C327.502 123.064 327.105 123.142 326.635 123.142ZM327.402 121.216C327.792 121.216 328.122 121.11 328.391 120.898C328.663 120.682 328.872 120.381 329.016 119.994C329.163 119.608 329.237 119.155 329.237 118.636C329.237 118.117 329.165 117.667 329.021 117.284C328.877 116.902 328.669 116.606 328.396 116.398C328.124 116.189 327.792 116.085 327.402 116.085C327.004 116.085 326.669 116.193 326.396 116.409C326.124 116.625 325.917 116.924 325.777 117.307C325.637 117.689 325.567 118.133 325.567 118.636C325.567 119.144 325.637 119.593 325.777 119.983C325.921 120.369 326.127 120.672 326.396 120.892C326.669 121.108 327.004 121.216 327.402 121.216ZM339.188 119.284V114.273H341.608V123H339.284V121.415H339.193C338.996 121.926 338.669 122.337 338.21 122.648C337.756 122.958 337.201 123.114 336.545 123.114C335.962 123.114 335.449 122.981 335.006 122.716C334.563 122.451 334.216 122.074 333.966 121.585C333.72 121.097 333.595 120.511 333.591 119.83V114.273H336.011V119.398C336.015 119.913 336.153 120.32 336.426 120.619C336.699 120.919 337.064 121.068 337.523 121.068C337.814 121.068 338.087 121.002 338.341 120.869C338.595 120.733 338.799 120.532 338.955 120.267C339.114 120.002 339.191 119.674 339.188 119.284ZM345.964 111.364V123H343.544V111.364H345.964ZM351.847 123.17C350.964 123.17 350.201 122.983 349.557 122.608C348.917 122.229 348.422 121.703 348.074 121.028C347.725 120.35 347.551 119.564 347.551 118.67C347.551 117.769 347.725 116.981 348.074 116.307C348.422 115.629 348.917 115.102 349.557 114.727C350.201 114.348 350.964 114.159 351.847 114.159C352.729 114.159 353.491 114.348 354.131 114.727C354.775 115.102 355.271 115.629 355.619 116.307C355.968 116.981 356.142 117.769 356.142 118.67C356.142 119.564 355.968 120.35 355.619 121.028C355.271 121.703 354.775 122.229 354.131 122.608C353.491 122.983 352.729 123.17 351.847 123.17ZM351.858 121.295C352.259 121.295 352.595 121.182 352.864 120.955C353.133 120.723 353.335 120.409 353.472 120.011C353.612 119.614 353.682 119.161 353.682 118.653C353.682 118.146 353.612 117.693 353.472 117.295C353.335 116.898 353.133 116.583 352.864 116.352C352.595 116.121 352.259 116.006 351.858 116.006C351.453 116.006 351.112 116.121 350.835 116.352C350.563 116.583 350.356 116.898 350.216 117.295C350.08 117.693 350.011 118.146 350.011 118.653C350.011 119.161 350.08 119.614 350.216 120.011C350.356 120.409 350.563 120.723 350.835 120.955C351.112 121.182 351.453 121.295 351.858 121.295Z" fill="#15505C"/>
<path d="M360.776 152.311H293.131C291.185 152.311 289.608 153.879 289.608 155.812V179.272C289.608 181.205 291.185 182.773 293.131 182.773H360.776C362.722 182.773 364.3 181.205 364.3 179.272V155.812C364.3 153.879 362.722 152.311 360.776 152.311Z" fill="#4FC08D"/>
<path d="M299.011 162.364H302.045L305.25 170.182H305.386L308.591 162.364H311.625V174H309.239V166.426H309.142L306.131 173.943H304.506L301.494 166.398H301.398V174H299.011V162.364ZM317.55 174.17C316.667 174.17 315.904 173.983 315.26 173.608C314.62 173.229 314.125 172.703 313.777 172.028C313.429 171.35 313.254 170.564 313.254 169.67C313.254 168.769 313.429 167.981 313.777 167.307C314.125 166.629 314.62 166.102 315.26 165.727C315.904 165.348 316.667 165.159 317.55 165.159C318.432 165.159 319.194 165.348 319.834 165.727C320.478 166.102 320.974 166.629 321.322 167.307C321.671 167.981 321.845 168.769 321.845 169.67C321.845 170.564 321.671 171.35 321.322 172.028C320.974 172.703 320.478 173.229 319.834 173.608C319.194 173.983 318.432 174.17 317.55 174.17ZM317.561 172.295C317.963 172.295 318.298 172.182 318.567 171.955C318.836 171.723 319.038 171.409 319.175 171.011C319.315 170.614 319.385 170.161 319.385 169.653C319.385 169.146 319.315 168.693 319.175 168.295C319.038 167.898 318.836 167.583 318.567 167.352C318.298 167.121 317.963 167.006 317.561 167.006C317.156 167.006 316.815 167.121 316.538 167.352C316.266 167.583 316.059 167.898 315.919 168.295C315.783 168.693 315.714 169.146 315.714 169.653C315.714 170.161 315.783 170.614 315.919 171.011C316.059 171.409 316.266 171.723 316.538 171.955C316.815 172.182 317.156 172.295 317.561 172.295ZM316.68 164.148L317.885 161.562H320.124L318.391 164.148H316.68ZM326.635 174.142C325.972 174.142 325.372 173.972 324.834 173.631C324.3 173.286 323.875 172.78 323.561 172.114C323.25 171.443 323.095 170.621 323.095 169.648C323.095 168.648 323.256 167.816 323.578 167.153C323.9 166.487 324.328 165.989 324.862 165.659C325.4 165.326 325.989 165.159 326.629 165.159C327.118 165.159 327.525 165.242 327.851 165.409C328.18 165.572 328.446 165.777 328.646 166.023C328.851 166.265 329.006 166.504 329.112 166.739H329.186V162.364H331.601V174H329.214V172.602H329.112C328.999 172.845 328.838 173.085 328.629 173.324C328.425 173.559 328.158 173.754 327.828 173.909C327.502 174.064 327.105 174.142 326.635 174.142ZM327.402 172.216C327.792 172.216 328.122 172.11 328.391 171.898C328.663 171.682 328.872 171.381 329.016 170.994C329.163 170.608 329.237 170.155 329.237 169.636C329.237 169.117 329.165 168.667 329.021 168.284C328.877 167.902 328.669 167.606 328.396 167.398C328.124 167.189 327.792 167.085 327.402 167.085C327.004 167.085 326.669 167.193 326.396 167.409C326.124 167.625 325.917 167.924 325.777 168.307C325.637 168.689 325.567 169.133 325.567 169.636C325.567 170.144 325.637 170.593 325.777 170.983C325.921 171.369 326.127 171.672 326.396 171.892C326.669 172.108 327.004 172.216 327.402 172.216ZM339.188 170.284V165.273H341.608V174H339.284V172.415H339.193C338.996 172.926 338.669 173.337 338.21 173.648C337.756 173.958 337.201 174.114 336.545 174.114C335.962 174.114 335.449 173.981 335.006 173.716C334.563 173.451 334.216 173.074 333.966 172.585C333.72 172.097 333.595 171.511 333.591 170.83V165.273H336.011V170.398C336.015 170.913 336.153 171.32 336.426 171.619C336.699 171.919 337.064 172.068 337.523 172.068C337.814 172.068 338.087 172.002 338.341 171.869C338.595 171.733 338.799 171.532 338.955 171.267C339.114 171.002 339.191 170.674 339.188 170.284ZM345.964 162.364V174H343.544V162.364H345.964ZM351.847 174.17C350.964 174.17 350.201 173.983 349.557 173.608C348.917 173.229 348.422 172.703 348.074 172.028C347.725 171.35 347.551 170.564 347.551 169.67C347.551 168.769 347.725 167.981 348.074 167.307C348.422 166.629 348.917 166.102 349.557 165.727C350.201 165.348 350.964 165.159 351.847 165.159C352.729 165.159 353.491 165.348 354.131 165.727C354.775 166.102 355.271 166.629 355.619 167.307C355.968 167.981 356.142 168.769 356.142 169.67C356.142 170.564 355.968 171.35 355.619 172.028C355.271 172.703 354.775 173.229 354.131 173.608C353.491 173.983 352.729 174.17 351.847 174.17ZM351.858 172.295C352.259 172.295 352.595 172.182 352.864 171.955C353.133 171.723 353.335 171.409 353.472 171.011C353.612 170.614 353.682 170.161 353.682 169.653C353.682 169.146 353.612 168.693 353.472 168.295C353.335 167.898 353.133 167.583 352.864 167.352C352.595 167.121 352.259 167.006 351.858 167.006C351.453 167.006 351.112 167.121 350.835 167.352C350.563 167.583 350.356 167.898 350.216 168.295C350.08 168.693 350.011 169.146 350.011 169.653C350.011 170.161 350.08 170.614 350.216 171.011C350.356 171.409 350.563 171.723 350.835 171.955C351.112 172.182 351.453 172.295 351.858 172.295Z" fill="#15505C"/>
<path d="M360.072 199.93H292.426C290.48 199.93 288.903 201.498 288.903 203.431V227.241C288.903 229.175 290.48 230.742 292.426 230.742H360.072C362.018 230.742 363.595 229.175 363.595 227.241V203.431C363.595 201.498 362.018 199.93 360.072 199.93Z" fill="#4FC08D"/>
<path d="M360.776 251.401H293.131C291.185 251.401 289.608 252.968 289.608 254.902V278.361C289.608 280.295 291.185 281.863 293.131 281.863H360.776C362.722 281.863 364.3 280.295 364.3 278.361V254.902C364.3 252.968 362.722 251.401 360.776 251.401Z" fill="#4FC08D"/>
<path d="M360.776 302.521H293.131C291.185 302.521 289.608 304.089 289.608 306.022V329.832C289.608 331.766 291.185 333.333 293.131 333.333H360.776C362.722 333.333 364.3 331.766 364.3 329.832V306.022C364.3 304.089 362.722 302.521 360.776 302.521Z" fill="#4FC08D"/>
<path d="M320.381 319.267C320.006 319.267 319.684 319.134 319.415 318.869C319.15 318.6 319.017 318.278 319.017 317.903C319.017 317.532 319.15 317.214 319.415 316.949C319.684 316.684 320.006 316.551 320.381 316.551C320.744 316.551 321.063 316.684 321.335 316.949C321.608 317.214 321.744 317.532 321.744 317.903C321.744 318.153 321.68 318.383 321.551 318.591C321.426 318.795 321.261 318.96 321.057 319.085C320.852 319.206 320.627 319.267 320.381 319.267ZM325.146 319.267C324.771 319.267 324.449 319.134 324.18 318.869C323.915 318.6 323.783 318.278 323.783 317.903C323.783 317.532 323.915 317.214 324.18 316.949C324.449 316.684 324.771 316.551 325.146 316.551C325.51 316.551 325.828 316.684 326.101 316.949C326.374 317.214 326.51 317.532 326.51 317.903C326.51 318.153 326.446 318.383 326.317 318.591C326.192 318.795 326.027 318.96 325.822 319.085C325.618 319.206 325.393 319.267 325.146 319.267ZM329.912 319.267C329.537 319.267 329.215 319.134 328.946 318.869C328.681 318.6 328.548 318.278 328.548 317.903C328.548 317.532 328.681 317.214 328.946 316.949C329.215 316.684 329.537 316.551 329.912 316.551C330.276 316.551 330.594 316.684 330.866 316.949C331.139 317.214 331.276 317.532 331.276 317.903C331.276 318.153 331.211 318.383 331.082 318.591C330.957 318.795 330.793 318.96 330.588 319.085C330.384 319.206 330.158 319.267 329.912 319.267Z" fill="#15505C"/>
<path d="M198.381 266.267C198.006 266.267 197.684 266.134 197.415 265.869C197.15 265.6 197.017 265.278 197.017 264.903C197.017 264.532 197.15 264.214 197.415 263.949C197.684 263.684 198.006 263.551 198.381 263.551C198.744 263.551 199.063 263.684 199.335 263.949C199.608 264.214 199.744 264.532 199.744 264.903C199.744 265.153 199.68 265.383 199.551 265.591C199.426 265.795 199.261 265.96 199.057 266.085C198.852 266.206 198.627 266.267 198.381 266.267ZM203.146 266.267C202.771 266.267 202.449 266.134 202.18 265.869C201.915 265.6 201.783 265.278 201.783 264.903C201.783 264.532 201.915 264.214 202.18 263.949C202.449 263.684 202.771 263.551 203.146 263.551C203.51 263.551 203.828 263.684 204.101 263.949C204.374 264.214 204.51 264.532 204.51 264.903C204.51 265.153 204.446 265.383 204.317 265.591C204.192 265.795 204.027 265.96 203.822 266.085C203.618 266.206 203.393 266.267 203.146 266.267ZM207.912 266.267C207.537 266.267 207.215 266.134 206.946 265.869C206.681 265.6 206.548 265.278 206.548 264.903C206.548 264.532 206.681 264.214 206.946 263.949C207.215 263.684 207.537 263.551 207.912 263.551C208.276 263.551 208.594 263.684 208.866 263.949C209.139 264.214 209.276 264.532 209.276 264.903C209.276 265.153 209.211 265.383 209.082 265.591C208.957 265.795 208.793 265.96 208.588 266.085C208.384 266.206 208.158 266.267 207.912 266.267Z" fill="#15505C"/>
<path d="M436.525 219.538L425.956 213.473V225.603L436.525 219.538ZM400.236 220.588H427.013V218.487H400.236V220.588Z" fill="#FFC36B"/>
<path d="M562.304 219.538L551.734 213.473V225.603L562.304 219.538ZM526.015 220.588H552.791V218.487H526.015V220.588Z" fill="#FFC36B"/>
<path d="M522.492 190.826H440.049C438.103 190.826 436.525 192.394 436.525 194.328V237.745C436.525 239.679 438.103 241.246 440.049 241.246H522.492C524.437 241.246 526.015 239.679 526.015 237.745V194.328C526.015 192.394 524.437 190.826 522.492 190.826Z" fill="#C692EA"/>
<path d="M450.011 222V210.364H454.602C455.485 210.364 456.237 210.532 456.858 210.869C457.479 211.203 457.953 211.667 458.278 212.261C458.608 212.852 458.773 213.534 458.773 214.307C458.773 215.08 458.606 215.761 458.273 216.352C457.939 216.943 457.456 217.403 456.824 217.733C456.195 218.062 455.434 218.227 454.54 218.227H451.614V216.256H454.142C454.616 216.256 455.006 216.174 455.312 216.011C455.623 215.845 455.854 215.616 456.006 215.324C456.161 215.028 456.239 214.689 456.239 214.307C456.239 213.92 456.161 213.583 456.006 213.295C455.854 213.004 455.623 212.778 455.312 212.619C455.002 212.456 454.608 212.375 454.131 212.375H452.472V222H450.011ZM462.58 222.165C462.023 222.165 461.527 222.068 461.091 221.875C460.655 221.678 460.311 221.388 460.057 221.006C459.807 220.619 459.682 220.138 459.682 219.562C459.682 219.078 459.771 218.67 459.949 218.341C460.127 218.011 460.369 217.746 460.676 217.545C460.983 217.345 461.331 217.193 461.722 217.091C462.116 216.989 462.528 216.917 462.96 216.875C463.468 216.822 463.877 216.773 464.188 216.727C464.498 216.678 464.723 216.606 464.864 216.511C465.004 216.417 465.074 216.277 465.074 216.091V216.057C465.074 215.697 464.96 215.419 464.733 215.222C464.509 215.025 464.191 214.926 463.778 214.926C463.343 214.926 462.996 215.023 462.739 215.216C462.481 215.405 462.311 215.644 462.227 215.932L459.989 215.75C460.102 215.22 460.326 214.761 460.659 214.375C460.992 213.985 461.422 213.686 461.949 213.477C462.479 213.265 463.093 213.159 463.79 213.159C464.275 213.159 464.739 213.216 465.182 213.33C465.629 213.443 466.025 213.619 466.369 213.858C466.718 214.097 466.992 214.403 467.193 214.778C467.394 215.15 467.494 215.595 467.494 216.114V222H465.199V220.79H465.131C464.991 221.062 464.803 221.303 464.568 221.511C464.333 221.716 464.051 221.877 463.722 221.994C463.392 222.108 463.011 222.165 462.58 222.165ZM463.273 220.494C463.629 220.494 463.943 220.424 464.216 220.284C464.489 220.14 464.703 219.947 464.858 219.705C465.013 219.462 465.091 219.187 465.091 218.881V217.955C465.015 218.004 464.911 218.049 464.778 218.091C464.65 218.129 464.504 218.165 464.341 218.199C464.178 218.229 464.015 218.258 463.852 218.284C463.689 218.307 463.542 218.328 463.409 218.347C463.125 218.388 462.877 218.455 462.665 218.545C462.453 218.636 462.288 218.759 462.17 218.915C462.053 219.066 461.994 219.256 461.994 219.483C461.994 219.812 462.114 220.064 462.352 220.239C462.595 220.409 462.902 220.494 463.273 220.494ZM475.139 225.273V220.602H475.065C474.952 220.845 474.791 221.085 474.582 221.324C474.378 221.559 474.111 221.754 473.781 221.909C473.455 222.064 473.058 222.142 472.588 222.142C471.925 222.142 471.325 221.972 470.787 221.631C470.253 221.286 469.829 220.78 469.514 220.114C469.204 219.443 469.048 218.621 469.048 217.648C469.048 216.648 469.209 215.816 469.531 215.153C469.853 214.487 470.281 213.989 470.815 213.659C471.353 213.326 471.942 213.159 472.582 213.159C473.071 213.159 473.478 213.242 473.804 213.409C474.134 213.572 474.399 213.777 474.599 214.023C474.804 214.265 474.959 214.504 475.065 214.739H475.168V213.273H477.554V225.273H475.139ZM473.355 220.216C473.745 220.216 474.075 220.11 474.344 219.898C474.616 219.682 474.825 219.381 474.969 218.994C475.116 218.608 475.19 218.155 475.19 217.636C475.19 217.117 475.118 216.667 474.974 216.284C474.83 215.902 474.622 215.606 474.349 215.398C474.077 215.189 473.745 215.085 473.355 215.085C472.957 215.085 472.622 215.193 472.349 215.409C472.077 215.625 471.87 215.924 471.73 216.307C471.59 216.689 471.52 217.133 471.52 217.636C471.52 218.144 471.59 218.593 471.73 218.983C471.874 219.369 472.08 219.672 472.349 219.892C472.622 220.108 472.957 220.216 473.355 220.216ZM485.094 218.284V213.273H487.514V222H485.19V220.415H485.099C484.902 220.926 484.575 221.337 484.116 221.648C483.662 221.958 483.107 222.114 482.452 222.114C481.868 222.114 481.355 221.981 480.912 221.716C480.469 221.451 480.122 221.074 479.872 220.585C479.626 220.097 479.501 219.511 479.497 218.83V213.273H481.918V218.398C481.921 218.913 482.06 219.32 482.332 219.619C482.605 219.919 482.971 220.068 483.429 220.068C483.721 220.068 483.993 220.002 484.247 219.869C484.501 219.733 484.705 219.532 484.861 219.267C485.02 219.002 485.098 218.674 485.094 218.284ZM493.428 222.17C492.53 222.17 491.757 221.989 491.109 221.625C490.465 221.258 489.969 220.739 489.621 220.068C489.272 219.394 489.098 218.597 489.098 217.676C489.098 216.778 489.272 215.991 489.621 215.312C489.969 214.634 490.46 214.106 491.092 213.727C491.729 213.348 492.475 213.159 493.331 213.159C493.907 213.159 494.443 213.252 494.939 213.438C495.439 213.619 495.875 213.894 496.246 214.261C496.621 214.629 496.912 215.091 497.121 215.648C497.329 216.201 497.433 216.848 497.433 217.591V218.256H490.064V216.756H495.155C495.155 216.407 495.079 216.098 494.928 215.83C494.776 215.561 494.566 215.35 494.297 215.199C494.032 215.044 493.723 214.966 493.371 214.966C493.003 214.966 492.678 215.051 492.393 215.222C492.113 215.388 491.893 215.614 491.734 215.898C491.575 216.178 491.494 216.491 491.49 216.835V218.261C491.49 218.693 491.57 219.066 491.729 219.381C491.892 219.695 492.121 219.938 492.416 220.108C492.712 220.278 493.062 220.364 493.467 220.364C493.736 220.364 493.982 220.326 494.206 220.25C494.429 220.174 494.621 220.061 494.78 219.909C494.939 219.758 495.06 219.572 495.143 219.352L497.382 219.5C497.268 220.038 497.036 220.508 496.683 220.909C496.335 221.307 495.884 221.617 495.331 221.841C494.782 222.061 494.147 222.17 493.428 222.17ZM503.655 213.273V215.091H498.399V213.273H503.655ZM499.592 211.182H502.013V219.318C502.013 219.542 502.047 219.716 502.115 219.841C502.183 219.962 502.278 220.047 502.399 220.097C502.524 220.146 502.668 220.17 502.831 220.17C502.945 220.17 503.058 220.161 503.172 220.142C503.286 220.119 503.373 220.102 503.433 220.091L503.814 221.892C503.693 221.93 503.522 221.973 503.303 222.023C503.083 222.076 502.816 222.108 502.501 222.119C501.918 222.142 501.407 222.064 500.967 221.886C500.532 221.708 500.193 221.432 499.95 221.057C499.708 220.682 499.589 220.208 499.592 219.636V211.182ZM509.115 222.17C508.217 222.17 507.445 221.989 506.797 221.625C506.153 221.258 505.657 220.739 505.308 220.068C504.96 219.394 504.786 218.597 504.786 217.676C504.786 216.778 504.96 215.991 505.308 215.312C505.657 214.634 506.147 214.106 506.78 213.727C507.416 213.348 508.162 213.159 509.018 213.159C509.594 213.159 510.13 213.252 510.626 213.438C511.126 213.619 511.562 213.894 511.933 214.261C512.308 214.629 512.6 215.091 512.808 215.648C513.017 216.201 513.121 216.848 513.121 217.591V218.256H505.751V216.756H510.842C510.842 216.407 510.767 216.098 510.615 215.83C510.464 215.561 510.253 215.35 509.984 215.199C509.719 215.044 509.411 214.966 509.058 214.966C508.691 214.966 508.365 215.051 508.081 215.222C507.801 215.388 507.581 215.614 507.422 215.898C507.263 216.178 507.181 216.491 507.178 216.835V218.261C507.178 218.693 507.257 219.066 507.416 219.381C507.579 219.695 507.808 219.938 508.104 220.108C508.399 220.278 508.75 220.364 509.155 220.364C509.424 220.364 509.67 220.326 509.893 220.25C510.117 220.174 510.308 220.061 510.467 219.909C510.626 219.758 510.748 219.572 510.831 219.352L513.07 219.5C512.956 220.038 512.723 220.508 512.371 220.909C512.022 221.307 511.571 221.617 511.018 221.841C510.469 222.061 509.835 222.17 509.115 222.17Z" fill="white"/>
<path d="M648.27 190.126H565.827C563.881 190.126 562.304 191.694 562.304 193.627V236.695C562.304 238.628 563.881 240.196 565.827 240.196H648.27C650.216 240.196 651.793 238.628 651.793 236.695V193.627C651.793 191.694 650.216 190.126 648.27 190.126Z" fill="#009688"/>
<path d="M581.324 213.71C581.278 213.252 581.083 212.896 580.739 212.642C580.394 212.388 579.926 212.261 579.335 212.261C578.934 212.261 578.595 212.318 578.318 212.432C578.042 212.542 577.83 212.695 577.682 212.892C577.538 213.089 577.466 213.312 577.466 213.562C577.458 213.771 577.502 213.953 577.597 214.108C577.695 214.263 577.83 214.398 578 214.511C578.17 214.621 578.367 214.718 578.591 214.801C578.814 214.881 579.053 214.949 579.307 215.006L580.352 215.256C580.86 215.369 581.326 215.521 581.75 215.71C582.174 215.9 582.542 216.133 582.852 216.409C583.163 216.686 583.403 217.011 583.574 217.386C583.748 217.761 583.837 218.191 583.841 218.676C583.837 219.388 583.655 220.006 583.295 220.528C582.939 221.047 582.424 221.451 581.75 221.739C581.08 222.023 580.271 222.165 579.324 222.165C578.384 222.165 577.566 222.021 576.869 221.733C576.176 221.445 575.634 221.019 575.244 220.455C574.858 219.886 574.655 219.184 574.636 218.347H577.017C577.044 218.737 577.155 219.062 577.352 219.324C577.553 219.581 577.82 219.777 578.153 219.909C578.491 220.038 578.871 220.102 579.295 220.102C579.712 220.102 580.074 220.042 580.381 219.92C580.691 219.799 580.932 219.631 581.102 219.415C581.273 219.199 581.358 218.951 581.358 218.67C581.358 218.409 581.28 218.189 581.125 218.011C580.973 217.833 580.75 217.682 580.455 217.557C580.163 217.432 579.805 217.318 579.381 217.216L578.114 216.898C577.133 216.659 576.358 216.286 575.79 215.778C575.222 215.271 574.939 214.587 574.943 213.727C574.939 213.023 575.127 212.407 575.506 211.881C575.888 211.354 576.413 210.943 577.08 210.648C577.746 210.352 578.504 210.205 579.352 210.205C580.216 210.205 580.97 210.352 581.614 210.648C582.261 210.943 582.765 211.354 583.125 211.881C583.485 212.407 583.67 213.017 583.682 213.71H581.324ZM589.428 222.17C588.53 222.17 587.757 221.989 587.109 221.625C586.465 221.258 585.969 220.739 585.621 220.068C585.272 219.394 585.098 218.597 585.098 217.676C585.098 216.778 585.272 215.991 585.621 215.312C585.969 214.634 586.46 214.106 587.092 213.727C587.729 213.348 588.475 213.159 589.331 213.159C589.907 213.159 590.443 213.252 590.939 213.438C591.439 213.619 591.875 213.894 592.246 214.261C592.621 214.629 592.912 215.091 593.121 215.648C593.329 216.201 593.433 216.848 593.433 217.591V218.256H586.064V216.756H591.155C591.155 216.407 591.079 216.098 590.928 215.83C590.776 215.561 590.566 215.35 590.297 215.199C590.032 215.044 589.723 214.966 589.371 214.966C589.003 214.966 588.678 215.051 588.393 215.222C588.113 215.388 587.893 215.614 587.734 215.898C587.575 216.178 587.494 216.491 587.49 216.835V218.261C587.49 218.693 587.57 219.066 587.729 219.381C587.892 219.695 588.121 219.938 588.416 220.108C588.712 220.278 589.062 220.364 589.467 220.364C589.736 220.364 589.982 220.326 590.206 220.25C590.429 220.174 590.621 220.061 590.78 219.909C590.939 219.758 591.06 219.572 591.143 219.352L593.382 219.5C593.268 220.038 593.036 220.508 592.683 220.909C592.335 221.307 591.884 221.617 591.331 221.841C590.782 222.061 590.147 222.17 589.428 222.17ZM595.013 222V213.273H597.359V214.795H597.45C597.609 214.254 597.876 213.845 598.251 213.568C598.626 213.288 599.058 213.148 599.547 213.148C599.668 213.148 599.799 213.155 599.939 213.17C600.079 213.186 600.202 213.206 600.308 213.233V215.381C600.195 215.347 600.037 215.316 599.837 215.29C599.636 215.263 599.452 215.25 599.286 215.25C598.929 215.25 598.611 215.328 598.331 215.483C598.054 215.634 597.835 215.847 597.672 216.119C597.513 216.392 597.433 216.706 597.433 217.062V222H595.013ZM609.962 213.273L606.911 222H604.183L601.132 213.273H603.689L605.501 219.517H605.592L607.399 213.273H609.962ZM611.2 222V213.273H613.621V222H611.2ZM612.416 212.148C612.056 212.148 611.748 212.028 611.49 211.79C611.236 211.547 611.109 211.258 611.109 210.92C611.109 210.587 611.236 210.301 611.49 210.062C611.748 209.82 612.056 209.699 612.416 209.699C612.776 209.699 613.083 209.82 613.337 210.062C613.594 210.301 613.723 210.587 613.723 210.92C613.723 211.258 613.594 211.547 613.337 211.79C613.083 212.028 612.776 212.148 612.416 212.148ZM618.776 222.142C618.113 222.142 617.512 221.972 616.974 221.631C616.44 221.286 616.016 220.78 615.702 220.114C615.391 219.443 615.236 218.621 615.236 217.648C615.236 216.648 615.397 215.816 615.719 215.153C616.041 214.487 616.469 213.989 617.003 213.659C617.541 213.326 618.13 213.159 618.77 213.159C619.259 213.159 619.666 213.242 619.991 213.409C620.321 213.572 620.586 213.777 620.787 214.023C620.991 214.265 621.147 214.504 621.253 214.739H621.327V210.364H623.741V222H621.355V220.602H621.253C621.139 220.845 620.978 221.085 620.77 221.324C620.565 221.559 620.298 221.754 619.969 221.909C619.643 222.064 619.245 222.142 618.776 222.142ZM619.543 220.216C619.933 220.216 620.262 220.11 620.531 219.898C620.804 219.682 621.012 219.381 621.156 218.994C621.304 218.608 621.378 218.155 621.378 217.636C621.378 217.117 621.306 216.667 621.162 216.284C621.018 215.902 620.81 215.606 620.537 215.398C620.264 215.189 619.933 215.085 619.543 215.085C619.145 215.085 618.81 215.193 618.537 215.409C618.264 215.625 618.058 215.924 617.918 216.307C617.777 216.689 617.707 217.133 617.707 217.636C617.707 218.144 617.777 218.593 617.918 218.983C618.062 219.369 618.268 219.672 618.537 219.892C618.81 220.108 619.145 220.216 619.543 220.216ZM629.675 222.17C628.792 222.17 628.029 221.983 627.385 221.608C626.745 221.229 626.25 220.703 625.902 220.028C625.554 219.35 625.379 218.564 625.379 217.67C625.379 216.769 625.554 215.981 625.902 215.307C626.25 214.629 626.745 214.102 627.385 213.727C628.029 213.348 628.792 213.159 629.675 213.159C630.557 213.159 631.319 213.348 631.959 213.727C632.603 214.102 633.099 214.629 633.447 215.307C633.796 215.981 633.97 216.769 633.97 217.67C633.97 218.564 633.796 219.35 633.447 220.028C633.099 220.703 632.603 221.229 631.959 221.608C631.319 221.983 630.557 222.17 629.675 222.17ZM629.686 220.295C630.088 220.295 630.423 220.182 630.692 219.955C630.961 219.723 631.163 219.409 631.3 219.011C631.44 218.614 631.51 218.161 631.51 217.653C631.51 217.146 631.44 216.693 631.3 216.295C631.163 215.898 630.961 215.583 630.692 215.352C630.423 215.121 630.088 215.006 629.686 215.006C629.281 215.006 628.94 215.121 628.663 215.352C628.391 215.583 628.184 215.898 628.044 216.295C627.908 216.693 627.839 217.146 627.839 217.653C627.839 218.161 627.908 218.614 628.044 219.011C628.184 219.409 628.391 219.723 628.663 219.955C628.94 220.182 629.281 220.295 629.686 220.295ZM635.544 222V213.273H637.891V214.795H637.982C638.141 214.254 638.408 213.845 638.783 213.568C639.158 213.288 639.589 213.148 640.078 213.148C640.199 213.148 640.33 213.155 640.47 213.17C640.61 213.186 640.733 213.206 640.839 213.233V215.381C640.726 215.347 640.569 215.316 640.368 215.29C640.167 215.263 639.983 215.25 639.817 215.25C639.461 215.25 639.143 215.328 638.862 215.483C638.586 215.634 638.366 215.847 638.203 216.119C638.044 216.392 637.964 216.706 637.964 217.062V222H635.544Z" fill="white"/>
<path d="M299.011 260.364H302.045L305.25 268.182H305.386L308.591 260.364H311.625V272H309.239V264.426H309.142L306.131 271.943H304.506L301.494 264.398H301.398V272H299.011V260.364ZM317.55 272.17C316.667 272.17 315.904 271.983 315.26 271.608C314.62 271.229 314.125 270.703 313.777 270.028C313.429 269.35 313.254 268.564 313.254 267.67C313.254 266.769 313.429 265.981 313.777 265.307C314.125 264.629 314.62 264.102 315.26 263.727C315.904 263.348 316.667 263.159 317.55 263.159C318.432 263.159 319.194 263.348 319.834 263.727C320.478 264.102 320.974 264.629 321.322 265.307C321.671 265.981 321.845 266.769 321.845 267.67C321.845 268.564 321.671 269.35 321.322 270.028C320.974 270.703 320.478 271.229 319.834 271.608C319.194 271.983 318.432 272.17 317.55 272.17ZM317.561 270.295C317.963 270.295 318.298 270.182 318.567 269.955C318.836 269.723 319.038 269.409 319.175 269.011C319.315 268.614 319.385 268.161 319.385 267.653C319.385 267.146 319.315 266.693 319.175 266.295C319.038 265.898 318.836 265.583 318.567 265.352C318.298 265.121 317.963 265.006 317.561 265.006C317.156 265.006 316.815 265.121 316.538 265.352C316.266 265.583 316.059 265.898 315.919 266.295C315.783 266.693 315.714 267.146 315.714 267.653C315.714 268.161 315.783 268.614 315.919 269.011C316.059 269.409 316.266 269.723 316.538 269.955C316.815 270.182 317.156 270.295 317.561 270.295ZM316.68 262.148L317.885 259.562H320.124L318.391 262.148H316.68ZM326.635 272.142C325.972 272.142 325.372 271.972 324.834 271.631C324.3 271.286 323.875 270.78 323.561 270.114C323.25 269.443 323.095 268.621 323.095 267.648C323.095 266.648 323.256 265.816 323.578 265.153C323.9 264.487 324.328 263.989 324.862 263.659C325.4 263.326 325.989 263.159 326.629 263.159C327.118 263.159 327.525 263.242 327.851 263.409C328.18 263.572 328.446 263.777 328.646 264.023C328.851 264.265 329.006 264.504 329.112 264.739H329.186V260.364H331.601V272H329.214V270.602H329.112C328.999 270.845 328.838 271.085 328.629 271.324C328.425 271.559 328.158 271.754 327.828 271.909C327.502 272.064 327.105 272.142 326.635 272.142ZM327.402 270.216C327.792 270.216 328.122 270.11 328.391 269.898C328.663 269.682 328.872 269.381 329.016 268.994C329.163 268.608 329.237 268.155 329.237 267.636C329.237 267.117 329.165 266.667 329.021 266.284C328.877 265.902 328.669 265.606 328.396 265.398C328.124 265.189 327.792 265.085 327.402 265.085C327.004 265.085 326.669 265.193 326.396 265.409C326.124 265.625 325.917 265.924 325.777 266.307C325.637 266.689 325.567 267.133 325.567 267.636C325.567 268.144 325.637 268.593 325.777 268.983C325.921 269.369 326.127 269.672 326.396 269.892C326.669 270.108 327.004 270.216 327.402 270.216ZM339.188 268.284V263.273H341.608V272H339.284V270.415H339.193C338.996 270.926 338.669 271.337 338.21 271.648C337.756 271.958 337.201 272.114 336.545 272.114C335.962 272.114 335.449 271.981 335.006 271.716C334.563 271.451 334.216 271.074 333.966 270.585C333.72 270.097 333.595 269.511 333.591 268.83V263.273H336.011V268.398C336.015 268.913 336.153 269.32 336.426 269.619C336.699 269.919 337.064 270.068 337.523 270.068C337.814 270.068 338.087 270.002 338.341 269.869C338.595 269.733 338.799 269.532 338.955 269.267C339.114 269.002 339.191 268.674 339.188 268.284ZM345.964 260.364V272H343.544V260.364H345.964ZM351.847 272.17C350.964 272.17 350.201 271.983 349.557 271.608C348.917 271.229 348.422 270.703 348.074 270.028C347.725 269.35 347.551 268.564 347.551 267.67C347.551 266.769 347.725 265.981 348.074 265.307C348.422 264.629 348.917 264.102 349.557 263.727C350.201 263.348 350.964 263.159 351.847 263.159C352.729 263.159 353.491 263.348 354.131 263.727C354.775 264.102 355.271 264.629 355.619 265.307C355.968 265.981 356.142 266.769 356.142 267.67C356.142 268.564 355.968 269.35 355.619 270.028C355.271 270.703 354.775 271.229 354.131 271.608C353.491 271.983 352.729 272.17 351.847 272.17ZM351.858 270.295C352.259 270.295 352.595 270.182 352.864 269.955C353.133 269.723 353.335 269.409 353.472 269.011C353.612 268.614 353.682 268.161 353.682 267.653C353.682 267.146 353.612 266.693 353.472 266.295C353.335 265.898 353.133 265.583 352.864 265.352C352.595 265.121 352.259 265.006 351.858 265.006C351.453 265.006 351.112 265.121 350.835 265.352C350.563 265.583 350.356 265.898 350.216 266.295C350.08 266.693 350.011 267.146 350.011 267.653C350.011 268.161 350.08 268.614 350.216 269.011C350.356 269.409 350.563 269.723 350.835 269.955C351.112 270.182 351.453 270.295 351.858 270.295Z" fill="#15505C"/>
<path d="M298.011 210.364H301.045L304.25 218.182H304.386L307.591 210.364H310.625V222H308.239V214.426H308.142L305.131 221.943H303.506L300.494 214.398H300.398V222H298.011V210.364ZM316.55 222.17C315.667 222.17 314.904 221.983 314.26 221.608C313.62 221.229 313.125 220.703 312.777 220.028C312.429 219.35 312.254 218.564 312.254 217.67C312.254 216.769 312.429 215.981 312.777 215.307C313.125 214.629 313.62 214.102 314.26 213.727C314.904 213.348 315.667 213.159 316.55 213.159C317.432 213.159 318.194 213.348 318.834 213.727C319.478 214.102 319.974 214.629 320.322 215.307C320.671 215.981 320.845 216.769 320.845 217.67C320.845 218.564 320.671 219.35 320.322 220.028C319.974 220.703 319.478 221.229 318.834 221.608C318.194 221.983 317.432 222.17 316.55 222.17ZM316.561 220.295C316.963 220.295 317.298 220.182 317.567 219.955C317.836 219.723 318.038 219.409 318.175 219.011C318.315 218.614 318.385 218.161 318.385 217.653C318.385 217.146 318.315 216.693 318.175 216.295C318.038 215.898 317.836 215.583 317.567 215.352C317.298 215.121 316.963 215.006 316.561 215.006C316.156 215.006 315.815 215.121 315.538 215.352C315.266 215.583 315.059 215.898 314.919 216.295C314.783 216.693 314.714 217.146 314.714 217.653C314.714 218.161 314.783 218.614 314.919 219.011C315.059 219.409 315.266 219.723 315.538 219.955C315.815 220.182 316.156 220.295 316.561 220.295ZM315.68 212.148L316.885 209.562H319.124L317.391 212.148H315.68ZM325.635 222.142C324.972 222.142 324.372 221.972 323.834 221.631C323.3 221.286 322.875 220.78 322.561 220.114C322.25 219.443 322.095 218.621 322.095 217.648C322.095 216.648 322.256 215.816 322.578 215.153C322.9 214.487 323.328 213.989 323.862 213.659C324.4 213.326 324.989 213.159 325.629 213.159C326.118 213.159 326.525 213.242 326.851 213.409C327.18 213.572 327.446 213.777 327.646 214.023C327.851 214.265 328.006 214.504 328.112 214.739H328.186V210.364H330.601V222H328.214V220.602H328.112C327.999 220.845 327.838 221.085 327.629 221.324C327.425 221.559 327.158 221.754 326.828 221.909C326.502 222.064 326.105 222.142 325.635 222.142ZM326.402 220.216C326.792 220.216 327.122 220.11 327.391 219.898C327.663 219.682 327.872 219.381 328.016 218.994C328.163 218.608 328.237 218.155 328.237 217.636C328.237 217.117 328.165 216.667 328.021 216.284C327.877 215.902 327.669 215.606 327.396 215.398C327.124 215.189 326.792 215.085 326.402 215.085C326.004 215.085 325.669 215.193 325.396 215.409C325.124 215.625 324.917 215.924 324.777 216.307C324.637 216.689 324.567 217.133 324.567 217.636C324.567 218.144 324.637 218.593 324.777 218.983C324.921 219.369 325.127 219.672 325.396 219.892C325.669 220.108 326.004 220.216 326.402 220.216ZM338.188 218.284V213.273H340.608V222H338.284V220.415H338.193C337.996 220.926 337.669 221.337 337.21 221.648C336.756 221.958 336.201 222.114 335.545 222.114C334.962 222.114 334.449 221.981 334.006 221.716C333.563 221.451 333.216 221.074 332.966 220.585C332.72 220.097 332.595 219.511 332.591 218.83V213.273H335.011V218.398C335.015 218.913 335.153 219.32 335.426 219.619C335.699 219.919 336.064 220.068 336.523 220.068C336.814 220.068 337.087 220.002 337.341 219.869C337.595 219.733 337.799 219.532 337.955 219.267C338.114 219.002 338.191 218.674 338.188 218.284ZM344.964 210.364V222H342.544V210.364H344.964ZM350.847 222.17C349.964 222.17 349.201 221.983 348.557 221.608C347.917 221.229 347.422 220.703 347.074 220.028C346.725 219.35 346.551 218.564 346.551 217.67C346.551 216.769 346.725 215.981 347.074 215.307C347.422 214.629 347.917 214.102 348.557 213.727C349.201 213.348 349.964 213.159 350.847 213.159C351.729 213.159 352.491 213.348 353.131 213.727C353.775 214.102 354.271 214.629 354.619 215.307C354.968 215.981 355.142 216.769 355.142 217.67C355.142 218.564 354.968 219.35 354.619 220.028C354.271 220.703 353.775 221.229 353.131 221.608C352.491 221.983 351.729 222.17 350.847 222.17ZM350.858 220.295C351.259 220.295 351.595 220.182 351.864 219.955C352.133 219.723 352.335 219.409 352.472 219.011C352.612 218.614 352.682 218.161 352.682 217.653C352.682 217.146 352.612 216.693 352.472 216.295C352.335 215.898 352.133 215.583 351.864 215.352C351.595 215.121 351.259 215.006 350.858 215.006C350.453 215.006 350.112 215.121 349.835 215.352C349.563 215.583 349.356 215.898 349.216 216.295C349.08 216.693 349.011 217.146 349.011 217.653C349.011 218.161 349.08 218.614 349.216 219.011C349.356 219.409 349.563 219.723 349.835 219.955C350.112 220.182 350.453 220.295 350.858 220.295Z" fill="#15505C"/>
<path d="M187.011 223V211.364H191.602C192.481 211.364 193.231 211.521 193.852 211.835C194.477 212.146 194.953 212.587 195.278 213.159C195.608 213.727 195.773 214.396 195.773 215.165C195.773 215.937 195.606 216.602 195.273 217.159C194.939 217.712 194.456 218.136 193.824 218.432C193.195 218.727 192.434 218.875 191.54 218.875H188.466V216.898H191.142C191.612 216.898 192.002 216.833 192.312 216.705C192.623 216.576 192.854 216.383 193.006 216.125C193.161 215.867 193.239 215.547 193.239 215.165C193.239 214.778 193.161 214.453 193.006 214.188C192.854 213.922 192.621 213.722 192.307 213.585C191.996 213.445 191.604 213.375 191.131 213.375H189.472V223H187.011ZM193.295 217.705L196.188 223H193.472L190.642 217.705H193.295ZM203.062 219.284V214.273H205.483V223H203.159V221.415H203.068C202.871 221.926 202.544 222.337 202.085 222.648C201.631 222.958 201.076 223.114 200.42 223.114C199.837 223.114 199.324 222.981 198.881 222.716C198.438 222.451 198.091 222.074 197.841 221.585C197.595 221.097 197.47 220.511 197.466 219.83V214.273H199.886V219.398C199.89 219.913 200.028 220.32 200.301 220.619C200.574 220.919 200.939 221.068 201.398 221.068C201.689 221.068 201.962 221.002 202.216 220.869C202.47 220.733 202.674 220.532 202.83 220.267C202.989 220.002 203.066 219.674 203.062 219.284ZM212.061 214.273V216.091H206.805V214.273H212.061ZM207.999 212.182H210.419V220.318C210.419 220.542 210.453 220.716 210.521 220.841C210.589 220.962 210.684 221.047 210.805 221.097C210.93 221.146 211.074 221.17 211.237 221.17C211.351 221.17 211.464 221.161 211.578 221.142C211.692 221.119 211.779 221.102 211.839 221.091L212.22 222.892C212.099 222.93 211.929 222.973 211.709 223.023C211.489 223.076 211.222 223.108 210.908 223.119C210.324 223.142 209.813 223.064 209.374 222.886C208.938 222.708 208.599 222.432 208.357 222.057C208.114 221.682 207.995 221.208 207.999 220.636V212.182ZM216.126 223.165C215.57 223.165 215.073 223.068 214.638 222.875C214.202 222.678 213.857 222.388 213.604 222.006C213.354 221.619 213.229 221.138 213.229 220.562C213.229 220.078 213.318 219.67 213.496 219.341C213.674 219.011 213.916 218.746 214.223 218.545C214.53 218.345 214.878 218.193 215.268 218.091C215.662 217.989 216.075 217.917 216.507 217.875C217.015 217.822 217.424 217.773 217.734 217.727C218.045 217.678 218.27 217.606 218.411 217.511C218.551 217.417 218.621 217.277 218.621 217.091V217.057C218.621 216.697 218.507 216.419 218.28 216.222C218.056 216.025 217.738 215.926 217.325 215.926C216.89 215.926 216.543 216.023 216.286 216.216C216.028 216.405 215.857 216.644 215.774 216.932L213.536 216.75C213.649 216.22 213.873 215.761 214.206 215.375C214.539 214.985 214.969 214.686 215.496 214.477C216.026 214.265 216.64 214.159 217.337 214.159C217.821 214.159 218.286 214.216 218.729 214.33C219.176 214.443 219.571 214.619 219.916 214.858C220.265 215.097 220.539 215.403 220.74 215.778C220.941 216.15 221.041 216.595 221.041 217.114V223H218.746V221.79H218.678C218.537 222.062 218.35 222.303 218.115 222.511C217.88 222.716 217.598 222.877 217.268 222.994C216.939 223.108 216.558 223.165 216.126 223.165ZM216.82 221.494C217.176 221.494 217.49 221.424 217.763 221.284C218.036 221.14 218.25 220.947 218.405 220.705C218.56 220.462 218.638 220.187 218.638 219.881V218.955C218.562 219.004 218.458 219.049 218.325 219.091C218.196 219.129 218.051 219.165 217.888 219.199C217.725 219.229 217.562 219.258 217.399 219.284C217.236 219.307 217.089 219.328 216.956 219.347C216.672 219.388 216.424 219.455 216.212 219.545C216 219.636 215.835 219.759 215.717 219.915C215.6 220.066 215.541 220.256 215.541 220.483C215.541 220.812 215.661 221.064 215.899 221.239C216.142 221.409 216.448 221.494 216.82 221.494Z" fill="#15505C"/>
</svg>
